SplineFontDB: 3.2
FontName: NeuveGrotesque-Bold
FullName: Neuve Grotesque Bold
FamilyName: Neuve Grotesque
Weight: Bold
Copyright: Copyleft Adam Coulombe 2020
Version: 1.000
ItalicAngle: 0
UnderlinePosition: -427
UnderlineWidth: 69
Ascent: 800
Descent: 200
InvalidEm: 0
sfntRevision: 0x00010000
LayerCount: 2
Layer: 0 1 "Back" 1
Layer: 1 1 "Fore" 0
XUID: [1021 546 857309995 11149]
StyleMap: 0x0020
FSType: 0
OS2Version: 1
OS2_WeightWidthSlopeOnly: 0
OS2_UseTypoMetrics: 0
CreationTime: 1203284335
ModificationTime: 1583800939
PfmFamily: 17
TTFWeight: 700
TTFWidth: 5
LineGap: 90
VLineGap: 0
Panose: 2 11 7 4 2 2 2 2 2 4
OS2TypoAscent: 800
OS2TypoAOffset: 0
OS2TypoDescent: -200
OS2TypoDOffset: 0
OS2TypoLinegap: 0
OS2WinAscent: 1000
OS2WinAOffset: 0
OS2WinDescent: 300
OS2WinDOffset: 0
HheadAscent: 1000
HheadAOffset: 0
HheadDescent: -300
HheadDOffset: 0
OS2SubXSize: 650
OS2SubYSize: 699
OS2SubXOff: 47
OS2SubYOff: 140
OS2SupXSize: 650
OS2SupYSize: 699
OS2SupXOff: -163
OS2SupYOff: 479
OS2StrikeYSize: 49
OS2StrikeYPos: 258
OS2Vendor: 'GNU '
OS2CodePages: 600001bf.00000000
OS2UnicodeRanges: e4020eff.4000e17f.00001020.00000000
Lookup: 258 0 0 "'kern' Horizontal Kerning in Latin lookup 0" { "'kern' Horizontal Kerning in Latin lookup 0 kerning class 0" [150,0,0] "'kern' Horizontal Kerning in Latin lookup 0 kerning class 1" [150,0,0] "'kern' Horizontal Kerning in Latin lookup 0 kerning class 2" [150,0,0] "'kern' Horizontal Kerning in Latin lookup 0 kerning class 3" [150,0,0] } ['kern' ('DFLT' <'dflt' > 'latn' <'dflt' > ) ]
Lookup: 258 0 0 "'kern' Horizontal Kerning in Cyrillic lookup 1" { "'kern' Horizontal Kerning in Cyrillic lookup 1 kerning class 0"  "'kern' Horizontal Kerning in Cyrillic lookup 1 kerning class 1"  } ['kern' ('cyrl' <'dflt' > ) ]
MarkAttachClasses: 1
DEI: 91125
KernClass2: 18 26 "'kern' Horizontal Kerning in Latin lookup 0 kerning class 0"
 50 A Agrave Aacute Acircumflex Atilde Adieresis Aring
 1 B
 24 C D G Ccedilla Eth Thorn

StartChar: .notdef
Encoding: 65536 -1 0
Width: 364
Flags: W
LayerCount: 2
Fore
SplineSet
33 0 m 1,0,-1
 33 666 l 1,1,-1
 298 666 l 1,2,-1
 298 0 l 1,3,-1
 33 0 l 1,0,-1
66 33 m 1,4,-1
 265 33 l 1,5,-1
 265 633 l 1,6,-1
 66 633 l 1,7,-1
 66 33 l 1,4,-1
EndSplineSet
Validated: 1
EndChar

StartChar: exclam
Encoding: 33 33 4
Width: 347
GlyphClass: 2
Flags: W
LayerCount: 2
Fore
SplineSet
265 726 m 1,0,-1
 265 516 l 1,1,-1
 221 207 l 1,2,-1
 152 207 l 1,3,-1
 109 516 l 1,4,-1
 109 726 l 1,5,-1
 265 726 l 1,0,-1
265 146 m 1,6,-1
 265 0 l 1,7,-1
 109 0 l 1,8,-1
 109 146 l 1,9,-1
 265 146 l 1,6,-1
EndSplineSet
Validated: 1
EndChar

StartChar: quotedbl
Encoding: 34 34 5
Width: 495
GlyphClass: 2
Flags: W
LayerCount: 2
Fore
SplineSet
186 729 m 1,0,-1
 186 599 l 1,1,-1
 142 470 l 1,2,-1
 84 470 l 1,3,-1
 43 599 l 1,4,-1
 43 729 l 1,5,-1
 186 729 l 1,0,-1
431 729 m 1,6,-1
 431 599 l 1,7,-1
 388 470 l 1,8,-1
 330 470 l 1,9,-1
 288 599 l 1,10,-1
 288 729 l 1,11,-1
 431 729 l 1,6,-1
EndSplineSet
Validated: 1
EndChar

StartChar: numbersign
Encoding: 35 35 6
Width: 582
GlyphClass: 2
Flags: W
LayerCount: 2
Fore
SplineSet
141 -32 m 1,0,-1
 30 -32 l 1,1,-1
 72 172 l 1,2,-1
 -8 172 l 1,3,-1
 -8 271 l 1,4,-1
 93 271 l 1,5,-1
 124 424 l 1,6,-1
 21 424 l 1,7,-1
 21 523 l 1,8,-1
 145 523 l 1,9,-1
 180 697 l 1,10,-1
 289 697 l 1,11,-1
 254 523 l 1,12,-1
 361 523 l 1,13,-1
 397 697 l 1,14,-1
 506 697 l 1,15,-1
 470 523 l 1,16,-1
 564 523 l 1,17,-1
 564 424 l 1,18,-1
 451 424 l 1,19,-1
 418 271 l 1,20,-1
 522 271 l 1,21,-1
 522 172 l 1,22,-1
 399 172 l 1,23,-1
 357 -32 l 1,24,-1
 248 -32 l 1,25,-1
 289 172 l 1,26,-1
 182 172 l 1,27,-1
 141 -32 l 1,0,-1
202 271 m 1,28,-1
 309 271 l 1,29,-1
 340 424 l 1,30,-1
 233 424 l 1,31,-1
 202 271 l 1,28,-1
EndSplineSet
Validated: 1
EndChar

StartChar: dollar
Encoding: 36 36 7
Width: 582
GlyphClass: 2
Flags: W
LayerCount: 2
Fore
SplineSet
242 -21 m 1,0,1
 132 -11 132 -11 72 48 c 128,-1,2
 12 107 12 107 12 198 c 2,3,-1
 12 207 l 1,4,-1
 148 207 l 1,5,6
 153 101 153 101 242 86 c 1,7,-1
 242 299 l 1,8,9
 30 346 30 346 30 512 c 0,10,11
 30 596 30 596 85.5 648 c 128,-1,12
 141 700 141 700 242 709 c 1,13,-1
 242 763 l 1,14,-1
 312 763 l 1,15,-1
 312 709 l 1,16,17
 411 704 411 704 468.5 648 c 128,-1,18
 526 592 526 592 527 498 c 1,19,-1
 394 498 l 1,20,-1
 394 504 l 2,21,22
 394 548 394 548 372.5 575.5 c 128,-1,23
 351 603 351 603 312 608 c 1,24,-1
 312 407 l 1,25,26
 433 375 433 375 485 326 c 128,-1,27
 537 277 537 277 537 195 c 0,28,29
 537 99 537 99 478.5 44.5 c 128,-1,30
 420 -10 420 -10 312 -21 c 1,31,-1
 312 -126 l 1,32,-1
 242 -126 l 1,33,-1
 242 -21 l 1,0,1
242 427 m 1,34,-1
 242 608 l 1,35,36
 158 592 158 592 158 516 c 0,37,38
 158 453 158 453 242 427 c 1,34,-1
312 282 m 1,39,-1
 312 86 l 1,40,41
 400 107 400 107 400 183 c 0,42,43
 400 256 400 256 312 282 c 1,39,-1
EndSplineSet
Validated: 1
EndChar

StartChar: percent
Encoding: 37 37 8
Width: 933
GlyphClass: 2
Flags: W
LayerCount: 2
Fore
SplineSet
197 701 m 0,0,1
 277 701 277 701 332.5 647.5 c 128,-1,2
 388 594 388 594 388 517 c 0,3,4
 388 444 388 444 331.5 390.5 c 128,-1,5
 275 337 275 337 197 337 c 0,6,7
 118 337 118 337 61.5 390.5 c 128,-1,8
 5 444 5 444 5 519 c 128,-1,9
 5 594 5 594 61.5 647.5 c 128,-1,10
 118 701 118 701 197 701 c 0,0,1
196.5 602 m 128,-1,12
 160 602 160 602 134 577.5 c 128,-1,13
 108 553 108 553 108 519 c 0,14,15
 108 484 108 484 134 459.5 c 128,-1,16
 160 435 160 435 196.5 435 c 128,-1,17
 233 435 233 435 259 459.5 c 128,-1,18
 285 484 285 484 285 518 c 0,19,20
 285 553 285 553 259 577.5 c 128,-1,11
 233 602 233 602 196.5 602 c 128,-1,12
613 709 m 1,21,-1
 692 709 l 1,22,-1
 281 -20 l 1,23,-1
 201 -20 l 1,24,-1
 613 709 l 1,21,-1
688 352 m 0,25,26
 769 352 769 352 824.5 298.5 c 128,-1,27
 880 245 880 245 880 167 c 0,28,29
 880 94 880 94 823 40.5 c 128,-1,30
 766 -13 766 -13 688 -13 c 0,31,32
 609 -13 609 -13 553 40.5 c 128,-1,33
 497 94 497 94 497 170 c 0,34,35
 497 245 497 245 553 298.5 c 128,-1,36
 609 352 609 352 688 352 c 0,25,26
688.5 253 m 128,-1,38
 652 253 652 253 626 228.5 c 128,-1,39
 600 204 600 204 600 169 c 128,-1,40
 600 134 600 134 626 109.5 c 128,-1,41
 652 85 652 85 688.5 85 c 128,-1,42
 725 85 725 85 751 109.5 c 128,-1,43
 777 134 777 134 777 168 c 0,44,45
 777 203 777 203 751 228 c 128,-1,37
 725 253 725 253 688.5 253 c 128,-1,38
EndSplineSet
Validated: 1
EndChar

StartChar: ampersand
Encoding: 38 38 9
Width: 756
GlyphClass: 2
Flags: W
LayerCount: 2
Fore
SplineSet
532 373 m 1,0,-1
 650 373 l 1,1,-1
 650 357 l 2,2,3
 648 299 648 299 629 243.5 c 128,-1,4
 610 188 610 188 579 154 c 1,5,-1
 707 0 l 1,6,-1
 539 0 l 1,7,-1
 492 56 l 1,8,9
 429 11 429 11 385.5 -6 c 128,-1,10
 342 -23 342 -23 289 -23 c 0,11,12
 177 -23 177 -23 109.5 36.5 c 128,-1,13
 42 96 42 96 42 193 c 0,14,15
 42 264 42 264 78 309.5 c 128,-1,16
 114 355 114 355 206 401 c 1,17,18
 196 413 196 413 193 416 c 2,19,-1
 164 450 l 2,20,21
 120 500 120 500 120 556 c 0,22,23
 120 627 120 627 177 675 c 128,-1,24
 234 723 234 723 317 723 c 128,-1,25
 400 723 400 723 451 680.5 c 128,-1,26
 502 638 502 638 502 568 c 0,27,28
 502 514 502 514 476 476 c 128,-1,29
 450 438 450 438 380 392 c 1,30,-1
 501 248 l 1,31,32
 532 305 532 305 532 363 c 2,33,-1
 532 373 l 1,0,-1
274 319 m 1,34,-1
 225 290 l 2,35,36
 181 261 181 261 181 210 c 0,37,38
 181 165 181 165 214.5 129 c 128,-1,39
 248 93 248 93 291 93 c 0,40,41
 341 93 341 93 416 148 c 1,42,-1
 274 319 l 1,34,-1
315 470 m 1,43,44
 377 503 377 503 377 556 c 0,45,46
 377 584 377 584 361.5 599 c 128,-1,47
 346 614 346 614 318 614 c 0,48,49
 292 614 292 614 275 600.5 c 128,-1,50
 258 587 258 587 258 566 c 0,51,52
 258 547 258 547 266.5 532.5 c 128,-1,53
 275 518 275 518 315 470 c 1,43,44
EndSplineSet
Validated: 1
EndChar

StartChar: quotesingle
Encoding: 39 39 10
Width: 248
GlyphClass: 2
Flags: W
LayerCount: 2
Fore
SplineSet
191 729 m 1,0,-1
 191 599 l 1,1,-1
 147 470 l 1,2,-1
 89 470 l 1,3,-1
 47 599 l 1,4,-1
 47 729 l 1,5,-1
 191 729 l 1,0,-1
EndSplineSet
Validated: 1
EndChar

StartChar: parenleft
Encoding: 40 40 11
Width: 348
GlyphClass: 2
Flags: W
LayerCount: 2
Fore
SplineSet
204 729 m 1,0,-1
 308 729 l 1,1,2
 226 576 226 576 194.5 475.5 c 128,-1,3
 163 375 163 375 163 265 c 128,-1,4
 163 155 163 155 194 55 c 128,-1,5
 225 -45 225 -45 308 -200 c 1,6,-1
 204 -200 l 1,7,8
 115 -70 115 -70 75 39.5 c 128,-1,9
 35 149 35 149 35 265 c 0,10,11
 35 380 35 380 75 490 c 128,-1,12
 115 600 115 600 204 729 c 1,0,-1
EndSplineSet
Validated: 1
EndChar

StartChar: parenright
Encoding: 41 41 12
Width: 349
GlyphClass: 2
Flags: W
LayerCount: 2
Fore
SplineSet
121 -200 m 1,0,-1
 17 -200 l 1,1,2
 99 -47 99 -47 130.5 53.5 c 128,-1,3
 162 154 162 154 162 264 c 128,-1,4
 162 374 162 374 131 474 c 128,-1,5
 100 574 100 574 17 729 c 1,6,-1
 121 729 l 1,7,8
 210 599 210 599 250 489.5 c 128,-1,9
 290 380 290 380 290 264 c 0,10,11
 290 149 290 149 250 39 c 128,-1,12
 210 -71 210 -71 121 -200 c 1,0,-1
EndSplineSet
Validated: 1
EndChar

StartChar: asterisk
Encoding: 42 42 13
Width: 406
GlyphClass: 2
Flags: W
LayerCount: 2
Fore
SplineSet
130 544 m 1,0,-1
 16 580 l 1,1,-1
 39 649 l 1,2,-1
 153 613 l 1,3,-1
 153 729 l 1,4,-1
 227 729 l 1,5,-1
 227 613 l 1,6,-1
 341 649 l 1,7,-1
 364 579 l 1,8,-1
 250 544 l 1,9,-1
 320 450 l 1,10,-1
 260 407 l 1,11,-1
 190 501 l 1,12,-1
 120 407 l 1,13,-1
 60 450 l 1,14,-1
 130 544 l 1,0,-1
EndSplineSet
Validated: 1
EndChar

StartChar: plus
Encoding: 43 43 14
Width: 612
GlyphClass: 2
Flags: W
LayerCount: 2
Fore
SplineSet
543 291 m 1,0,-1
 543 172 l 1,1,-1
 353 172 l 1,2,-1
 353 -10 l 1,3,-1
 230 -10 l 1,4,-1
 230 172 l 1,5,-1
 40 172 l 1,6,-1
 40 291 l 1,7,-1
 230 291 l 1,8,-1
 230 473 l 1,9,-1
 353 473 l 1,10,-1
 353 291 l 1,11,-1
 543 291 l 1,0,-1
EndSplineSet
Validated: 1
EndChar

StartChar: comma
Encoding: 44 44 15
Width: 289
GlyphClass: 2
Flags: W
LayerCount: 2
Fore
SplineSet
61 146 m 1,0,-1
 217 146 l 1,1,-1
 217 9 l 2,2,3
 217 -26 217 -26 212.5 -51 c 128,-1,4
 208 -76 208 -76 192.5 -104 c 128,-1,5
 177 -132 177 -132 144.5 -150 c 128,-1,6
 112 -168 112 -168 61 -174 c 1,7,-1
 61 -118 l 1,8,9
 150 -101 150 -101 150 -3 c 2,10,-1
 150 0 l 1,11,-1
 61 0 l 1,12,-1
 61 146 l 1,0,-1
EndSplineSet
Validated: 1
EndChar

StartChar: hyphen
Encoding: 45 45 16
Width: 348
GlyphClass: 2
Flags: W
LayerCount: 2
Fore
SplineSet
303 342 m 1,0,-1
 303 207 l 1,1,-1
 21 207 l 1,2,-1
 21 342 l 1,3,-1
 303 342 l 1,0,-1
EndSplineSet
Validated: 1
EndChar

StartChar: period
Encoding: 46 46 17
Width: 289
GlyphClass: 2
Flags: W
LayerCount: 2
Fore
SplineSet
217 146 m 1,0,-1
 217 0 l 1,1,-1
 61 0 l 1,2,-1
 61 146 l 1,3,-1
 217 146 l 1,0,-1
EndSplineSet
Validated: 1
EndChar

StartChar: slash
Encoding: 47 47 18
Width: 289
GlyphClass: 2
Flags: W
LayerCount: 2
Fore
SplineSet
211 714 m 1,0,-1
 280 714 l 1,1,-1
 66 -14 l 1,2,-1
 -3 -14 l 1,3,-1
 211 714 l 1,0,-1
EndSplineSet
Validated: 1
EndChar

StartChar: zero
Encoding: 48 48 19
Width: 651
GlyphClass: 2
Flags: W
LayerCount: 2
Fore
SplineSet
431.548828125 6.322265625 m 0,0,1
 381.456054688 -19 381.456054688 -19 300.090820312 -17.626953125 c 0,2,3
 227.456054688 -17 227.456054688 -17 172.92578125 10.669921875 c 0,4,5
 114.456054688 40 114.456054688 40 81.88671875 87.734375 c 0,6,7
 46.4560546875 138 46.4560546875 138 31.900390625 206.087890625 c 0,8,9
 19.4560546875 265 19.4560546875 265 18.912109375 354.359375 c 0,10,11
 17.4560546875 539 17.4560546875 539 99.2236328125 640.817382812 c 0,12,13
 172.456054688 732 172.456054688 732 306.353515625 732.958984375 c 0,14,15
 452.456054688 734 452.456054688 734 525.4296875 626.666992188 c 0,16,17
 595.456054688 523 595.456054688 523 593.794921875 350.30078125 c 0,18,19
 592.456054688 257 592.456054688 257 580.806640625 206.029296875 c 0,20,21
 565.456054688 139 565.456054688 139 527.633789062 88.6064453125 c 0,22,23
 486.456054688 34 486.456054688 34 431.548828125 6.322265625 c 0,0,1
465.064453125 353.375976562 m 0,24,25
 463.456054688 449 463.456054688 449 441.291015625 512.431640625 c 0,26,27
 418.456054688 576 418.456054688 576 382.026367188 596.8046875 c 0,28,29
 344.456054688 618 344.456054688 618 306.353515625 618.549804688 c 0,30,31
 230.456054688 619 230.456054688 619 184 548.905273438 c 0,32,33
 150.456054688 498 150.456054688 498 147.642578125 355.345703125 c 0,34,35
 145.456054688 262 145.456054688 262 165.272460938 200.80859375 c 0,36,37
 183.456054688 145 183.456054688 145 227.026367188 121.250976562 c 0,38,39
 269.456054688 98 269.456054688 98 306.353515625 98.23046875 c 0,40,41
 394.456054688 99 394.456054688 99 432.301757812 170.712890625 c 0,42,43
 466.456054688 237 466.456054688 237 465.064453125 353.375976562 c 0,24,25
EndSplineSet
Validated: 33
EndChar

StartChar: one
Encoding: 49 49 20
Width: 584
GlyphClass: 2
Flags: W
LayerCount: 2
Fore
SplineSet
231.76953125 495.03515625 m 1,0,-1
 69 495.03515625 l 1,1,-1
 69 589.147460938 l 1,2,3
 217.491210938 591.999023438 217.491210938 591.999023438 261.16796875 717.70703125 c 1,4,-1
 370.880859375 717.70703125 l 1,5,-1
 370.880859375 0 l 1,6,-1
 231.76953125 0 l 1,7,-1
 231.76953125 495.03515625 l 1,0,-1
EndSplineSet
Validated: 1
EndChar

StartChar: two
Encoding: 50 50 21
Width: 582
GlyphClass: 2
Flags: W
LayerCount: 2
Fore
SplineSet
527.846679688 505.186523438 m 0,0,1
 525.73046875 438 525.73046875 438 503.375 396.864257812 c 0,2,3
 473.73046875 343 473.73046875 343 441.559570312 315.392578125 c 0,4,5
 375.73046875 260 375.73046875 260 361.481445312 252.303710938 c 0,6,7
 341.73046875 241 341.73046875 241 275.776367188 192.635742188 c 0,8,9
 211.73046875 146 211.73046875 146 196.624023438 110.930664062 c 1,10,-1
 531.73046875 110.930664062 l 1,11,-1
 531.73046875 0 l 1,12,-1
 19.818359375 0 l 1,13,14
 23.73046875 89 23.73046875 89 71.1953125 156.103515625 c 0,15,16
 112.73046875 215 112.73046875 215 209.263671875 287.905273438 c 0,17,18
 338.73046875 386 338.73046875 386 350 398.833984375 c 0,19,20
 384.73046875 442 384.73046875 442 383.400390625 498.515625 c 0,21,22
 381.73046875 553 381.73046875 553 355.564453125 583.060546875 c 0,23,24
 327.73046875 613 327.73046875 613 278.270507812 613.908203125 c 0,25,26
 218.73046875 615 218.73046875 615 183.344726562 580.509765625 c 0,27,28
 149.654296875 545.921875 149.654296875 545.921875 149.654296875 487.3828125 c 2,29,-1
 149.654296875 464.071289062 l 1,30,-1
 22.486328125 464.825195312 l 1,31,-1
 22.486328125 492.950195312 l 2,32,33
 22.73046875 591 22.73046875 591 99.03125 669.577148438 c 0,34,35
 159.73046875 731 159.73046875 731 278.443359375 732.840820312 c 0,36,37
 389.73046875 734 389.73046875 734 459.942382812 662.965820312 c 0,38,39
 529.73046875 591 529.73046875 591 527.846679688 505.186523438 c 0,0,1
EndSplineSet
Validated: 33
EndChar

StartChar: three
Encoding: 51 51 22
Width: 594
GlyphClass: 2
Flags: W
LayerCount: 2
Fore
SplineSet
53.455078125 599.47265625 m 0,0,1
 74.779296875 655 74.779296875 655 152.557617188 701.76171875 c 0,2,3
 169.779296875 712 169.779296875 712 218.369140625 720.837890625 c 0,4,5
 247.779296875 726 247.779296875 726 283.141601562 725.709960938 c 0,6,7
 383.779296875 726 383.779296875 726 452 673.345703125 c 0,8,9
 526.779296875 615 526.779296875 615 525.064453125 538.120117188 c 0,10,11
 523.779296875 481 523.779296875 481 503.610351562 454.098632812 c 0,12,13
 471.779296875 411 471.779296875 411 420.109375 379.698242188 c 1,14,15
 491.779296875 349 491.779296875 349 523.962890625 305.475585938 c 0,16,17
 557.779296875 258 557.779296875 258 557.24609375 204.114257812 c 0,18,19
 555.779296875 98 555.779296875 98 482.330078125 39.0263671875 c 0,20,21
 403.779296875 -24 403.779296875 -24 283.083007812 -23.2509765625 c 0,22,23
 162.779296875 -23 162.779296875 -23 90.7412109375 40.0126953125 c 0,24,25
 12.779296875 108 12.779296875 108 13.560546875 222.671875 c 1,26,-1
 136.028320312 223.365234375 l 1,27,28
 145.779296875 146 145.779296875 146 185.240234375 112.690429688 c 0,29,30
 224.779296875 78 224.779296875 78 295.7265625 80.0810546875 c 0,31,32
 354.779296875 81 354.779296875 81 386.766601562 113.248046875 c 0,33,34
 422.779296875 149 422.779296875 149 422.138671875 198.315429688 c 0,35,36
 420.779296875 242 420.779296875 242 396.625 272.88671875 c 0,37,38
 370.779296875 305 370.779296875 305 329.357421875 315.392578125 c 0,39,40
 293.779296875 324 293.779296875 324 235.126953125 323.106445312 c 1,41,-1
 235.126953125 416.000976562 l 1,42,43
 397.779296875 417 397.779296875 417 393.837890625 524.318359375 c 0,44,45
 391.779296875 570 391.779296875 570 363.9765625 593.674804688 c 0,46,47
 328.779296875 622 328.779296875 622 280.649414062 623.072265625 c 0,48,49
 218.779296875 624 218.779296875 624 186.477539062 587.0625 c 0,50,51
 152.779296875 549 152.779296875 549 152.728515625 491.904296875 c 1,52,-1
 29.1025390625 491.904296875 l 2,53,54
 29.779296875 492 29.779296875 492 29.5068359375 495.26953125 c 0,55,56
 29.779296875 539 29.779296875 539 53.455078125 599.47265625 c 0,0,1
EndSplineSet
Validated: 33
EndChar

StartChar: four
Encoding: 52 52 23
Width: 620
GlyphClass: 2
Flags: W
LayerCount: 2
Fore
SplineSet
589.07421875 257.638671875 m 1,0,-1
 589.07421875 159 l 1,1,-1
 481.565429688 159 l 1,2,-1
 481.565429688 0.0595703125 l 1,3,-1
 349.588867188 0.0595703125 l 1,4,-1
 349.588867188 159 l 1,5,-1
 15 159 l 1,6,-1
 15 302.229492188 l 1,7,-1
 335.901367188 725.709960938 l 1,8,-1
 481.565429688 725.709960938 l 1,9,-1
 481.565429688 257.638671875 l 1,10,-1
 589.07421875 257.638671875 l 1,0,-1
349.529296875 257.638671875 m 1,11,-1
 349.529296875 564.969726562 l 1,12,-1
 125.69921875 257.638671875 l 1,13,-1
 349.529296875 257.638671875 l 1,11,-1
EndSplineSet
Validated: 1
EndChar

StartChar: five
Encoding: 53 53 24
Width: 616
GlyphClass: 2
Flags: W
LayerCount: 2
Fore
SplineSet
522.870117188 717.766601562 m 1,0,-1
 522.870117188 621.970703125 l 1,1,-1
 210.552734375 621.970703125 l 1,2,-1
 175.526367188 449.921875 l 1,3,4
 230.85546875 493 230.85546875 493 322.7578125 494.22265625 c 0,5,6
 433.85546875 495 433.85546875 495 502.750976562 418.66796875 c 0,7,8
 569.85546875 344 569.85546875 344 568.391601562 236.821289062 c 0,9,10
 566.85546875 141 566.85546875 141 498.140625 68.703125 c 0,11,12
 423.85546875 -10 423.85546875 -10 298.576171875 -8.5810546875 c 0,13,14
 179.85546875 -8 179.85546875 -8 108.783203125 49.7548828125 c 0,15,16
 15.85546875 124 15.85546875 124 16.177734375 202.43359375 c 1,17,-1
 152.970703125 210.435546875 l 1,18,19
 153.85546875 166 153.85546875 166 194.390625 132.615234375 c 0,20,21
 232.85546875 101 232.85546875 101 289.646484375 101.536132812 c 0,22,23
 339.85546875 102 339.85546875 102 387.239257812 134.682617188 c 0,24,25
 437.85546875 170 437.85546875 170 437.338867188 238.965820312 c 0,26,27
 435.85546875 312 435.85546875 312 389.530273438 349.302734375 c 0,28,29
 340.85546875 387 340.85546875 387 297.823242188 387.759765625 c 0,30,31
 221.85546875 388 221.85546875 388 175.236328125 339.629882812 c 1,32,-1
 45 338.993164062 l 1,33,-1
 108.3203125 717.822265625 l 1,34,-1
 522.870117188 717.766601562 l 1,0,-1
EndSplineSet
Validated: 33
EndChar

StartChar: six
Encoding: 54 54 25
Width: 636
GlyphClass: 2
Flags: W
LayerCount: 2
Fore
SplineSet
23.9443359375 341.254882812 m 0,0,1
 22.30078125 532 22.30078125 532 103.462890625 633.500976562 c 0,2,3
 182.30078125 733 182.30078125 733 326.92578125 733.015625 c 0,4,5
 336.30078125 733 336.30078125 733 366.299804688 730.985351562 c 0,6,7
 379.30078125 730 379.30078125 730 418.604492188 718.868164062 c 0,8,9
 444.30078125 711 444.30078125 711 474.965820312 689.815429688 c 0,10,11
 541.30078125 642 541.30078125 642 568.266601562 554.877929688 c 1,12,-1
 438.259765625 554.877929688 l 1,13,14
 423.30078125 596 423.30078125 596 394.415039062 614.243164062 c 0,15,16
 363.30078125 633 363.30078125 633 335.741210938 633.392578125 c 0,17,18
 246.30078125 634 246.30078125 634 193.90234375 555.459960938 c 0,19,20
 161.30078125 507 161.30078125 507 164.6796875 403.995117188 c 1,21,22
 227.30078125 484 227.30078125 484 343.220703125 485.122070312 c 0,23,24
 450.30078125 486 450.30078125 486 521.760742188 413.681640625 c 0,25,26
 587.30078125 347 587.30078125 347 586.708984375 239.953125 c 0,27,28
 585.30078125 120 585.30078125 120 510.686523438 49.63671875 c 0,29,30
 432.30078125 -24 432.30078125 -24 298.91796875 -15.1328125 c 0,31,32
 185.30078125 -8 185.30078125 -8 109.823242188 78.1669921875 c 0,33,34
 25.30078125 175 25.30078125 175 23.9443359375 341.254882812 c 0,0,1
423.182617188 339.051757812 m 0,35,36
 385.30078125 376 385.30078125 376 321.2421875 377.090820312 c 0,37,38
 258.30078125 378 258.30078125 378 218.025390625 337.426757812 c 0,39,40
 180.30078125 300 180.30078125 300 179 233.631835938 c 0,41,42
 177.30078125 175 177.30078125 175 218.025390625 133.661132812 c 0,43,44
 256.30078125 94 256.30078125 94 319.965820312 94.51953125 c 0,45,46
 383.30078125 95 383.30078125 95 421.327148438 134.762695312 c 0,47,48
 462.30078125 178 462.30078125 178 460.991210938 236.936523438 c 0,49,50
 459.30078125 302 459.30078125 302 423.182617188 339.051757812 c 0,35,36
EndSplineSet
Validated: 33
EndChar

StartChar: seven
Encoding: 55 55 26
Width: 582
GlyphClass: 2
Flags: W
LayerCount: 2
Fore
SplineSet
538.899414062 717.70703125 m 1,0,-1
 538.899414062 606.370117188 l 1,1,2
 413.943359375 460.940429688 413.943359375 460.940429688 346.786132812 311.274414062 c 0,3,4
 287.943359375 180.940429688 287.943359375 180.940429688 279 0 c 1,5,-1
 130.20703125 0 l 1,6,7
 153.943359375 190.940429688 153.943359375 190.940429688 228.377929688 359.633789062 c 0,8,9
 240.943359375 387.940429688 240.943359375 387.940429688 304.803710938 488.134765625 c 0,10,11
 356.943359375 569.940429688 356.943359375 569.940429688 392.365234375 605.266601562 c 1,12,-1
 20.8427734375 605.266601562 l 1,13,-1
 20.8427734375 717.647460938 l 1,14,-1
 538.899414062 717.70703125 l 1,0,-1
EndSplineSet
Validated: 1
EndChar

StartChar: eight
Encoding: 56 56 27
Width: 616
GlyphClass: 2
Flags: W
LayerCount: 2
Fore
SplineSet
543.221679688 538.643554688 m 0,0,1
 541.85546875 483 541.85546875 483 512.4296875 448.06640625 c 0,2,3
 481.85546875 412 481.85546875 412 440.465820312 390.891601562 c 1,4,5
 509.85546875 357 509.85546875 357 539.453125 313.94140625 c 0,6,7
 570.85546875 268 570.85546875 268 569.953125 206.666992188 c 0,8,9
 567.85546875 103 567.85546875 103 491.786132812 41.1708984375 c 0,10,11
 410.85546875 -24 410.85546875 -24 290.5703125 -23.076171875 c 0,12,13
 164.85546875 -22 164.85546875 -22 88.2548828125 40.7060546875 c 0,14,15
 11.85546875 103 11.85546875 103 10.1435546875 206.7265625 c 0,16,17
 8.85546875 267 8.85546875 267 40.6474609375 314.001953125 c 0,18,19
 69.85546875 358 69.85546875 358 139.631835938 390.951171875 c 1,20,21
 91.85546875 414 91.85546875 414 65 451.662109375 c 0,22,23
 37.85546875 488 37.85546875 488 36.87890625 537.71484375 c 0,24,25
 34.85546875 619 34.85546875 619 108.608398438 677.928710938 c 0,26,27
 176.85546875 732 176.85546875 732 290.5703125 733.07421875 c 0,28,29
 397.85546875 734 397.85546875 734 471.48828125 677.928710938 c 0,30,31
 544.85546875 621 544.85546875 621 543.221679688 538.643554688 c 0,0,1
289.46875 339.456054688 m 0,32,33
 225.85546875 340 225.85546875 340 182.65625 305.594726562 c 0,34,35
 143.85546875 274 143.85546875 274 142.35546875 214.610351562 c 0,36,37
 140.85546875 161 140.85546875 161 182.018554688 125.717773438 c 0,38,39
 222.85546875 91 222.85546875 91 289.46875 92.8955078125 c 0,40,41
 359.85546875 94 359.85546875 94 397.555664062 125.717773438 c 0,42,43
 438.85546875 161 438.85546875 161 437.858398438 212.465820312 c 0,44,45
 435.85546875 273 435.85546875 273 398.194335938 305.01171875 c 0,46,47
 358.85546875 338 358.85546875 338 289.46875 339.456054688 c 0,32,33
385.205078125 608.458007812 m 0,48,49
 350.85546875 636 350.85546875 636 291.671875 637.396484375 c 0,50,51
 234.85546875 638 234.85546875 638 197.559570312 608.981445312 c 0,52,53
 162.85546875 582 162.85546875 582 161.435546875 534.932617188 c 0,54,55
 159.85546875 492 159.85546875 492 197.559570312 459.779296875 c 0,56,57
 233.85546875 429 233.85546875 429 291.671875 430.265625 c 0,58,59
 350.85546875 431 350.85546875 431 384.567382812 459.200195312 c 0,60,61
 421.85546875 491 421.85546875 491 420.6953125 533.771484375 c 0,62,63
 418.85546875 580 418.85546875 580 385.205078125 608.458007812 c 0,48,49
EndSplineSet
Validated: 33
EndChar

StartChar: nine
Encoding: 57 57 28
Width: 621
GlyphClass: 2
Flags: W
LayerCount: 2
Fore
SplineSet
551.1171875 528.49609375 m 0,0,1
 570.557617188 456 570.557617188 456 570.020507812 374.712890625 c 0,2,3
 568.557617188 246 568.557617188 246 555.057617188 199.069335938 c 0,4,5
 531.557617188 117 531.557617188 117 506.641601562 82.6328125 c 0,6,7
 452.557617188 8 452.557617188 8 358.192382812 -10.146484375 c 0,8,9
 319.557617188 -18 319.557617188 -18 287.16015625 -17.5703125 c 0,10,11
 194.557617188 -17 194.557617188 -17 134.59375 29.052734375 c 0,12,13
 62.5576171875 83 62.5576171875 83 58.9794921875 158.248046875 c 1,14,-1
 182.260742188 163.059570312 l 1,15,16
 184.557617188 130 184.557617188 130 213.862304688 109.190429688 c 0,17,18
 245.557617188 86 245.557617188 86 291.913085938 86.98046875 c 0,19,20
 442.557617188 88 442.557617188 88 444.247070312 313.3046875 c 1,21,22
 442.557617188 311 442.557617188 311 434.271484375 302.8671875 c 0,23,24
 420.557617188 289 420.557617188 289 419.311523438 288.602539062 c 0,25,26
 412.557617188 284 412.557617188 284 401.21875 274.337890625 c 0,27,28
 397.557617188 271 397.557617188 271 377.50390625 259.204101562 c 0,29,30
 364.557617188 251 364.557617188 251 349.376953125 245.458007812 c 0,31,32
 325.557617188 237 325.557617188 237 311.91796875 234.962890625 c 0,33,34
 288.557617188 232 288.557617188 232 268.198242188 231.716796875 c 0,35,36
 150.557617188 232 150.557617188 232 84.4931640625 299.736328125 c 0,37,38
 19.5576171875 366 19.5576171875 366 17.634765625 479.90234375 c 0,39,40
 15.5576171875 589 15.5576171875 589 93.25 662.62109375 c 0,41,42
 168.557617188 733 168.557617188 733 288.493164062 732.958984375 c 0,43,44
 319.557617188 733 319.557617188 733 361.90234375 725.361328125 c 0,45,46
 395.557617188 719 395.557617188 719 435.836914062 693.989257812 c 0,47,48
 475.557617188 669 475.557617188 669 503.27734375 632.755859375 c 0,49,50
 532.557617188 594 532.557617188 594 551.1171875 528.49609375 c 0,0,1
395.653320312 377.499023438 m 0,51,52
 437.557617188 419 437.557617188 419 436.592773438 475.610351562 c 0,53,54
 434.557617188 543 434.557617188 543 396.350585938 578.944335938 c 0,55,56
 355.557617188 617 355.557617188 617 286.229492188 617.5625 c 0,57,58
 224.557617188 618 224.557617188 618 184 579.46484375 c 0,59,60
 147.557617188 545 147.557617188 545 146.424804688 477.69921875 c 0,61,62
 144.557617188 415 144.557617188 415 184.638671875 376.974609375 c 0,63,64
 223.557617188 339 223.557617188 339 288.840820312 339.919921875 c 0,65,66
 358.557617188 341 358.557617188 341 395.653320312 377.499023438 c 0,51,52
EndSplineSet
Validated: 33
EndChar

StartChar: colon
Encoding: 58 58 29
Width: 347
GlyphClass: 2
Flags: W
LayerCount: 2
Fore
SplineSet
266 146 m 1,0,-1
 266 0 l 1,1,-1
 110 0 l 1,2,-1
 110 146 l 1,3,-1
 266 146 l 1,0,-1
266 520 m 1,4,-1
 266 374 l 1,5,-1
 110 374 l 1,6,-1
 110 520 l 1,7,-1
 266 520 l 1,4,-1
EndSplineSet
Validated: 1
EndChar

StartChar: semicolon
Encoding: 59 59 30
Width: 347
GlyphClass: 2
Flags: W
LayerCount: 2
Fore
SplineSet
110 146 m 1,0,-1
 266 146 l 1,1,-1
 266 9 l 2,2,3
 266 -26 266 -26 261.5 -51 c 128,-1,4
 257 -76 257 -76 241.5 -104 c 128,-1,5
 226 -132 226 -132 193.5 -150 c 128,-1,6
 161 -168 161 -168 110 -174 c 1,7,-1
 110 -118 l 1,8,9
 199 -101 199 -101 199 -3 c 2,10,-1
 199 0 l 1,11,-1
 110 0 l 1,12,-1
 110 146 l 1,0,-1
266 520 m 1,13,-1
 266 374 l 1,14,-1
 110 374 l 1,15,-1
 110 520 l 1,16,-1
 266 520 l 1,13,-1
EndSplineSet
Validated: 1
EndChar

StartChar: less
Encoding: 60 60 31
Width: 612
GlyphClass: 2
Flags: W
LayerCount: 2
Fore
SplineSet
539 474 m 1,0,-1
 539 365 l 1,1,-1
 142 232 l 1,2,-1
 539 101 l 1,3,-1
 539 -10 l 1,4,-1
 30 172 l 1,5,-1
 30 293 l 1,6,-1
 539 474 l 1,0,-1
EndSplineSet
Validated: 1
EndChar

StartChar: equal
Encoding: 61 61 32
Width: 612
GlyphClass: 2
Flags: W
LayerCount: 2
Fore
SplineSet
544 411 m 1,0,-1
 544 292 l 1,1,-1
 40 292 l 1,2,-1
 40 411 l 1,3,-1
 544 411 l 1,0,-1
544 171 m 1,4,-1
 544 52 l 1,5,-1
 40 52 l 1,6,-1
 40 171 l 1,7,-1
 544 171 l 1,4,-1
EndSplineSet
Validated: 1
EndChar

StartChar: greater
Encoding: 62 62 33
Width: 612
GlyphClass: 2
Flags: W
LayerCount: 2
Fore
SplineSet
30 -10 m 1,0,-1
 30 99 l 1,1,-1
 428 232 l 1,2,-1
 30 363 l 1,3,-1
 30 474 l 1,4,-1
 539 292 l 1,5,-1
 539 171 l 1,6,-1
 30 -10 l 1,0,-1
EndSplineSet
Validated: 1
EndChar

StartChar: question
Encoding: 63 63 34
Width: 641
GlyphClass: 2
Flags: W
LayerCount: 2
Fore
SplineSet
54 481 m 1,0,1
 55 546 55 546 72.5 595 c 128,-1,2
 90 644 90 644 115 671.5 c 128,-1,3
 140 699 140 699 175.5 716 c 128,-1,4
 211 733 211 733 242 738.5 c 128,-1,5
 273 744 273 744 307 744 c 0,6,7
 421 744 421 744 493.5 680 c 128,-1,8
 566 616 566 616 566 514 c 0,9,10
 566 451 566 451 540 410 c 128,-1,11
 514 369 514 369 441 320 c 0,12,13
 394 288 394 288 382.5 269 c 128,-1,14
 371 250 371 250 371 201 c 1,15,-1
 242 201 l 1,16,-1
 242 215 l 2,17,18
 242 265 242 265 260.5 302.5 c 128,-1,19
 279 340 279 340 305 363 c 128,-1,20
 331 386 331 386 357 406 c 128,-1,21
 383 426 383 426 401 452 c 128,-1,22
 419 478 419 478 419 511 c 0,23,24
 419 560 419 560 388 593 c 128,-1,25
 357 626 357 626 310 626 c 0,26,27
 261 626 261 626 228.5 588 c 128,-1,28
 196 550 196 550 196 492 c 2,29,-1
 196 483 l 1,30,-1
 196 481 l 1,31,-1
 54 481 l 1,0,1
388 146 m 1,32,-1
 388 0 l 1,33,-1
 232 0 l 1,34,-1
 232 146 l 1,35,-1
 388 146 l 1,32,-1
EndSplineSet
Validated: 1
EndChar

StartChar: at
Encoding: 64 64 35
Width: 1023
GlyphClass: 2
Flags: W
LayerCount: 2
Fore
SplineSet
249 227 m 0,0,1
 249 256 249 256 262 299.5 c 128,-1,2
 275 343 275 343 302.5 394.5 c 128,-1,3
 330 446 330 446 386 482 c 128,-1,4
 442 518 442 518 515 518 c 0,5,6
 597 518 597 518 634 446 c 1,7,-1
 650 508 l 1,8,-1
 744 508 l 1,9,-1
 663 228 l 2,10,11
 654 198 654 198 654 186 c 0,12,13
 654 164 654 164 667.5 150.5 c 128,-1,14
 681 137 681 137 705 137 c 0,15,16
 761 137 761 137 817 207.5 c 128,-1,17
 873 278 873 278 873 370 c 0,18,19
 873 488 873 488 771 576 c 0,20,21
 663 668 663 668 512 668 c 0,22,23
 395 668 395 668 301.5 611.5 c 128,-1,24
 208 555 208 555 158.5 463.5 c 128,-1,25
 109 372 109 372 109 266 c 0,26,27
 109 120 109 120 220 30 c 128,-1,28
 331 -60 331 -60 486 -60 c 0,29,30
 607 -60 607 -60 701 -19 c 1,31,-1
 730 -92 l 1,32,33
 625 -138 625 -138 484 -138 c 0,34,35
 270 -138 270 -138 139.5 -22.5 c 128,-1,36
 9 93 9 93 9 264 c 0,37,38
 9 351 9 351 49 442 c 128,-1,39
 89 533 89 533 157 601 c 0,40,41
 302 745 302 745 517 745 c 0,42,43
 705 745 705 745 835 634.5 c 128,-1,44
 965 524 965 524 965 355 c 0,45,46
 965 288 965 288 940 230 c 128,-1,47
 915 172 915 172 876 135 c 128,-1,48
 837 98 837 98 792 77 c 128,-1,49
 747 56 747 56 705 56 c 0,50,51
 654 56 654 56 620.5 77.5 c 128,-1,52
 587 99 587 99 575 131 c 1,53,54
 511 56 511 56 419 56 c 0,55,56
 349 56 349 56 299 106 c 128,-1,57
 249 156 249 156 249 227 c 0,0,1
442 137 m 0,58,59
 505 137 505 137 552 207.5 c 128,-1,60
 599 278 599 278 599 345 c 0,61,62
 599 392 599 392 576 419.5 c 128,-1,63
 553 447 553 447 512 447 c 0,64,65
 451 447 451 447 400.5 383.5 c 128,-1,66
 350 320 350 320 350 244 c 0,67,68
 350 199 350 199 377 168 c 128,-1,69
 404 137 404 137 442 137 c 0,58,59
EndSplineSet
Validated: 1
EndChar

StartChar: A
Encoding: 65 65 36
Width: 714
GlyphClass: 2
Flags: W
LayerCount: 2
Fore
SplineSet
472.997070312 147.0546875 m 1,0,-1
 208.924804688 147.0546875 l 1,1,-1
 161.31640625 0 l 1,2,-1
 12 0 l 1,3,-1
 263.954101562 729.360351562 l 1,4,-1
 424.461914062 729.360351562 l 1,5,-1
 669.864257812 0 l 1,6,-1
 519.674804688 0 l 1,7,-1
 472.997070312 147.0546875 l 1,0,-1
433.799804688 272.133789062 m 1,8,-1
 341.423828125 572.389648438 l 1,9,-1
 249.05078125 272.133789062 l 1,10,-1
 433.799804688 272.133789062 l 1,8,-1
EndSplineSet
Validated: 1
EndChar

StartChar: B
Encoding: 66 66 37
Width: 756
GlyphClass: 2
Flags: W
LayerCount: 2
Fore
SplineSet
643.685546875 210.087890625 m 0,0,1
 643.685546875 173.973632812 643.685546875 173.973632812 631.625 140.038085938 c 128,-1,2
 619.500976562 105.942382812 619.500976562 105.942382812 593.0625 73.005859375 c 128,-1,3
 566.579101562 40.005859375 566.579101562 40.005859375 513.096679688 20.0048828125 c 128,-1,4
 459.611328125 0 459.611328125 0 386.395507812 0 c 2,5,-1
 69.033203125 0 l 1,6,-1
 69.033203125 729.360351562 l 1,7,-1
 383.499023438 729.360351562 l 2,8,9
 451.895507812 729.360351562 451.895507812 729.360351562 501.559570312 709.35546875 c 128,-1,10
 551.174804688 689.368164062 551.174804688 689.368164062 575.78125 657.805664062 c 128,-1,11
 600.287109375 626.349609375 600.287109375 626.349609375 611.4453125 596.282226562 c 128,-1,12
 622.51953125 566.193359375 622.51953125 566.193359375 622.51953125 537.249023438 c 0,13,14
 622.51953125 490.1953125 622.51953125 490.1953125 599.384765625 456.18359375 c 128,-1,15
 576.245117188 422.176757812 576.245117188 422.176757812 522.31640625 387.122070312 c 1,16,17
 643.685546875 316.127929688 643.685546875 316.127929688 643.685546875 210.087890625 c 0,0,1
210 604.28515625 m 1,18,-1
 210 439.19140625 l 1,19,-1
 359.546875 439.19140625 l 2,20,21
 469.577148438 439.19140625 469.577148438 439.19140625 469.607421875 521.24609375 c 0,22,23
 469.607421875 604.3125 469.607421875 604.3125 359.546875 604.28515625 c 2,24,-1
 210 604.28515625 l 1,18,-1
210 321.884765625 m 1,25,-1
 210 125.020507812 l 1,26,-1
 366.391601562 125.020507812 l 2,27,28
 491.5859375 125.020507812 491.5859375 125.020507812 491.5859375 222.901367188 c 0,29,30
 491.5859375 321.826171875 491.5859375 321.826171875 366.391601562 321.826171875 c 2,31,-1
 210 321.884765625 l 1,25,-1
EndSplineSet
Validated: 33
EndChar

StartChar: C
Encoding: 67 67 38
Width: 757
GlyphClass: 2
Flags: W
LayerCount: 2
Fore
SplineSet
560.249023438 231.831054688 m 1,0,-1
 708.6953125 231.658203125 l 1,1,2
 699.559570312 144.51953125 699.559570312 144.51953125 615.5703125 64.8876953125 c 0,3,4
 528.08203125 -17.919921875 528.08203125 -17.919921875 388.0859375 -17.919921875 c 0,5,6
 232.227539062 -17.919921875 232.227539062 -17.919921875 132.072265625 87.0966796875 c 0,7,8
 93.517578125 127.520507812 93.517578125 127.520507812 64.9794921875 186.369140625 c 0,9,10
 30.8251953125 256.822265625 30.8251953125 256.822265625 30.8251953125 352.444335938 c 0,11,12
 30.8251953125 518.206054688 30.8251953125 518.206054688 127.02734375 630.26171875 c 0,13,14
 221.328125 740.030273438 221.328125 740.030273438 385.244140625 740.030273438 c 0,15,16
 521.831054688 740.030273438 521.831054688 740.030273438 599.794921875 677.056640625 c 0,17,18
 686.887695312 606.791015625 686.887695312 606.791015625 701.620117188 502.284179688 c 1,19,-1
 554.680664062 499.499023438 l 1,20,21
 519.735351562 620.111328125 519.735351562 620.111328125 390 620.111328125 c 0,22,23
 294.559570312 620.111328125 294.559570312 620.111328125 238.24609375 544.381835938 c 0,24,25
 179.912109375 465.83203125 179.912109375 465.83203125 179.912109375 346.471679688 c 0,26,27
 179.912109375 236.748046875 179.912109375 236.748046875 247.17578125 166.189453125 c 0,28,29
 288.791992188 122.499023438 288.791992188 122.499023438 346.354492188 112.115234375 c 128,-1,30
 403.916992188 101.73046875 403.916992188 101.73046875 445.260742188 113.701171875 c 128,-1,31
 486.602539062 125.668945312 486.602539062 125.668945312 507.018554688 144.446289062 c 0,32,33
 550.284179688 184.169921875 550.284179688 184.169921875 560.249023438 231.831054688 c 1,0,-1
EndSplineSet
Validated: 33
EndChar

StartChar: D
Encoding: 68 68 39
Width: 752
GlyphClass: 2
Flags: W
LayerCount: 2
Fore
SplineSet
65 0 m 1,0,-1
 65 729.360351562 l 1,1,-1
 340.208984375 729.360351562 l 2,2,3
 512.323242188 729.360351562 512.323242188 729.360351562 603.52734375 641.046875 c 0,4,5
 701.813476562 545.860351562 701.813476562 545.860351562 701.813476562 365.318359375 c 0,6,7
 701.813476562 193.356445312 701.813476562 193.356445312 609.790039062 91.79296875 c 0,8,9
 528.045898438 0.0556640625 528.045898438 0.0556640625 340.208984375 0.0556640625 c 2,10,-1
 65 0 l 1,0,-1
217.391601562 127.049804688 m 1,11,-1
 318.291015625 127.049804688 l 2,12,13
 460.40625 127.049804688 460.40625 127.049804688 510.168945312 195.9375 c 0,14,15
 545.774414062 245.228515625 545.774414062 245.228515625 545.774414062 364.215820312 c 0,16,17
 545.774414062 480.25390625 545.774414062 480.25390625 495.440429688 535.682617188 c 0,18,19
 433.138671875 604.33984375 433.138671875 604.33984375 318.345703125 604.33984375 c 2,20,-1
 217.448242188 604.33984375 l 1,21,-1
 217.391601562 127.049804688 l 1,11,-1
EndSplineSet
Validated: 1
EndChar

StartChar: E
Encoding: 69 69 40
Width: 679
GlyphClass: 2
Flags: W
LayerCount: 2
Fore
SplineSet
221.494140625 320.783203125 m 1,0,-1
 221.494140625 125.076171875 l 1,1,-1
 617.891601562 125.076171875 l 1,2,-1
 617.891601562 0 l 1,3,-1
 68 0 l 1,4,-1
 68 729.360351562 l 1,5,-1
 601.482421875 729.360351562 l 1,6,-1
 601.482421875 604.28515625 l 1,7,-1
 221.549804688 604.28515625 l 1,8,-1
 221.549804688 445.803710938 l 1,9,-1
 555.555664062 445.803710938 l 1,10,-1
 555.555664062 320.727539062 l 1,11,-1
 221.494140625 320.783203125 l 1,0,-1
EndSplineSet
Validated: 1
EndChar

StartChar: F
Encoding: 70 70 41
Width: 640
GlyphClass: 2
Flags: W
LayerCount: 2
Fore
SplineSet
215.520507812 314.116210938 m 1,0,-1
 215.520507812 -0.0595703125 l 1,1,-1
 64 -0.0595703125 l 1,2,-1
 64 729.360351562 l 1,3,-1
 585.130859375 729.360351562 l 1,4,-1
 585.130859375 604.28515625 l 1,5,-1
 215.520507812 604.28515625 l 1,6,-1
 215.520507812 439.19140625 l 1,7,-1
 534.5078125 439.19140625 l 1,8,-1
 534.5078125 314.116210938 l 1,9,-1
 215.520507812 314.116210938 l 1,0,-1
EndSplineSet
Validated: 1
EndChar

StartChar: G
Encoding: 71 71 42
Width: 817
GlyphClass: 2
Flags: W
LayerCount: 2
Fore
SplineSet
568.993164062 493.875 m 0,0,1
 538.94140625 615.708007812 538.94140625 615.708007812 399.262695312 615.708007812 c 0,2,3
 296.399414062 615.708007812 296.399414062 615.708007812 235.799804688 543.91796875 c 0,4,5
 173 469.431640625 173 469.431640625 173 358.821289062 c 0,6,7
 173 242.708007812 173 242.708007812 238.87109375 168.68359375 c 0,8,9
 295.52734375 105.072265625 295.52734375 105.072265625 399.380859375 105.072265625 c 0,10,11
 437.274414062 105.072265625 437.274414062 105.072265625 476.211914062 120.1484375 c 0,12,13
 503.131835938 130.62109375 503.131835938 130.62109375 526.256835938 147.633789062 c 128,-1,14
 549.249023438 164.708984375 549.249023438 164.708984375 566.7890625 195.184570312 c 128,-1,15
 584.3046875 225.768554688 584.3046875 225.768554688 588.302734375 264.709960938 c 1,16,-1
 416.196289062 264.709960938 l 1,17,-1
 416.196289062 389.790039062 l 1,18,-1
 719.352539062 389.790039062 l 1,19,-1
 719.352539062 4.5224609375 l 1,20,-1
 625.298828125 4.5224609375 l 1,21,-1
 602.797851562 85.3564453125 l 1,22,23
 572.859375 43.81640625 572.859375 43.81640625 520.807617188 12.9296875 c 0,24,25
 461.770507812 -21.978515625 461.770507812 -21.978515625 382.505859375 -21.978515625 c 0,26,27
 229.362304688 -21.978515625 229.362304688 -21.978515625 137.334960938 71.669921875 c 0,28,29
 29.7705078125 181.141601562 29.7705078125 181.141601562 29.7705078125 345.25390625 c 0,30,31
 29.7705078125 528.03515625 29.7705078125 528.03515625 134.9609375 637.915039062 c 0,32,33
 236.936523438 744.438476562 236.936523438 744.438476562 396.829101562 744.438476562 c 0,34,35
 515.147460938 744.438476562 515.147460938 744.438476562 603.032226562 678.911132812 c 0,36,37
 690.299804688 613.844726562 690.299804688 613.844726562 710.770507812 493.758789062 c 1,38,-1
 568.993164062 493.875 l 0,0,1
EndSplineSet
Validated: 1
EndChar

StartChar: H
Encoding: 72 72 43
Width: 757
GlyphClass: 2
Flags: W
LayerCount: 2
Fore
SplineSet
485.98828125 330.924804688 m 1,0,-1
 212 330.924804688 l 1,1,-1
 212 -0.2392578125 l 1,2,-1
 55.900390625 -0.2392578125 l 1,3,-1
 55.900390625 729.12109375 l 1,4,-1
 212 729.12109375 l 1,5,-1
 212 456 l 1,6,-1
 484.9453125 456 l 1,7,-1
 484.9453125 729.12109375 l 1,8,-1
 642.032226562 729.12109375 l 1,9,-1
 642.032226562 -0.2392578125 l 1,10,-1
 485.932617188 -0.2392578125 l 1,11,-1
 485.98828125 330.924804688 l 1,0,-1
554.935546875 347.44921875 m 1,12,-1
 555.284179688 346.522460938 l 1,13,-1
 554.935546875 347.44921875 l 1,12,-1
EndSplineSet
Validated: 1
EndChar

StartChar: I
Encoding: 73 73 44
Width: 321
GlyphClass: 2
Flags: W
LayerCount: 2
Fore
SplineSet
216.099609375 729.360351562 m 1,0,-1
 216.099609375 0 l 1,1,-1
 60 0 l 1,2,-1
 60 729.360351562 l 1,3,-1
 216.099609375 729.360351562 l 1,0,-1
EndSplineSet
Validated: 1
EndChar

StartChar: J
Encoding: 74 74 45
Width: 583
GlyphClass: 2
Flags: W
LayerCount: 2
Fore
SplineSet
330.900390625 729.360351562 m 1,0,-1
 487 729.419921875 l 1,1,-1
 487 195.243164062 l 2,2,3
 487 93.125 487 93.125 424.608398438 37.6337890625 c 128,-1,4
 362.185546875 -17.919921875 362.185546875 -17.919921875 248.268554688 -17.919921875 c 0,5,6
 205.890625 -17.919921875 205.890625 -17.919921875 167.723632812 -7.947265625 c 128,-1,7
 129.416015625 2.0673828125 129.416015625 2.0673828125 93.5595703125 25.5732421875 c 128,-1,8
 57.70703125 49.1484375 57.70703125 49.1484375 36.615234375 94.634765625 c 128,-1,9
 15.5087890625 140.059570312 15.5087890625 140.059570312 15.5087890625 203.186523438 c 2,10,-1
 15.5087890625 274.916015625 l 1,11,-1
 154.095703125 277.583984375 l 1,12,-1
 154.095703125 205.157226562 l 2,13,14
 154.095703125 155.143554688 154.095703125 155.143554688 174.452148438 132.614257812 c 128,-1,15
 194.77734375 110.1171875 194.77734375 110.1171875 241.774414062 110.1171875 c 0,16,17
 284.538085938 110.1171875 284.538085938 110.1171875 307.0078125 132.151367188 c 0,18,19
 330.900390625 155.579101562 330.900390625 155.579101562 330.900390625 195.184570312 c 2,20,-1
 330.900390625 729.360351562 l 1,0,-1
EndSplineSet
Validated: 1
EndChar

StartChar: K
Encoding: 75 75 46
Width: 756
GlyphClass: 2
Flags: W
LayerCount: 2
Fore
SplineSet
209 270.16015625 m 1,0,-1
 209 -0.0595703125 l 1,1,-1
 60.1494140625 -0.0595703125 l 1,2,-1
 60.1494140625 729.360351562 l 1,3,-1
 209 729.360351562 l 1,4,-1
 209 455.950195312 l 1,5,-1
 485.077148438 729.360351562 l 1,6,-1
 667.970703125 729.360351562 l 1,7,-1
 389.166015625 442.44140625 l 1,8,-1
 698.529296875 0 l 1,9,-1
 521.030273438 0 l 1,10,-1
 283.456054688 348.2109375 l 1,11,-1
 209 270.16015625 l 1,0,-1
EndSplineSet
Validated: 1
EndChar

StartChar: L
Encoding: 76 76 47
Width: 640
GlyphClass: 2
Flags: W
LayerCount: 2
Fore
SplineSet
226 729.360351562 m 1,0,-1
 226 125.020507812 l 1,1,-1
 567.952148438 125.020507812 l 1,2,-1
 567.952148438 -0.0595703125 l 1,3,-1
 69.900390625 -0.0595703125 l 1,4,-1
 69.900390625 729.360351562 l 1,5,-1
 226 729.360351562 l 1,0,-1
EndSplineSet
Validated: 1
EndChar

StartChar: M
Encoding: 77 77 48
Width: 903
GlyphClass: 2
Flags: W
LayerCount: 2
Fore
SplineSet
200.48828125 551.16796875 m 1,0,-1
 200.48828125 0.115234375 l 1,1,-1
 52.5625 0.115234375 l 1,2,-1
 52.5625 729.474609375 l 1,3,-1
 275 729.474609375 l 1,4,-1
 442.352539062 211.8828125 l 1,5,-1
 605.525390625 729.474609375 l 1,6,-1
 828.661132812 729.474609375 l 1,7,-1
 828.661132812 0.0556640625 l 1,8,-1
 684.853515625 0.0556640625 l 1,9,-1
 684.853515625 551.109375 l 1,10,-1
 509.5 0.0556640625 l 1,11,-1
 374.622070312 0.0556640625 l 1,12,-1
 200.48828125 551.16796875 l 1,0,-1
EndSplineSet
Validated: 1
EndChar

StartChar: N
Encoding: 78 78 49
Width: 757
GlyphClass: 2
Flags: W
LayerCount: 2
Fore
SplineSet
500.63671875 0 m 1,0,-1
 206.759765625 487.036132812 l 1,1,-1
 206.759765625 0 l 1,2,-1
 56.458984375 0 l 1,3,-1
 56.458984375 729.418945312 l 1,4,-1
 210.643554688 729.418945312 l 1,5,-1
 500.697265625 233.16796875 l 1,6,-1
 500.697265625 729.418945312 l 1,7,-1
 651 729.418945312 l 1,8,-1
 651 0 l 1,9,-1
 500.63671875 0 l 1,0,-1
EndSplineSet
Validated: 1
EndChar

StartChar: O
Encoding: 79 79 50
Width: 816
GlyphClass: 2
Flags: W
LayerCount: 2
Fore
SplineSet
125.822265625 83.849609375 m 128,-1,1
 28 190.891601562 28 190.891601562 28 359 c 128,-1,2
 28 527.072265625 28 527.072265625 126.286132812 634.145507812 c 128,-1,3
 224.575195312 741.221679688 224.575195312 741.221679688 383.98046875 741.190429688 c 0,4,5
 544.375976562 741.190429688 544.375976562 741.190429688 643.184570312 634.609375 c 128,-1,6
 741.93359375 528.122070312 741.93359375 528.122070312 741.93359375 353.953125 c 0,7,8
 741.93359375 191.787109375 741.93359375 191.787109375 644.635742188 84.3134765625 c 128,-1,9
 547.3046875 -23.279296875 547.3046875 -23.279296875 384.967773438 -23.2509765625 c 0,10,0
 223.540039062 -23.1669921875 223.540039062 -23.1669921875 125.822265625 83.849609375 c 128,-1,1
384.563476562 613.155273438 m 0,11,12
 291.458007812 613.155273438 291.458007812 613.155273438 235.594726562 543.62890625 c 128,-1,13
 179.748046875 474.04296875 179.748046875 474.04296875 179.751953125 359.0546875 c 0,14,15
 179.751953125 251.357421875 179.751953125 251.357421875 239.828125 174.830078125 c 0,16,17
 294.71875 104.899414062 294.71875 104.899414062 384.563476562 104.899414062 c 0,18,19
 479.225585938 104.899414062 479.225585938 104.899414062 534.284179688 173.961914062 c 128,-1,20
 589.342773438 243.024414062 589.342773438 243.024414062 589.37109375 355.0546875 c 0,21,22
 589.37109375 473.143554688 589.37109375 473.143554688 535.270507812 543.1640625 c 128,-1,23
 481.123046875 613.155273438 481.123046875 613.155273438 384.563476562 613.155273438 c 0,11,12
EndSplineSet
Validated: 33
EndChar

StartChar: P
Encoding: 80 80 51
Width: 697
GlyphClass: 2
Flags: W
LayerCount: 2
Fore
SplineSet
222 260.131835938 m 1,0,-1
 222 0 l 1,1,-1
 65.900390625 0 l 1,2,-1
 65.900390625 729.418945312 l 1,3,-1
 389.350585938 729.418945312 l 2,4,5
 506.198242188 729.418945312 506.198242188 729.418945312 569.837890625 661.790039062 c 128,-1,6
 633.478515625 594.161132812 633.478515625 594.161132812 633.478515625 503.330078125 c 0,7,8
 633.478515625 392.317382812 633.478515625 392.317382812 570.967773438 326.237304688 c 128,-1,9
 508.401367188 260.19140625 508.401367188 260.19140625 404.369140625 260.19140625 c 2,10,-1
 222 260.131835938 l 1,0,-1
222 385.211914062 m 1,11,-1
 355.311523438 385.211914062 l 2,12,13
 485.028320312 385.211914062 485.028320312 385.211914062 485.028320312 494.282226562 c 0,14,15
 485.028320312 604.34375 485.028320312 604.34375 355.311523438 604.34375 c 2,16,-1
 222 604.34375 l 1,17,-1
 222 385.211914062 l 1,11,-1
EndSplineSet
Validated: 1
EndChar

StartChar: Q
Encoding: 81 81 52
Width: 816
GlyphClass: 2
Flags: W
LayerCount: 2
Fore
SplineSet
379.157226562 741.481445312 m 0,0,1
 537.893554688 741.481445312 537.893554688 741.481445312 634.184570312 633.392578125 c 128,-1,2
 730.385742188 525.360351562 730.385742188 525.360351562 730.385742188 361.259765625 c 0,3,4
 730.385742188 287.08984375 730.385742188 287.08984375 708.756835938 217.681640625 c 128,-1,5
 687.143554688 148.25390625 687.143554688 148.25390625 650.538085938 103.1015625 c 1,6,-1
 730.385742188 27.0791015625 l 1,7,-1
 654.364257812 -53.98828125 l 1,8,-1
 568.717773438 27.0791015625 l 1,9,10
 484.899414062 -22.96484375 484.899414062 -22.96484375 379.157226562 -22.96484375 c 0,11,12
 221.353515625 -22.96484375 221.353515625 -22.96484375 124.650390625 84.603515625 c 128,-1,13
 27.9296875 192.109375 27.9296875 192.109375 27.9296875 359.229492188 c 128,-1,14
 27.9296875 526.3203125 27.9296875 526.3203125 124.650390625 633.857421875 c 128,-1,15
 221.288085938 741.453125 221.288085938 741.453125 379.157226562 741.481445312 c 0,0,1
479.881835938 263.204101562 m 1,16,-1
 547.551757812 200.170898438 l 1,17,18
 580.254882812 266.185546875 580.254882812 266.185546875 580.254882812 358.244140625 c 0,19,20
 580.254882812 474.239257812 580.254882812 474.239257812 525.86328125 543.859375 c 128,-1,21
 471.48046875 613.384765625 471.48046875 613.384765625 379.098632812 613.384765625 c 0,22,23
 287.677734375 613.384765625 287.677734375 613.384765625 232.856445312 543.859375 c 128,-1,24
 178 474.313476562 178 474.313476562 178 359.286132812 c 128,-1,25
 178 244.171875 178 244.171875 232.856445312 174.715820312 c 128,-1,26
 287.6953125 105.186523438 287.6953125 105.186523438 378.170898438 105.186523438 c 0,27,28
 430.209960938 105.186523438 430.209960938 105.186523438 465.73046875 124.208007812 c 1,29,-1
 403.859375 182.250976562 l 1,30,-1
 479.881835938 263.204101562 l 1,16,-1
EndSplineSet
Validated: 1
EndChar

StartChar: R
Encoding: 82 82 53
Width: 756
GlyphClass: 2
Flags: W
LayerCount: 2
Fore
SplineSet
491.362304688 125.134765625 m 0,0,1
 491.362304688 136.216796875 491.362304688 136.216796875 491.853515625 138.37890625 c 128,-1,2
 492.349609375 140.537109375 492.349609375 140.537109375 492.349609375 145.139648438 c 0,3,4
 492.349609375 229.450195312 492.349609375 229.450195312 447.815429688 264.536132812 c 0,5,6
 416.65234375 289.181640625 416.65234375 289.181640625 348.192382812 289.181640625 c 2,7,-1
 216.67578125 289.181640625 l 1,8,-1
 216.67578125 0 l 1,9,-1
 67.36328125 0 l 1,10,-1
 67.36328125 729.474609375 l 1,11,-1
 453.61328125 729.474609375 l 2,12,13
 535.73046875 729.474609375 535.73046875 729.474609375 598 667.19921875 c 0,14,15
 657.727539062 607.471679688 657.727539062 607.471679688 657.727539062 532.3203125 c 0,16,17
 657.727539062 466.010742188 657.727539062 466.010742188 620.717773438 417.59765625 c 128,-1,18
 583.704101562 369.184570312 583.704101562 369.184570312 519.139648438 352.21484375 c 1,19,20
 535.396484375 348.071289062 535.396484375 348.071289062 558.977539062 334.583984375 c 0,21,22
 590.833984375 316.397460938 590.833984375 316.397460938 609.657226562 287.500976562 c 0,23,24
 632.737304688 252.059570312 632.737304688 252.059570312 632.737304688 179.119140625 c 0,25,26
 632.737304688 168.934570312 632.737304688 168.934570312 633.55859375 144.809570312 c 128,-1,27
 634.3828125 120.682617188 634.3828125 120.682617188 634.70703125 100.025390625 c 0,28,29
 634.70703125 18.00390625 634.70703125 18.00390625 667.759765625 0 c 1,30,-1
 515.426757812 0 l 1,31,32
 500.38671875 25.9990234375 500.38671875 25.9990234375 495.944335938 50.041015625 c 128,-1,33
 491.362304688 73.9716796875 491.362304688 73.9716796875 491.362304688 125.134765625 c 0,0,1
501.62890625 511.329101562 m 0,34,35
 501.62890625 604.399414062 501.62890625 604.399414062 390.581054688 604.399414062 c 2,36,-1
 216.736328125 604.399414062 l 1,37,-1
 216.736328125 414.31640625 l 1,38,-1
 390.581054688 414.31640625 l 2,39,40
 501.62890625 414.237304688 501.62890625 414.237304688 501.62890625 511.329101562 c 0,34,35
EndSplineSet
Validated: 33
EndChar

StartChar: S
Encoding: 83 83 54
Width: 680
GlyphClass: 2
Flags: W
LayerCount: 2
Fore
SplineSet
597.041992188 511.50390625 m 1,0,-1
 456.016601562 511.50390625 l 1,1,2
 448.756835938 619.358398438 448.756835938 619.358398438 307.686523438 619.358398438 c 0,3,4
 251.655273438 619.358398438 251.655273438 619.358398438 218.561523438 597.03515625 c 128,-1,5
 185.448242188 574.698242188 185.448242188 574.698242188 185.448242188 537.421875 c 0,6,7
 185.448242188 500.969726562 185.448242188 500.969726562 213.922851562 483.262695312 c 0,8,9
 234.733398438 470.282226562 234.733398438 470.282226562 319.806640625 450.963867188 c 0,10,11
 410.909179688 430.276367188 410.909179688 430.276367188 447.03125 419.247070312 c 0,12,13
 535.63671875 392.177734375 535.63671875 392.177734375 576.689453125 349.662109375 c 0,14,15
 623.01953125 301.76953125 623.01953125 301.76953125 623.01953125 215.014648438 c 0,16,17
 623.01953125 103.017578125 623.01953125 103.017578125 543.810546875 40.0673828125 c 128,-1,18
 464.497070312 -22.96484375 464.497070312 -22.96484375 322.646484375 -22.96484375 c 0,19,20
 181.553710938 -22.96484375 181.553710938 -22.96484375 103.921875 39.544921875 c 0,21,22
 26.619140625 101.716796875 26.619140625 101.716796875 19.43359375 228.41015625 c 1,23,-1
 166.197265625 228.41015625 l 1,24,25
 170.323242188 164.32421875 170.323242188 164.32421875 211.890625 135.051757812 c 0,26,27
 256.470703125 103.564453125 256.470703125 103.564453125 325.951171875 103.564453125 c 0,28,29
 392.666992188 103.564453125 392.666992188 103.564453125 431.200195312 127.744140625 c 128,-1,30
 469.703125 151.904296875 469.703125 151.904296875 469.703125 194.719726562 c 0,31,32
 469.703125 235.607421875 469.703125 235.607421875 439.666992188 257.984375 c 0,33,34
 403.764648438 284.651367188 403.764648438 284.651367188 337.084960938 298.169921875 c 0,35,36
 331.29296875 299.338867188 331.29296875 299.338867188 299.279296875 307.401367188 c 128,-1,37
 267.26953125 315.458984375 267.26953125 315.458984375 229.924804688 323.68359375 c 0,38,39
 133.431640625 344.9375 133.431640625 344.9375 79.853515625 396.920898438 c 0,40,41
 33 442.299804688 33 442.299804688 33 521.591796875 c 0,42,43
 33 629.529296875 33 629.529296875 105.427734375 688.48046875 c 128,-1,44
 177.885742188 747.453125 177.885742188 747.453125 310.1796875 747.453125 c 0,45,46
 347.8203125 747.453125 347.8203125 747.453125 383.590820312 742.408203125 c 0,47,48
 419.125 737.390625 419.125 737.390625 459.381835938 721.766601562 c 128,-1,49
 499.477539062 706.10546875 499.477539062 706.10546875 528.443359375 681.405273438 c 128,-1,50
 557.381835938 656.727539062 557.381835938 656.727539062 577.211914062 612.805664062 c 128,-1,51
 597.041992188 569.048828125 597.041992188 569.048828125 597.041992188 511.50390625 c 1,0,-1
EndSplineSet
Validated: 1
EndChar

StartChar: T
Encoding: 84 84 55
Width: 641
GlyphClass: 2
Flags: W
LayerCount: 2
Fore
SplineSet
380.65625 604.399414062 m 1,0,-1
 380.65625 0.0556640625 l 1,1,-1
 227.62890625 0.0556640625 l 1,2,-1
 227.62890625 604.399414062 l 1,3,-1
 2 604.399414062 l 1,4,-1
 2 729.474609375 l 1,5,-1
 598.45703125 729.474609375 l 1,6,-1
 598.45703125 604.399414062 l 1,7,-1
 380.65625 604.399414062 l 1,0,-1
EndSplineSet
Validated: 1
EndChar

StartChar: U
Encoding: 85 85 56
Width: 757
GlyphClass: 2
Flags: W
LayerCount: 2
Fore
SplineSet
438.07421875 -16.1796875 m 0,0,1
 399.71484375 -23.6025390625 399.71484375 -23.6025390625 358.74609375 -23.6025390625 c 128,-1,2
 317.775390625 -23.6025390625 317.775390625 -23.6025390625 279.422851562 -16.1796875 c 128,-1,3
 241.125 -8.7626953125 241.125 -8.7626953125 201.08203125 10.2626953125 c 128,-1,4
 161.061523438 29.234375 161.061523438 29.234375 131.551757812 58.9150390625 c 128,-1,5
 102.143554688 88.501953125 102.143554688 88.501953125 83.0771484375 137.775390625 c 128,-1,6
 64 186.850585938 64 186.850585938 64 249.40234375 c 2,7,-1
 64 728.78125 l 1,8,-1
 213.143554688 728.78125 l 1,9,-1
 213.143554688 249.40234375 l 2,10,11
 213.143554688 111.797851562 213.143554688 111.797851562 358.805664062 111.857421875 c 128,-1,12
 504.5 111.857421875 504.5 111.857421875 504.46875 249.40234375 c 2,13,-1
 504.46875 728.78125 l 1,14,-1
 653.611328125 728.78125 l 1,15,-1
 653.611328125 249.40234375 l 2,16,17
 653.611328125 186.993164062 653.611328125 186.993164062 634.53515625 137.775390625 c 128,-1,18
 615.377929688 88.498046875 615.377929688 88.498046875 586.056640625 58.9150390625 c 128,-1,19
 556.790039062 29.3876953125 556.790039062 29.3876953125 516.529296875 10.2626953125 c 128,-1,20
 476.127929688 -8.8076171875 476.127929688 -8.8076171875 438.07421875 -16.1796875 c 0,0,1
EndSplineSet
Validated: 33
EndChar

StartChar: V
Encoding: 86 86 57
Width: 698
GlyphClass: 2
Flags: W
LayerCount: 2
Fore
SplineSet
391.190429688 -0.3642578125 m 1,0,-1
 262.344726562 -0.3642578125 l 1,1,-1
 13.46484375 729 l 1,2,-1
 166.72265625 729 l 1,3,-1
 330.708984375 179.686523438 l 1,4,-1
 491.7421875 729 l 1,5,-1
 645 729 l 1,6,-1
 391.190429688 -0.3642578125 l 1,0,-1
EndSplineSet
Validated: 1
EndChar

StartChar: W
Encoding: 87 87 58
Width: 989
GlyphClass: 2
Flags: W
LayerCount: 2
Fore
SplineSet
708.6484375 0 m 1,0,-1
 574.583984375 0 l 1,1,-1
 457.681640625 516.780273438 l 1,2,-1
 343.793945312 0 l 1,3,-1
 209.728515625 0 l 1,4,-1
 -5 729.360351562 l 1,5,-1
 144.493164062 729.360351562 l 1,6,-1
 282.4453125 226.20703125 l 1,7,-1
 379.57421875 729.360351562 l 1,8,-1
 533.643554688 729.360351562 l 1,9,-1
 636.918945312 225.280273438 l 1,10,-1
 769.767578125 729.360351562 l 1,11,-1
 919.258789062 729.360351562 l 1,12,-1
 708.6484375 0 l 1,0,-1
EndSplineSet
Validated: 1
EndChar

StartChar: X
Encoding: 88 88 59
Width: 698
GlyphClass: 2
Flags: W
LayerCount: 2
Fore
SplineSet
415.614257812 383.52734375 m 1,0,-1
 658.061523438 0.0556640625 l 1,1,-1
 479.400390625 0.0556640625 l 1,2,-1
 332.057617188 264.479492188 l 1,3,-1
 180.826171875 0.0556640625 l 1,4,-1
 6.9814453125 0.0556640625 l 1,5,-1
 242 387.122070312 l 1,6,-1
 15.6181640625 729.419921875 l 1,7,-1
 193.350585938 729.419921875 l 1,8,-1
 325.620117188 509.184570312 l 1,9,-1
 454.640625 729.419921875 l 1,10,-1
 628.484375 729.419921875 l 1,11,-1
 415.614257812 383.52734375 l 1,0,-1
EndSplineSet
Validated: 1
EndChar

StartChar: Y
Encoding: 89 89 60
Width: 698
GlyphClass: 2
Flags: W
LayerCount: 2
Fore
SplineSet
416.41796875 270 m 1,0,-1
 416.41796875 -0.16015625 l 1,1,-1
 266 -0.16015625 l 1,2,-1
 266 270 l 1,3,-1
 23.9609375 729.259765625 l 1,4,-1
 190.7890625 729.259765625 l 1,5,-1
 344.280273438 419.55078125 l 1,6,-1
 499.8046875 729.259765625 l 1,7,-1
 647.846679688 729.259765625 l 1,8,-1
 416.41796875 270 l 1,0,-1
EndSplineSet
Validated: 1
EndChar

StartChar: Z
Encoding: 90 90 61
Width: 641
GlyphClass: 2
Flags: W
LayerCount: 2
Fore
SplineSet
603 729.419921875 m 1,0,-1
 603 604.33984375 l 1,1,-1
 203.00390625 125.076171875 l 1,2,-1
 603 125.076171875 l 1,3,-1
 603 0 l 1,4,-1
 11.1845703125 0 l 1,5,-1
 11.1845703125 114.235351562 l 1,6,-1
 420.919921875 604.33984375 l 1,7,-1
 32.6953125 604.33984375 l 1,8,-1
 32.6953125 729.419921875 l 1,9,-1
 603 729.419921875 l 1,0,-1
EndSplineSet
Validated: 1
EndChar

StartChar: bracketleft
Encoding: 91 91 62
Width: 347
GlyphClass: 2
Flags: W
LayerCount: 2
Fore
SplineSet
313 729 m 1,0,-1
 313 627 l 1,1,-1
 196 627 l 1,2,-1
 196 -98 l 1,3,-1
 313 -98 l 1,4,-1
 313 -200 l 1,5,-1
 61 -200 l 1,6,-1
 61 729 l 1,7,-1
 313 729 l 1,0,-1
EndSplineSet
Validated: 1
EndChar

StartChar: backslash
Encoding: 92 92 63
Width: 289
GlyphClass: 2
Flags: W
LayerCount: 2
Fore
SplineSet
52 714 m 1,0,-1
 295 -14 l 1,1,-1
 225 -14 l 1,2,-1
 -18 714 l 1,3,-1
 52 714 l 1,0,-1
EndSplineSet
Validated: 1
EndChar

StartChar: bracketright
Encoding: 93 93 64
Width: 349
GlyphClass: 2
Flags: W
LayerCount: 2
Fore
SplineSet
13 -200 m 1,0,-1
 13 -98 l 1,1,-1
 130 -98 l 1,2,-1
 130 627 l 1,3,-1
 13 627 l 1,4,-1
 13 729 l 1,5,-1
 265 729 l 1,6,-1
 265 -200 l 1,7,-1
 13 -200 l 1,0,-1
EndSplineSet
Validated: 1
EndChar

StartChar: asciicircum
Encoding: 94 94 65
Width: 612
GlyphClass: 2
Flags: W
LayerCount: 2
Fore
SplineSet
531 270 m 1,0,-1
 414 270 l 1,1,-1
 288 570 l 1,2,-1
 168 270 l 1,3,-1
 52 270 l 1,4,-1
 223 695 l 1,5,-1
 353 695 l 1,6,-1
 531 270 l 1,0,-1
EndSplineSet
Validated: 1
EndChar

StartChar: underscore
Encoding: 95 95 66
Width: 582
GlyphClass: 2
Flags: W
LayerCount: 2
Fore
SplineSet
590 -120 m 1,0,-1
 590 -200 l 1,1,-1
 -34 -200 l 1,2,-1
 -34 -120 l 1,3,-1
 590 -120 l 1,0,-1
EndSplineSet
Validated: 1
EndChar

StartChar: grave
Encoding: 96 96 67
Width: 350
GlyphClass: 2
Flags: W
LayerCount: 2
Fore
SplineSet
13 757 m 1,0,-1
 144 757 l 1,1,-1
 217 607 l 1,2,-1
 144 607 l 1,3,-1
 13 757 l 1,0,-1
EndSplineSet
Validated: 1
EndChar

StartChar: a
Encoding: 97 97 68
Width: 582
GlyphClass: 2
Flags: WO
LayerCount: 2
Fore
SplineSet
534.869140625 96.40625 m 2,0,-1
 534.869140625 3.1611328125 l 1,1,2
 500.405273438 -2.8564453125 500.405273438 -2.8564453125 469.389648438 -2.8564453125 c 0,3,4
 422.140625 -2.8564453125 422.140625 -2.8564453125 399.572265625 12.9345703125 c 0,5,6
 391.774414062 18.451171875 391.774414062 18.451171875 383.719726562 31.1015625 c 2,7,-1
 377.126953125 42.783203125 l 2,8,9
 363.627929688 32.8212890625 363.627929688 32.8212890625 352.774414062 25.255859375 c 0,10,11
 320.392578125 2.85546875 320.392578125 2.85546875 291.806640625 -7.8330078125 c 0,12,13
 200.720703125 -41.998046875 200.720703125 -41.998046875 110.634765625 -1.6982421875 c 0,14,15
 19.8154296875 38.9267578125 19.8154296875 38.9267578125 19.8154296875 135.220703125 c 0,16,17
 19.8154296875 198.002929688 19.8154296875 198.002929688 62.515625 244.7265625 c 128,-1,18
 105.216796875 291.44921875 105.216796875 291.44921875 185.833007812 305.400390625 c 0,19,20
 256.651367188 317.625 256.651367188 317.625 320.899414062 326.744140625 c 0,21,22
 361.625 332.508789062 361.625 332.508789062 361.625 375.569335938 c 0,23,24
 361.625 431.50390625 361.625 431.50390625 279.83203125 431.50390625 c 0,25,26
 227.255859375 431.50390625 227.255859375 431.50390625 205.7890625 414.900390625 c 0,27,28
 184.803710938 398.676757812 184.803710938 398.676757812 179.46875 353.81640625 c 1,29,-1
 43.12890625 353.81640625 l 1,30,31
 55.7919921875 535.943359375 55.7919921875 535.943359375 276.883789062 535.97265625 c 0,32,33
 500.916992188 535.97265625 500.916992188 535.97265625 500.916992188 363.075195312 c 2,34,-1
 500.916992188 132.791015625 l 1,35,-1
 500.916992188 115.8984375 l 2,36,37
 500.916992188 98.41015625 500.916992188 98.41015625 519.311523438 96.697265625 c 0,38,39
 527.017578125 95.97265625 527.017578125 95.97265625 534.869140625 96.40625 c 2,0,-1
  Spiro
    534.869 96.4062 [
    534.869 3.16113 v
    501.267 -1.35188 o
    469.39 -2.85622 o
    428.311 1.09172 o
    399.572 12.9355 o
    391.709 20.2345 o
    383.72 31.1004 [
    377.125 42.7837 ]
    364.289 33.4205 o
    352.774 25.2566 o
    321.341 5.78407 o
    291.806 -7.83235 o
    200.971 -23.3821 o
    110.635 -1.69787 o
    42.5201 52.844 o
    19.8151 135.222 o
    30.4904 193.989 o
    62.5162 244.726 o
    114.696 283.256 o
    185.832 305.4 o
    255.009 316.849 o
    320.9 326.745 o
    351.443 341.832 o
    361.624 375.569 o
    341.176 417.52 o
    279.832 431.504 o
    235.033 427.353 o
    205.789 414.901 o
    188.716 391.517 o
    179.468 353.816 v
    43.1297 353.816 v
    74.6758 454.925 o
    152.749 515.769 o
    276.882 535.972 o
    444.908 492.748 o
    500.917 363.074 [
    500.917 132.792 v
    500.917 115.899 ]
    505.516 102.354 o
    519.312 96.6969 o
    527.054 96.2621 o
    0 0 z
  EndSpiro
368.73828125 215.334960938 m 2,40,-1
 368.73828125 258.545898438 l 2,41,42
 353.466796875 251.390625 353.466796875 251.390625 300.01953125 239.864257812 c 2,43,-1
 251.486328125 230.147460938 l 2,44,45
 158.64453125 209.905273438 158.64453125 209.905273438 158.64453125 149.390625 c 0,46,47
 158.64453125 121.563476562 158.64453125 121.563476562 185.888671875 99.0078125 c 0,48,49
 205.514648438 82.697265625 205.514648438 82.697265625 248.478515625 82.697265625 c 0,50,51
 311.415039062 82.697265625 311.415039062 82.697265625 343.749023438 118.098632812 c 0,52,53
 368.73828125 145.45703125 368.73828125 145.45703125 368.73828125 215.334960938 c 2,40,-1
  Spiro
    368.739 215.335 [
    368.739 258.545 ]
    343.922 250.298 o
    300.019 239.864 [
    251.485 230.146 ]
    181.854 199.837 o
    158.644 149.391 o
    165.455 122.882 o
    185.889 99.0092 o
    211.349 86.775 o
    248.479 82.6969 o
    303.765 91.5472 o
    343.75 118.098 o
    362.492 156.087 o
    0 0 z
  EndSpiro
EndSplineSet
EndChar

StartChar: b
Encoding: 98 98 69
Width: 640
GlyphClass: 2
Flags: W
LayerCount: 2
Fore
SplineSet
190.608398438 59.4931640625 m 1,0,-1
 183.9375 0 l 1,1,-1
 49 0 l 1,2,-1
 49 726.287109375 l 1,3,-1
 190.608398438 726.287109375 l 1,4,-1
 190.608398438 464.708984375 l 1,5,6
 241.436523438 541.829101562 241.436523438 541.829101562 341.954101562 541.829101562 c 0,7,8
 440.508789062 541.829101562 440.508789062 541.829101562 506.459960938 463.2578125 c 128,-1,9
 572.39453125 384.631835938 572.39453125 384.631835938 572.39453125 262.625 c 0,10,11
 572.39453125 143.461914062 572.39453125 143.461914062 506.459960938 63.4365234375 c 128,-1,12
 440.553710938 -16.6435546875 440.553710938 -16.6435546875 341.954101562 -16.6435546875 c 0,13,14
 241.276367188 -16.6435546875 241.276367188 -16.6435546875 190.608398438 59.4931640625 c 1,0,-1
220.065429688 384.454101562 m 128,-1,16
 185.645507812 338.744140625 185.645507812 338.744140625 185.736328125 265.87109375 c 0,17,18
 185.736328125 189.998046875 185.736328125 189.998046875 219.6015625 143.807617188 c 128,-1,19
 253.439453125 97.533203125 253.439453125 97.533203125 308.264648438 97.533203125 c 0,20,21
 362.1015625 97.533203125 362.1015625 97.533203125 396.461914062 143.807617188 c 128,-1,22
 430.846679688 190.124023438 430.846679688 190.124023438 430.846679688 262.9140625 c 0,23,24
 430.846679688 336.71875 430.846679688 336.71875 396.461914062 383.466796875 c 128,-1,25
 361.990234375 430.205078125 361.990234375 430.205078125 308.264648438 430.205078125 c 128,-1,15
 254.421875 430.205078125 254.421875 430.205078125 220.065429688 384.454101562 c 128,-1,16
EndSplineSet
Validated: 33
EndChar

StartChar: c
Encoding: 99 99 70
Width: 564
GlyphClass: 2
Flags: W
LayerCount: 2
Fore
SplineSet
444.221679688 32.703125 m 0,0,1
 379.833007812 -22.3828125 379.833007812 -22.3828125 280.176757812 -22.5576171875 c 0,2,3
 168.8203125 -22.5576171875 168.8203125 -22.5576171875 91.25390625 57.0009765625 c 0,4,5
 23.4091796875 126.67578125 23.4091796875 126.67578125 23.4091796875 252.822265625 c 0,6,7
 23.4091796875 382.4765625 23.4091796875 382.4765625 91.77734375 453.98046875 c 0,8,9
 170.075195312 535.974609375 170.075195312 535.974609375 282.150390625 535.974609375 c 0,10,11
 384.640625 535.974609375 384.640625 535.974609375 448.106445312 481.29296875 c 0,12,13
 506.819335938 430.666015625 506.819335938 430.666015625 517.866210938 344.036132812 c 1,14,-1
 386.698242188 335.51171875 l 1,15,16
 374.754882812 382.944335938 374.754882812 382.944335938 352.602539062 403.705078125 c 0,17,18
 329.146484375 425.682617188 329.146484375 425.682617188 284.060546875 425.682617188 c 0,19,20
 166.03125 425.682617188 166.03125 425.682617188 166 252.880859375 c 0,21,22
 166 175.768554688 166 175.768554688 196.733398438 131.805664062 c 128,-1,23
 227.45703125 87.849609375 227.45703125 87.849609375 284.060546875 87.849609375 c 0,24,25
 327.12109375 87.849609375 327.12109375 87.849609375 351.092773438 109.827148438 c 0,26,27
 373.959960938 130.700195312 373.959960938 130.700195312 386.873046875 178.076171875 c 1,28,-1
 518.213867188 173.439453125 l 1,29,30
 505.411132812 85.0380859375 505.411132812 85.0380859375 444.221679688 32.703125 c 0,0,1
EndSplineSet
Validated: 1
EndChar

StartChar: d
Encoding: 100 100 71
Width: 641
GlyphClass: 2
Flags: W
LayerCount: 2
Fore
SplineSet
401.786132812 53.6943359375 m 1,0,1
 349.07421875 -22.4150390625 349.07421875 -22.4150390625 250.379882812 -22.4990234375 c 0,2,3
 148.875976562 -22.4990234375 148.875976562 -22.4990234375 84.423828125 57.580078125 c 128,-1,4
 20 137.565429688 20 137.565429688 20 255.779296875 c 0,5,6
 20 374.885742188 20 374.885742188 85.9306640625 455.4296875 c 128,-1,7
 151.860351562 535.974609375 151.860351562 535.974609375 250.439453125 535.974609375 c 0,8,9
 350.030273438 535.974609375 350.030273438 535.974609375 401.786132812 458.850585938 c 1,10,-1
 401.786132812 725.58984375 l 1,11,-1
 543.33203125 725.58984375 l 1,12,-1
 543.33203125 0 l 1,13,-1
 407.815429688 0 l 1,14,-1
 401.786132812 53.6943359375 l 1,0,1
195.293945312 138.356445312 m 128,-1,16
 228.89453125 91.82421875 228.89453125 91.82421875 281.751953125 91.734375 c 128,-1,17
 334.491210938 91.734375 334.491210938 91.734375 368.154296875 137.314453125 c 128,-1,18
 401.842773438 182.934570312 401.842773438 182.934570312 401.842773438 256.243164062 c 0,19,20
 401.842773438 332.463867188 401.842773438 332.463867188 368.618164062 379.641601562 c 128,-1,21
 335.3671875 426.725585938 335.3671875 426.725585938 281.693359375 426.725585938 c 0,22,23
 228.978515625 426.725585938 228.978515625 426.725585938 195.293945312 379.641601562 c 128,-1,24
 161.603515625 332.543945312 161.603515625 332.543945312 161.603515625 258.2734375 c 0,25,15
 161.603515625 184.931640625 161.603515625 184.931640625 195.293945312 138.356445312 c 128,-1,16
EndSplineSet
Validated: 1
EndChar

StartChar: e
Encoding: 101 101 72
Width: 582
GlyphClass: 2
Flags: W
LayerCount: 2
Fore
SplineSet
279.55078125 97.8125 m 0,0,1
 364.852539062 97.8125 364.852539062 97.8125 391.119140625 162.002929688 c 1,2,-1
 533.416992188 160.147460938 l 1,3,4
 508.123046875 78.6513671875 508.123046875 78.6513671875 435.420898438 29.966796875 c 0,5,6
 369.696289062 -13.9892578125 369.696289062 -13.9892578125 277.34765625 -13.9892578125 c 0,7,8
 155.0234375 -13.9892578125 155.0234375 -13.9892578125 83.3212890625 60.0029296875 c 0,9,10
 12 133.755859375 12 133.755859375 12 256 c 0,11,12
 12 393.7890625 12 393.7890625 88.13671875 468.754882812 c 0,13,14
 169.692382812 549.065429688 169.692382812 549.065429688 274.158203125 549.065429688 c 0,15,16
 355.946289062 549.065429688 355.946289062 549.065429688 416.982421875 510.0390625 c 0,17,18
 487.735351562 464.703125 487.735351562 464.703125 514.86328125 371.162109375 c 0,19,20
 534.114257812 304.642578125 534.114257812 304.642578125 534.114257812 250.0859375 c 0,21,22
 534.114257812 238.763671875 534.114257812 238.763671875 533.127929688 226.658203125 c 2,23,-1
 150.703125 226.658203125 l 1,24,25
 150.703125 152.692382812 150.703125 152.692382812 200.3984375 118.977539062 c 0,26,27
 231.549804688 97.8125 231.549804688 97.8125 279.55078125 97.8125 c 0,0,1
275.374023438 441.326171875 m 0,28,29
 167.526367188 441.326171875 167.526367188 441.326171875 152.90625 325.236328125 c 1,30,-1
 393.1484375 325.236328125 l 1,31,32
 387.91796875 380.999023438 387.91796875 380.999023438 358.237304688 411.115234375 c 128,-1,33
 328.462890625 441.326171875 328.462890625 441.326171875 275.374023438 441.326171875 c 0,28,29
EndSplineSet
Validated: 1
EndChar

StartChar: f
Encoding: 102 102 73
Width: 348
GlyphClass: 2
Flags: W
LayerCount: 2
Fore
SplineSet
328.14453125 520.782226562 m 1,0,-1
 328.203125 429.97265625 l 1,1,-1
 227.655273438 429.97265625 l 1,2,-1
 227.655273438 0 l 1,3,-1
 85.1220703125 0 l 1,4,-1
 85.1220703125 429.97265625 l 1,5,-1
 8 429.97265625 l 1,6,-1
 8 520.782226562 l 1,7,-1
 85.1220703125 520.782226562 l 1,8,-1
 85.1220703125 567.346679688 l 2,9,10
 85.1220703125 631.349609375 85.1220703125 631.349609375 123.7578125 674.391601562 c 128,-1,11
 162.389648438 717.434570312 162.389648438 717.434570312 222.319335938 727.73828125 c 0,12,13
 264.270507812 734.970703125 264.270507812 734.970703125 328.203125 731.912109375 c 1,14,-1
 328.203125 624.8671875 l 1,15,16
 265.700195312 621.286132812 265.700195312 621.286132812 265.169921875 621.216796875 c 0,17,18
 227.594726562 616.216796875 227.594726562 616.216796875 227.594726562 575.51953125 c 2,19,-1
 227.594726562 520.782226562 l 1,20,-1
 328.14453125 520.782226562 l 1,0,-1
EndSplineSet
Validated: 33
EndChar

StartChar: g
Encoding: 103 103 74
Width: 641
GlyphClass: 2
Flags: W
LayerCount: 2
Fore
SplineSet
253.584960938 30.4443359375 m 0,0,1
 150.1640625 30.4443359375 150.1640625 30.4443359375 87.625 99.390625 c 128,-1,2
 25 168.271484375 25 168.271484375 25 277.697265625 c 0,3,4
 25 396.700195312 25 396.700195312 86.8134765625 466.564453125 c 0,5,6
 154.1875 542.81640625 154.1875 542.81640625 256.54296875 542.81640625 c 0,7,8
 347.380859375 542.81640625 347.380859375 542.81640625 411.599609375 470.274414062 c 1,9,-1
 411.599609375 527.219726562 l 1,10,-1
 546.362304688 527.219726562 l 1,11,-1
 546.362304688 24.9892578125 l 2,12,13
 546.362304688 -81.3818359375 546.362304688 -81.3818359375 477.994140625 -132.615234375 c 128,-1,14
 409.587890625 -183.876953125 409.587890625 -183.876953125 285.651367188 -183.876953125 c 0,15,16
 191.298828125 -183.876953125 191.298828125 -183.876953125 126.362304688 -144.212890625 c 0,17,18
 58.130859375 -102.596679688 58.130859375 -102.596679688 47.5576171875 -20.9326171875 c 1,19,-1
 189.799804688 -16.9921875 l 1,20,21
 208.478515625 -82.458984375 208.478515625 -82.458984375 290.5234375 -82.458984375 c 0,22,23
 344.176757812 -82.458984375 344.176757812 -82.458984375 377.908203125 -52.6533203125 c 128,-1,24
 411.599609375 -22.7939453125 411.599609375 -22.7939453125 411.599609375 24.9892578125 c 2,25,-1
 411.599609375 96.837890625 l 1,26,27
 377.469726562 63.8037109375 377.469726562 63.8037109375 336.564453125 45.63671875 c 0,28,29
 302.168945312 30.4443359375 302.168945312 30.4443359375 253.584960938 30.4443359375 c 0,0,1
191.016601562 388.9765625 m 128,-1,31
 157.384765625 347.702148438 157.384765625 347.702148438 157.384765625 281.412109375 c 0,32,33
 157.384765625 224.7734375 157.384765625 224.7734375 193.858398438 181.092773438 c 0,34,35
 225.956054688 142.645507812 225.956054688 142.645507812 277.416015625 142.645507812 c 0,36,37
 337.374023438 142.645507812 337.374023438 142.645507812 371.123046875 179.123046875 c 0,38,39
 407.771484375 218.724609375 407.771484375 218.724609375 407.771484375 281.467773438 c 0,40,41
 407.771484375 345.979492188 407.771484375 345.979492188 371.123046875 388.107421875 c 128,-1,42
 334.528320312 430.265625 334.528320312 430.265625 278.517578125 430.265625 c 0,43,30
 224.63671875 430.265625 224.63671875 430.265625 191.016601562 388.9765625 c 128,-1,31
EndSplineSet
Validated: 1
EndChar

StartChar: h
Encoding: 104 104 75
Width: 641
GlyphClass: 2
Flags: W
LayerCount: 2
Fore
SplineSet
200.608398438 293.587890625 m 2,0,-1
 200.608398438 0 l 1,1,-1
 59 0 l 1,2,-1
 59 734.46484375 l 1,3,-1
 200.608398438 734.46484375 l 1,4,-1
 200.608398438 460.880859375 l 1,5,6
 257.130859375 542.81640625 257.130859375 542.81640625 351.256835938 542.81640625 c 0,7,8
 388.138671875 542.81640625 388.138671875 542.81640625 413.244140625 534.5234375 c 0,9,10
 464.3515625 517.727539062 464.3515625 517.727539062 501.888671875 466.323242188 c 128,-1,11
 539.424804688 414.922851562 539.424804688 414.922851562 539.424804688 342.875976562 c 2,12,-1
 539.424804688 0 l 1,13,-1
 397.8203125 0 l 1,14,-1
 397.8203125 312.201171875 l 2,15,16
 397.8203125 363.169921875 397.8203125 363.169921875 375.385742188 395.120117188 c 128,-1,17
 352.951171875 427.07421875 352.951171875 427.07421875 311.0703125 427.07421875 c 0,18,19
 264.794921875 427.07421875 264.794921875 427.07421875 233.950195312 395.528320312 c 0,20,21
 200.608398438 361.440429688 200.608398438 361.440429688 200.608398438 293.587890625 c 2,0,-1
EndSplineSet
Validated: 1
EndChar

StartChar: i
Encoding: 105 105 76
Width: 289
GlyphClass: 2
Flags: W
LayerCount: 2
Fore
SplineSet
66 0 m 1,0,-1
 66 527.216796875 l 1,1,-1
 208.532226562 527.216796875 l 1,2,-1
 208.532226562 0 l 1,3,-1
 66 0 l 1,0,-1
66 612.342773438 m 1,4,-1
 66 734.40625 l 1,5,-1
 208.532226562 734.40625 l 1,6,-1
 208.532226562 612.342773438 l 1,7,-1
 66 612.342773438 l 1,4,-1
EndSplineSet
Validated: 1
EndChar

StartChar: j
Encoding: 106 106 77
Width: 290
GlyphClass: 2
Flags: W
LayerCount: 2
Fore
SplineSet
170.059570312 -146.243164062 m 0,0,1
 127.55078125 -187.241210938 127.55078125 -187.241210938 -18.919921875 -173.151367188 c 1,2,-1
 -18.919921875 -63.7861328125 l 1,3,4
 37.978515625 -65.6904296875 37.978515625 -65.6904296875 52.3486328125 -54.4482421875 c 0,5,6
 69.3955078125 -41.111328125 69.3955078125 -41.111328125 69.3955078125 -21.8037109375 c 2,7,-1
 69.3955078125 527.275390625 l 1,8,-1
 211 527.275390625 l 1,9,-1
 211 -52.07421875 l 2,10,11
 211 -106.637695312 211 -106.637695312 170.059570312 -146.243164062 c 0,0,1
69.4521484375 612.401367188 m 1,12,-1
 69.4521484375 734.46484375 l 1,13,-1
 211.055664062 734.46484375 l 1,14,-1
 211.055664062 612.401367188 l 1,15,-1
 69.4521484375 612.401367188 l 1,12,-1
EndSplineSet
Validated: 33
EndChar

StartChar: k
Encoding: 107 107 78
Width: 581
GlyphClass: 2
Flags: W
LayerCount: 2
Fore
SplineSet
190.587890625 172.801757812 m 1,0,-1
 190.587890625 0 l 1,1,-1
 48 0 l 1,2,-1
 48 734.46484375 l 1,3,-1
 190.587890625 734.46484375 l 1,4,-1
 190.587890625 322.233398438 l 1,5,-1
 370.233398438 527.275390625 l 1,6,-1
 531.319335938 527.275390625 l 1,7,-1
 344.8359375 328.091796875 l 1,8,-1
 569.302734375 0 l 1,9,-1
 402.359375 0 l 1,10,-1
 247.184570312 232.41015625 l 1,11,-1
 190.587890625 172.801757812 l 1,0,-1
EndSplineSet
Validated: 1
EndChar

StartChar: l
Encoding: 108 108 79
Width: 289
GlyphClass: 2
Flags: W
LayerCount: 2
Fore
SplineSet
65 0 m 1,0,-1
 65 734.46484375 l 1,1,-1
 207.536132812 734.46484375 l 1,2,-1
 207.536132812 0 l 1,3,-1
 65 0 l 1,0,-1
EndSplineSet
Validated: 1
EndChar

StartChar: m
Encoding: 109 109 80
Width: 933
GlyphClass: 2
Flags: W
LayerCount: 2
Fore
SplineSet
188.8984375 294.865234375 m 1,0,-1
 188.953125 -0.115234375 l 1,1,-1
 46.5966796875 -0.115234375 l 1,2,-1
 46.5966796875 527.104492188 l 1,3,-1
 187.970703125 527.104492188 l 1,4,-1
 187.970703125 461.693359375 l 1,5,6
 220.59375 506.528320312 220.59375 506.528320312 258.133789062 528.436523438 c 0,7,8
 292.103515625 548.2109375 292.103515625 548.2109375 339.143554688 548.2109375 c 0,9,10
 440.500976562 548.2109375 440.500976562 548.2109375 489.328125 457.80859375 c 1,11,12
 559.694335938 548.2109375 559.694335938 548.2109375 650.298828125 548.2109375 c 0,13,14
 733.772460938 548.2109375 733.772460938 548.2109375 779.900390625 498.515625 c 128,-1,15
 826.060546875 448.885742188 826.060546875 448.885742188 826.060546875 372.916015625 c 2,16,-1
 826.060546875 -0.056640625 l 1,17,-1
 683.700195312 -0.056640625 l 1,18,-1
 683.700195312 344.095703125 l 2,19,20
 683.700195312 383.241210938 683.700195312 383.241210938 662.59375 406.432617188 c 128,-1,21
 641.494140625 429.627929688 641.494140625 429.627929688 606.171875 429.627929688 c 0,22,23
 560.064453125 429.627929688 560.064453125 429.627929688 534.038085938 394.022460938 c 128,-1,24
 508 358.529296875 508 358.529296875 508 294.80859375 c 2,25,-1
 508 0 l 1,26,-1
 364.657226562 0 l 1,27,-1
 364.657226562 344.15625 l 2,28,29
 364.657226562 383.233398438 364.657226562 383.233398438 344.013671875 406.491210938 c 128,-1,30
 323.33984375 429.686523438 323.33984375 429.686523438 287.068359375 429.686523438 c 0,31,32
 240.96484375 429.686523438 240.96484375 429.686523438 214.931640625 394.08203125 c 128,-1,33
 188.8984375 358.58203125 188.8984375 358.58203125 188.8984375 294.865234375 c 1,0,-1
EndSplineSet
Validated: 1
EndChar

StartChar: n
Encoding: 110 110 81
Width: 605
GlyphClass: 2
Flags: W
LayerCount: 2
Fore
SplineSet
484.950195312 483.901367188 m 0,0,1
 532.065429688 432.526367188 532.065429688 432.526367188 532.149414062 339.282226562 c 2,2,-1
 532.149414062 -0.05859375 l 1,3,-1
 393.038085938 -0.05859375 l 1,4,-1
 393.038085938 314.870117188 l 2,5,6
 393.038085938 363.481445312 393.038085938 363.481445312 367.790039062 394.438476562 c 128,-1,7
 342.540039062 425.391601562 342.540039062 425.391601562 298.810546875 425.391601562 c 0,8,9
 259.025390625 425.391601562 259.025390625 425.391601562 222.5 391.469726562 c 0,10,11
 192 363.139648438 192 363.139648438 192 297.125 c 2,12,-1
 192 0 l 1,13,-1
 52.888671875 0 l 1,14,-1
 52.888671875 527.216796875 l 1,15,-1
 192 527.216796875 l 1,16,-1
 192 462.272460938 l 1,17,18
 242.239257812 546.237304688 242.239257812 546.237304688 352.04296875 546.237304688 c 0,19,20
 427.677734375 546.237304688 427.677734375 546.237304688 484.950195312 483.901367188 c 0,0,1
EndSplineSet
Validated: 1
EndChar

StartChar: o
Encoding: 111 111 82
Width: 625
GlyphClass: 2
Flags: W
LayerCount: 2
Fore
SplineSet
294.2265625 539.162109375 m 0,0,1
 417.3125 539.162109375 417.3125 539.162109375 489.701171875 462.446289062 c 0,2,3
 566.650390625 380.995117188 566.650390625 380.995117188 566.650390625 255.954101562 c 0,4,5
 566.650390625 137.555664062 566.650390625 137.555664062 488.250976562 56.76953125 c 0,6,7
 414.373046875 -19.3671875 414.373046875 -19.3671875 295.2109375 -19.3671875 c 0,8,9
 174.1171875 -19.3671875 174.1171875 -19.3671875 101.247070312 57.2900390625 c 0,10,11
 23.775390625 138.678710938 23.775390625 138.678710938 23.775390625 259.897460938 c 128,-1,12
 23.775390625 381.012695312 23.775390625 381.012695312 101.247070312 462.504882812 c 0,13,14
 174.026367188 539.162109375 174.026367188 539.162109375 294.2265625 539.162109375 c 0,0,1
390.369140625 134.647460938 m 128,-1,16
 427.420898438 182.048828125 427.420898438 182.048828125 427.420898438 257.868164062 c 0,17,18
 427.420898438 337.78125 427.420898438 337.78125 391.35546875 385.151367188 c 128,-1,19
 355.322265625 432.584960938 355.322265625 432.584960938 295.2109375 432.584960938 c 0,20,21
 236.044921875 432.584960938 236.044921875 432.584960938 199.533203125 384.684570312 c 128,-1,22
 163 336.752929688 163 336.752929688 163 259.897460938 c 128,-1,23
 163 182.922851562 163 182.922851562 199.533203125 135.110351562 c 128,-1,24
 236.131835938 87.2099609375 236.131835938 87.2099609375 295.2109375 87.2099609375 c 0,25,15
 353.295898438 87.2099609375 353.295898438 87.2099609375 390.369140625 134.647460938 c 128,-1,16
EndSplineSet
Validated: 1
EndChar

StartChar: p
Encoding: 112 112 83
Width: 640
GlyphClass: 2
Flags: W
LayerCount: 2
Fore
SplineSet
341.9375 539.162109375 m 0,0,1
 445.375976562 539.162109375 445.375976562 539.162109375 508.416992188 459.139648438 c 0,2,3
 569.650390625 381.24609375 569.650390625 381.24609375 569.650390625 255.549804688 c 0,4,5
 569.650390625 147.474609375 569.650390625 147.474609375 505.978515625 59.4931640625 c 0,6,7
 447.909179688 -20.6435546875 447.909179688 -20.6435546875 341.9375 -20.6435546875 c 0,8,9
 232.580078125 -20.6435546875 232.580078125 -20.6435546875 189.602539062 48.94140625 c 1,10,-1
 189.602539062 -182.66015625 l 1,11,-1
 48 -182.66015625 l 1,12,-1
 48 526.986328125 l 1,13,-1
 189.602539062 526.986328125 l 1,14,-1
 189.602539062 458.91015625 l 1,15,16
 242.7265625 539.162109375 242.7265625 539.162109375 341.9375 539.162109375 c 0,0,1
395.631835938 144.560546875 m 128,-1,18
 429.758789062 190.416992188 429.758789062 190.416992188 429.842773438 261.752929688 c 0,19,20
 429.842773438 336.895507812 429.842773438 336.895507812 396.151367188 383.291992188 c 128,-1,21
 362.384765625 429.682617188 362.384765625 429.682617188 307.897460938 429.682617188 c 0,22,23
 255.799804688 429.682617188 255.799804688 429.682617188 216.971679688 382.309570312 c 0,24,25
 185.94921875 344.381835938 185.94921875 344.381835938 185.94921875 263.666015625 c 128,-1,26
 185.94921875 183.021484375 185.94921875 183.021484375 216.971679688 145.606445312 c 0,27,28
 255.866210938 98.693359375 255.866210938 98.693359375 307.897460938 98.693359375 c 0,29,17
 361.48828125 98.693359375 361.48828125 98.693359375 395.631835938 144.560546875 c 128,-1,18
EndSplineSet
Validated: 1
EndChar

StartChar: q
Encoding: 113 113 84
Width: 642
GlyphClass: 2
Flags: W
LayerCount: 2
Fore
SplineSet
400.395507812 461.633789062 m 1,0,-1
 400.395507812 526.9296875 l 1,1,-1
 542 526.9296875 l 1,2,-1
 542 -182.66015625 l 1,3,-1
 400.395507812 -182.66015625 l 1,4,-1
 400.395507812 47.6064453125 l 1,5,6
 348.545898438 -17.3974609375 348.545898438 -17.3974609375 247.075195312 -17.3974609375 c 0,7,8
 144.068359375 -17.3974609375 144.068359375 -17.3974609375 82.0458984375 59.841796875 c 0,9,10
 18.6083984375 138.939453125 18.6083984375 138.939453125 18.6083984375 255.549804688 c 0,11,12
 18.6083984375 385.706054688 18.6083984375 385.706054688 84.0166015625 465.288085938 c 128,-1,13
 149.47265625 544.845703125 149.47265625 544.845703125 248.0625 544.845703125 c 0,14,15
 351.48828125 544.845703125 351.48828125 544.845703125 400.395507812 461.633789062 c 1,0,-1
370.763671875 145.024414062 m 0,16,17
 400.360351562 182.208007812 400.360351562 182.208007812 400.451171875 260.765625 c 0,18,19
 400.451171875 344.403320312 400.451171875 344.403320312 371.283203125 382.365234375 c 0,20,21
 334.866210938 429.682617188 334.866210938 429.682617188 280.361328125 429.682617188 c 0,22,23
 226.600585938 429.682617188 226.600585938 429.682617188 193.439453125 383.81640625 c 128,-1,24
 160.26953125 337.84375 160.26953125 337.84375 160.26953125 263.7265625 c 128,-1,25
 160.26953125 189.422851562 160.26953125 189.422851562 193.439453125 144.096679688 c 128,-1,26
 226.663085938 98.693359375 226.663085938 98.693359375 280.361328125 98.693359375 c 0,27,28
 333.784179688 98.693359375 333.784179688 98.693359375 370.763671875 145.024414062 c 0,16,17
EndSplineSet
Validated: 1
EndChar

StartChar: r
Encoding: 114 114 85
Width: 395
GlyphClass: 2
Flags: W
LayerCount: 2
Fore
SplineSet
263.044921875 527.68359375 m 0,0,1
 293.1328125 543.465820312 293.1328125 543.465820312 356.115234375 537.66015625 c 1,2,-1
 356.115234375 411.07421875 l 2,3,4
 346.041015625 412.1171875 346.041015625 412.1171875 324.393554688 412.1171875 c 0,5,6
 271.399414062 412.1171875 271.399414062 412.1171875 230.776367188 371.5078125 c 128,-1,7
 190.153320312 330.895507812 190.153320312 330.895507812 190.153320312 272.251953125 c 2,8,-1
 190.153320312 0 l 1,9,-1
 58 0 l 1,10,-1
 58 527.220703125 l 1,11,-1
 190.153320312 527.220703125 l 1,12,-1
 190.153320312 452.997070312 l 1,13,14
 209.71484375 499.788085938 209.71484375 499.788085938 263.044921875 527.68359375 c 0,0,1
EndSplineSet
Validated: 33
EndChar

StartChar: s
Encoding: 115 115 86
Width: 562
GlyphClass: 2
Flags: W
LayerCount: 2
Fore
SplineSet
306.831054688 329.249023438 m 0,0,1
 419.329101562 309.373046875 419.329101562 309.373046875 453.420898438 277.00390625 c 0,2,3
 501.375976562 231.94921875 501.375976562 231.94921875 501.375976562 155.345703125 c 0,4,5
 501.375976562 90.2548828125 501.375976562 90.2548828125 451.509765625 42.2158203125 c 0,6,7
 414.3984375 6.466796875 414.3984375 6.466796875 355.134765625 -7.0751953125 c 0,8,9
 312.995117188 -16.7001953125 312.995117188 -16.7001953125 278.939453125 -16.7001953125 c 0,10,11
 231.708007812 -16.7001953125 231.708007812 -16.7001953125 183.665039062 -5.1015625 c 0,12,13
 127.344726562 8.3955078125 127.344726562 8.3955078125 90.830078125 42.2158203125 c 0,14,15
 24.583984375 103.546875 24.583984375 103.546875 22.2861328125 174.715820312 c 1,16,-1
 142.090820312 178.366210938 l 1,17,18
 147.543945312 151.370117188 147.543945312 151.370117188 158.7890625 132.150390625 c 0,19,20
 185.642578125 86.1083984375 185.642578125 86.1083984375 271.518554688 86.1083984375 c 0,21,22
 333.26171875 86.1083984375 333.26171875 86.1083984375 360.700195312 115.51171875 c 0,23,24
 404.639648438 162.361328125 404.639648438 162.361328125 347.827148438 195.881835938 c 0,25,26
 329.872070312 206.5234375 329.872070312 206.5234375 296.97265625 211.94140625 c 0,27,28
 285.751953125 213.786132812 285.751953125 213.786132812 267.001953125 216.715820312 c 128,-1,29
 248.25390625 219.645507812 248.25390625 219.645507812 243.102539062 220.466796875 c 0,30,31
 217.540039062 224.560546875 217.540039062 224.560546875 159.891601562 242.616210938 c 0,32,33
 45.1435546875 278.388671875 45.1435546875 278.388671875 39.8017578125 363.34765625 c 0,34,35
 32.3564453125 483.07421875 32.3564453125 483.07421875 150.323242188 535.27734375 c 0,36,37
 189.32421875 552.5 189.32421875 552.5 252.846679688 552.5 c 0,38,39
 352.94140625 552.5 352.94140625 552.5 413.52734375 506.981445312 c 0,40,41
 479.669921875 457.19140625 479.669921875 457.19140625 481.545898438 378.655273438 c 1,42,-1
 356.640625 374.482421875 l 1,43,44
 355.529296875 457.2265625 355.529296875 457.2265625 255.627929688 457.2265625 c 0,45,46
 213.78515625 457.2265625 213.78515625 457.2265625 189.522460938 440.467773438 c 128,-1,47
 165.344726562 423.76953125 165.344726562 423.76953125 165.340820312 395.239257812 c 0,48,49
 165.340820312 375.004882812 165.340820312 375.004882812 176.0703125 365.258789062 c 0,50,51
 189.459960938 353.18359375 189.459960938 353.18359375 230 342.760742188 c 0,52,53
 239.122070312 340.442382812 239.122070312 340.442382812 250.87890625 338.374023438 c 128,-1,54
 262.640625 336.306640625 262.640625 336.306640625 279.416992188 333.711914062 c 128,-1,55
 296.1875 331.122070312 296.1875 331.122070312 306.831054688 329.249023438 c 0,0,1
EndSplineSet
Validated: 33
EndChar

StartChar: t
Encoding: 116 116 87
Width: 349
GlyphClass: 2
Flags: W
LayerCount: 2
Fore
SplineSet
221.532226562 690.856445312 m 1,0,-1
 221.475585938 527.159179688 l 1,1,-1
 315.008789062 527.159179688 l 1,2,-1
 315.008789062 436.353515625 l 1,3,-1
 221.475585938 436.353515625 l 1,4,-1
 221.475585938 159 l 2,5,6
 221.475585938 122.770507812 221.475585938 122.770507812 227.853515625 115.046875 c 0,7,8
 243.984375 95.576171875 243.984375 95.576171875 315.065429688 99.216796875 c 1,9,-1
 315.065429688 -3.0166015625 l 1,10,11
 279.927734375 -7.19140625 279.927734375 -7.19140625 217.647460938 -7.19140625 c 0,12,13
 150.192382812 -7.19140625 150.192382812 -7.19140625 114.594726562 30.7919921875 c 128,-1,14
 79 68.779296875 79 68.779296875 79 132.7890625 c 2,15,-1
 79 436.353515625 l 1,16,-1
 8.720703125 436.353515625 l 1,17,-1
 8.720703125 527.159179688 l 1,18,-1
 79 527.159179688 l 1,19,-1
 79 690.856445312 l 1,20,-1
 221.532226562 690.856445312 l 1,0,-1
EndSplineSet
Validated: 33
EndChar

StartChar: u
Encoding: 117 117 88
Width: 605
GlyphClass: 2
Flags: W
LayerCount: 2
Fore
SplineSet
383.01953125 208.520507812 m 1,0,-1
 383.078125 526.9296875 l 1,1,-1
 519.172851562 526.9296875 l 1,2,-1
 519.172851562 -0.2900390625 l 1,3,-1
 383.078125 -0.2900390625 l 1,4,-1
 383.078125 62.220703125 l 1,5,6
 331.216796875 -16.583984375 331.216796875 -16.583984375 226.453125 -16.583984375 c 0,7,8
 158.583984375 -16.583984375 158.583984375 -16.583984375 104.291992188 36.4169921875 c 128,-1,9
 50 89.4189453125 50 89.4189453125 50 173.08984375 c 2,10,-1
 50 526.986328125 l 1,11,-1
 192.532226562 526.986328125 l 1,12,-1
 192.532226562 199.765625 l 2,13,14
 192.532226562 105.0703125 192.532226562 105.0703125 273.9453125 105.0703125 c 0,15,16
 323.385742188 105.0703125 323.385742188 105.0703125 353.158203125 133.37109375 c 128,-1,17
 383.01953125 161.663085938 383.01953125 161.663085938 383.01953125 208.520507812 c 1,0,-1
EndSplineSet
Validated: 1
EndChar

StartChar: v
Encoding: 118 118 89
Width: 582
GlyphClass: 2
Flags: W
LayerCount: 2
Fore
SplineSet
261 164.859375 m 1,0,-1
 370.189453125 527.219726562 l 1,1,-1
 513.299804688 527.219726562 l 1,2,-1
 332.788085938 0 l 1,3,-1
 194.0234375 0 l 1,4,-1
 10.669921875 527.219726562 l 1,5,-1
 153.779296875 527.219726562 l 1,6,-1
 261 164.859375 l 1,0,-1
EndSplineSet
Validated: 1
EndChar

StartChar: w
Encoding: 119 119 90
Width: 816
GlyphClass: 2
Flags: W
LayerCount: 2
Fore
SplineSet
530.091796875 184.110351562 m 1,0,-1
 618.869140625 527.219726562 l 1,1,-1
 766.271484375 527.219726562 l 1,2,-1
 611.040039062 0 l 1,3,-1
 472.857421875 0 l 1,4,-1
 377.1796875 353.141601562 l 1,5,-1
 285.616210938 0 l 1,6,-1
 148.245117188 0 l 1,7,-1
 -6 527.219726562 l 1,8,-1
 141.403320312 527.219726562 l 1,9,-1
 221.655273438 186.313476562 l 1,10,-1
 311.3046875 527.219726562 l 1,11,-1
 444.211914062 527.219726562 l 1,12,-1
 530.091796875 184.110351562 l 1,0,-1
EndSplineSet
Validated: 1
EndChar

StartChar: x
Encoding: 120 120 91
Width: 582
GlyphClass: 2
Flags: W
LayerCount: 2
Fore
SplineSet
364.856445312 527.219726562 m 1,0,-1
 513.073242188 527.219726562 l 1,1,-1
 353.783203125 284.424804688 l 1,2,-1
 539.802734375 0 l 1,3,-1
 368.916015625 0 l 1,4,-1
 270.685546875 169.611328125 l 1,5,-1
 165.265625 0 l 1,6,-1
 1.279296875 0 l 1,7,-1
 196 281.119140625 l 1,8,-1
 30.6220703125 527.219726562 l 1,9,-1
 200.461914062 527.219726562 l 1,10,-1
 281.819335938 383.119140625 l 1,11,-1
 364.856445312 527.219726562 l 1,0,-1
EndSplineSet
Validated: 1
EndChar

StartChar: y
Encoding: 121 121 92
Width: 582
GlyphClass: 2
Flags: W
LayerCount: 2
Fore
SplineSet
268 188.399414062 m 1,0,-1
 372.028320312 527.219726562 l 1,1,-1
 518.504882812 527.219726562 l 1,2,-1
 315.610351562 -53.9873046875 l 2,3,4
 313.307617188 -59 313.307617188 -59 307.806640625 -74.4072265625 c 0,5,6
 300.307617188 -93 300.307617188 -93 280.619140625 -118.036132812 c 0,7,8
 261.307617188 -144 261.307617188 -144 238.0234375 -155.349609375 c 0,9,10
 196.307617188 -176 196.307617188 -176 118.626953125 -171.176757812 c 0,11,12
 60.69921875 -168.021484375 60.69921875 -168.021484375 60.69921875 -167.291992188 c 2,13,-1
 60.69921875 -62.39453125 l 1,14,15
 92.3076171875 -64 92.3076171875 -64 102.911132812 -63.4375 c 0,16,17
 147.307617188 -64 147.307617188 -64 165.536132812 -45.228515625 c 0,18,19
 176.307617188 -35 176.307617188 -35 182.587890625 -21.455078125 c 0,20,21
 190.262695312 -4.1015625 190.262695312 -4.1015625 184.791015625 22.9619140625 c 2,22,-1
 178.120117188 55.9580078125 l 1,23,-1
 5.0888671875 526.2890625 l 1,24,-1
 161.942382812 527.219726562 l 1,25,-1
 268 188.399414062 l 1,0,-1
EndSplineSet
Validated: 33
EndChar

StartChar: z
Encoding: 122 122 93
Width: 525
GlyphClass: 2
Flags: W
LayerCount: 2
Fore
SplineSet
462.224609375 416.928710938 m 1,0,-1
 192.758789062 110.346679688 l 1,1,-1
 470.98046875 110.346679688 l 1,2,-1
 470.98046875 0 l 1,3,-1
 17 0 l 1,4,-1
 17 110.346679688 l 1,5,-1
 288.436523438 416.928710938 l 1,6,-1
 41.2978515625 416.928710938 l 1,7,-1
 41.2978515625 527.219726562 l 1,8,-1
 462.224609375 527.219726562 l 1,9,-1
 462.224609375 416.928710938 l 1,0,-1
EndSplineSet
Validated: 1
EndChar

StartChar: braceleft
Encoding: 123 123 94
Width: 408
GlyphClass: 2
Flags: W
LayerCount: 2
Fore
SplineSet
116 150 m 2,0,1
 116 194 116 194 99.5 208 c 128,-1,2
 83 222 83 222 36 222 c 1,3,-1
 31 223 l 1,4,-1
 31 315 l 1,5,-1
 48 315 l 2,6,7
 116 316 116 316 116 378 c 2,8,-1
 116 589 l 2,9,10
 116 650 116 650 151.5 689.5 c 128,-1,11
 187 729 187 729 244 729 c 2,12,-1
 323 729 l 1,13,-1
 323 630 l 1,14,-1
 284 630 l 2,15,16
 237 630 237 630 237 573 c 2,17,-1
 237 378 l 2,18,19
 237 323 237 323 216 300 c 128,-1,20
 195 277 195 277 136 269 c 1,21,22
 195 260 195 260 216 237 c 128,-1,23
 237 214 237 214 237 159 c 2,24,-1
 237 -36 l 2,25,26
 237 -73 237 -73 247.5 -87 c 128,-1,27
 258 -101 258 -101 284 -101 c 2,28,-1
 323 -101 l 1,29,-1
 323 -200 l 1,30,-1
 244 -200 l 2,31,32
 187 -200 187 -200 151.5 -160.5 c 128,-1,33
 116 -121 116 -121 116 -60 c 2,34,-1
 116 150 l 2,0,1
EndSplineSet
Validated: 1
EndChar

StartChar: bar
Encoding: 124 124 95
Width: 291
GlyphClass: 2
Flags: W
LayerCount: 2
Fore
SplineSet
182 729 m 1,0,-1
 182 -200 l 1,1,-1
 98 -200 l 1,2,-1
 98 729 l 1,3,-1
 182 729 l 1,0,-1
EndSplineSet
Validated: 1
EndChar

StartChar: braceright
Encoding: 125 125 96
Width: 406
GlyphClass: 2
Flags: W
LayerCount: 2
Fore
SplineSet
273 379 m 2,0,1
 273 335 273 335 289.5 321 c 128,-1,2
 306 307 306 307 353 307 c 1,3,-1
 358 306 l 1,4,-1
 358 214 l 1,5,-1
 341 214 l 2,6,7
 273 213 273 213 273 151 c 2,8,-1
 273 -60 l 2,9,10
 273 -121 273 -121 237.5 -160.5 c 128,-1,11
 202 -200 202 -200 145 -200 c 2,12,-1
 66 -200 l 1,13,-1
 66 -101 l 1,14,-1
 105 -101 l 2,15,16
 152 -101 152 -101 152 -44 c 2,17,-1
 152 151 l 2,18,19
 152 206 152 206 173 229 c 128,-1,20
 194 252 194 252 253 260 c 1,21,22
 194 269 194 269 173 292 c 128,-1,23
 152 315 152 315 152 370 c 2,24,-1
 152 565 l 2,25,26
 152 602 152 602 141.5 616 c 128,-1,27
 131 630 131 630 105 630 c 2,28,-1
 66 630 l 1,29,-1
 66 729 l 1,30,-1
 145 729 l 2,31,32
 202 729 202 729 237.5 689.5 c 128,-1,33
 273 650 273 650 273 589 c 2,34,-1
 273 379 l 2,0,1
EndSplineSet
Validated: 1
EndChar

StartChar: asciitilde
Encoding: 126 126 97
Width: 612
GlyphClass: 2
Flags: W
LayerCount: 2
Fore
SplineSet
392 222 m 0,0,1
 426 222 426 222 436 237.5 c 128,-1,2
 446 253 446 253 447 288 c 1,3,-1
 528 288 l 1,4,5
 519 142 519 142 396 142 c 0,6,7
 349 142 349 142 310 168 c 2,8,-1
 250 210 l 2,9,10
 217 234 217 234 187 234 c 0,11,12
 154 234 154 234 144 219 c 128,-1,13
 134 204 134 204 132 169 c 1,14,-1
 51 169 l 1,15,16
 58 314 58 314 183 314 c 0,17,18
 233 314 233 314 269 289 c 2,19,-1
 328 247 l 2,20,21
 364 222 364 222 392 222 c 0,0,1
EndSplineSet
Validated: 1
EndChar

StartChar: cent
Encoding: 162 162 133
Width: 582
GlyphClass: 2
Flags: W
LayerCount: 2
Fore
SplineSet
304 435 m 1,0,-1
 304 91 l 1,1,2
 339 96 339 96 360 118.5 c 128,-1,3
 381 141 381 141 392 187 c 1,4,-1
 532 187 l 1,5,6
 523 97 523 97 460 39 c 128,-1,7
 397 -19 397 -19 304 -23 c 1,8,-1
 304 -124 l 1,9,-1
 258 -124 l 1,10,-1
 258 -22 l 1,11,12
 150 -15 150 -15 88 59.5 c 128,-1,13
 26 134 26 134 26 259 c 0,14,15
 26 388 26 388 85.5 462.5 c 128,-1,16
 145 537 145 537 258 548 c 1,17,-1
 258 634 l 1,18,-1
 304 634 l 1,19,-1
 304 549 l 1,20,21
 400 548 400 548 462.5 489.5 c 128,-1,22
 525 431 525 431 532 338 c 1,23,-1
 392 338 l 1,24,25
 382 384 382 384 361 407 c 128,-1,26
 340 430 340 430 304 435 c 1,0,-1
258 94 m 1,27,-1
 258 433 l 1,28,29
 172 411 172 411 172 260 c 0,30,31
 172 119 172 119 258 94 c 1,27,-1
EndSplineSet
Validated: 1
EndChar

StartChar: sterling
Encoding: 163 163 134
Width: 581
GlyphClass: 2
Flags: W
LayerCount: 2
Fore
SplineSet
175 513 m 0,0,1
 175 497 175 497 183.5 476 c 128,-1,2
 192 455 192 455 208.5 423.5 c 128,-1,3
 225 392 225 392 234 371 c 1,4,-1
 379 371 l 1,5,-1
 379 316 l 1,6,-1
 252 316 l 1,7,8
 267 284 267 284 267 257 c 0,9,10
 267 213 267 213 240 174.5 c 128,-1,11
 213 136 213 136 147 86 c 1,12,13
 228 123 228 123 263 123 c 0,14,15
 286 123 286 123 327.5 112.5 c 128,-1,16
 369 102 369 102 395 102 c 0,17,18
 444 102 444 102 504 131 c 1,19,-1
 547 22 l 1,20,21
 468 -23 468 -23 396 -23 c 0,22,23
 360 -23 360 -23 294 -7 c 128,-1,24
 228 9 228 9 191 9 c 0,25,26
 140 9 140 9 78 -21 c 1,27,-1
 21 80 l 1,28,29
 86 123 86 123 110.5 155 c 128,-1,30
 135 187 135 187 135 231 c 0,31,32
 135 265 135 265 113 316 c 1,33,-1
 21 316 l 1,34,-1
 21 371 l 1,35,-1
 83 371 l 1,36,37
 48 430 48 430 38 456.5 c 128,-1,38
 28 483 28 483 28 516 c 0,39,40
 28 600 28 600 95.5 657.5 c 128,-1,41
 163 715 163 715 276 715 c 0,42,43
 338 715 338 715 385 699.5 c 128,-1,44
 432 684 432 684 458 662 c 128,-1,45
 484 640 484 640 500.5 606.5 c 128,-1,46
 517 573 517 573 522.5 546 c 128,-1,47
 528 519 528 519 532 484 c 1,48,-1
 394 484 l 1,49,-1
 393 495 l 2,50,51
 390 516 390 516 385 531.5 c 128,-1,52
 380 547 380 547 368.5 565.5 c 128,-1,53
 357 584 357 584 333.5 594 c 128,-1,54
 310 604 310 604 277 604 c 0,55,56
 232 604 232 604 203.5 578.5 c 128,-1,57
 175 553 175 553 175 513 c 0,0,1
EndSplineSet
Validated: 1
EndChar

StartChar: currency
Encoding: 164 164 135
Width: 582
GlyphClass: 2
Flags: W
LayerCount: 2
Fore
SplineSet
392 528 m 1,0,-1
 468 601 l 1,1,-1
 540 532 l 1,2,-1
 462 457 l 1,3,4
 490 403 490 403 490 354 c 0,5,6
 490 297 490 297 460 246 c 1,7,-1
 540 170 l 1,8,-1
 468 102 l 1,9,-1
 390 177 l 1,10,11
 355 158 355 158 334.5 152.5 c 128,-1,12
 314 147 314 147 286 147 c 0,13,14
 215 147 215 147 171 178 c 1,15,-1
 89 100 l 1,16,-1
 18 169 l 1,17,-1
 99 246 l 1,18,19
 68 301 68 301 68 352 c 0,20,21
 68 411 68 411 98 457 c 1,22,-1
 16 536 l 1,23,-1
 88 604 l 1,24,-1
 168 527 l 1,25,26
 221 558 221 558 281 558 c 0,27,28
 342 558 342 558 392 528 c 1,0,-1
280 460 m 0,29,30
 233 460 233 460 200.5 429 c 128,-1,31
 168 398 168 398 168 352 c 0,32,33
 168 308 168 308 200.5 276.5 c 128,-1,34
 233 245 233 245 279 245 c 128,-1,35
 325 245 325 245 357.5 276.5 c 128,-1,36
 390 308 390 308 390 353 c 0,37,38
 390 397 390 397 357.5 428.5 c 128,-1,39
 325 460 325 460 280 460 c 0,29,30
EndSplineSet
Validated: 1
EndChar

StartChar: yen
Encoding: 165 165 136
Width: 582
GlyphClass: 2
Flags: W
LayerCount: 2
Fore
SplineSet
506 351 m 1,0,-1
 506 292 l 1,1,-1
 358 292 l 1,2,-1
 358 239 l 1,3,-1
 506 239 l 1,4,-1
 506 180 l 1,5,-1
 358 180 l 1,6,-1
 358 0 l 1,7,-1
 212 0 l 1,8,-1
 212 180 l 1,9,-1
 62 180 l 1,10,-1
 62 239 l 1,11,-1
 212 239 l 1,12,-1
 212 292 l 1,13,-1
 62 292 l 1,14,-1
 62 351 l 1,15,-1
 205 351 l 1,16,-1
 -6 704 l 1,17,-1
 139 704 l 1,18,-1
 283 450 l 1,19,-1
 423 704 l 1,20,-1
 563 704 l 1,21,-1
 363 351 l 1,22,-1
 506 351 l 1,0,-1
EndSplineSet
Validated: 1
EndChar

StartChar: brokenbar
Encoding: 166 166 137
Width: 291
GlyphClass: 2
Flags: W
LayerCount: 2
Fore
SplineSet
182 729 m 1,0,-1
 182 340 l 1,1,-1
 98 340 l 1,2,-1
 98 729 l 1,3,-1
 182 729 l 1,0,-1
182 189 m 1,4,-1
 182 -200 l 1,5,-1
 98 -200 l 1,6,-1
 98 189 l 1,7,-1
 182 189 l 1,4,-1
EndSplineSet
Validated: 1
EndChar

StartChar: section
Encoding: 167 167 138
Width: 582
GlyphClass: 2
Flags: W
LayerCount: 2
Fore
SplineSet
119 428 m 1,0,1
 118 429 118 429 110 436 c 128,-1,2
 102 443 102 443 99.5 446 c 128,-1,3
 97 449 97 449 90 457 c 128,-1,4
 83 465 83 465 79.5 471 c 128,-1,5
 76 477 76 477 70.5 486.5 c 128,-1,6
 65 496 65 496 62.5 505 c 128,-1,7
 60 514 60 514 58 526 c 128,-1,8
 56 538 56 538 56 551 c 0,9,10
 56 626 56 626 117 674.5 c 128,-1,11
 178 723 178 723 273 723 c 0,12,13
 311 723 311 723 343.5 715.5 c 128,-1,14
 376 708 376 708 407.5 690 c 128,-1,15
 439 672 439 672 459 634.5 c 128,-1,16
 479 597 479 597 481 544 c 1,17,-1
 349 544 l 1,18,19
 338 621 338 621 268 621 c 0,20,21
 238 621 238 621 219.5 607 c 128,-1,22
 201 593 201 593 201 570 c 0,23,24
 201 549 201 549 220.5 531.5 c 128,-1,25
 240 514 240 514 295 485 c 2,26,-1
 427 415 l 2,27,28
 528 361 528 361 528 262 c 0,29,30
 528 212 528 212 505 179.5 c 128,-1,31
 482 147 482 147 430 124 c 1,32,33
 503 75 503 75 503 -10 c 128,-1,34
 503 -95 503 -95 440.5 -148 c 128,-1,35
 378 -201 378 -201 276 -201 c 0,36,37
 59 -201 59 -201 57 0 c 1,38,-1
 193 0 l 1,39,-1
 193 -10 l 2,40,41
 195 -49 195 -49 213.5 -69.5 c 128,-1,42
 232 -90 232 -90 277 -90 c 0,43,44
 312 -90 312 -90 334 -73 c 128,-1,45
 356 -56 356 -56 356 -29 c 0,46,47
 356 -21 356 -21 354 -13.5 c 128,-1,48
 352 -6 352 -6 350.5 -1 c 128,-1,49
 349 4 349 4 342.5 10 c 128,-1,50
 336 16 336 16 333.5 19 c 128,-1,51
 331 22 331 22 322 27.5 c 128,-1,52
 313 33 313 33 310.5 34.5 c 128,-1,53
 308 36 308 36 296.5 42 c 128,-1,54
 285 48 285 48 283 49 c 2,55,-1
 105 149 l 2,56,57
 23 195 23 195 23 281 c 0,58,59
 23 326 23 326 43.5 356.5 c 128,-1,60
 64 387 64 387 119 428 c 1,0,1
339 306 m 2,61,-1
 191 382 l 1,62,63
 147 357 147 357 147 317 c 0,64,65
 147 294 147 294 159 279 c 128,-1,66
 171 264 171 264 202 247 c 2,67,-1
 355 167 l 1,68,69
 403 199 403 199 403 232 c 0,70,71
 403 256 403 256 389.5 271.5 c 128,-1,72
 376 287 376 287 339 306 c 2,61,-1
EndSplineSet
Validated: 1
EndChar

StartChar: dieresis
Encoding: 168 168 139
Width: 348
GlyphClass: 2
Flags: W
LayerCount: 2
Fore
SplineSet
121 743 m 1,0,-1
 121 621 l 1,1,-1
 7 621 l 1,2,-1
 7 743 l 1,3,-1
 121 743 l 1,0,-1
325 743 m 1,4,-1
 325 621 l 1,5,-1
 211 621 l 1,6,-1
 211 743 l 1,7,-1
 325 743 l 1,4,-1
EndSplineSet
Validated: 1
EndChar

StartChar: copyright
Encoding: 169 169 140
Width: 772
GlyphClass: 2
Flags: W
LayerCount: 2
Fore
SplineSet
559 431 m 1,0,-1
 466 431 l 1,1,2
 449 509 449 509 369 509 c 0,3,4
 314 509 314 509 282 469 c 128,-1,5
 250 429 250 429 250 359 c 128,-1,6
 250 289 250 289 281 250 c 128,-1,7
 312 211 312 211 366 211 c 0,8,9
 457 211 457 211 466 297 c 1,10,-1
 561 297 l 1,11,12
 557 218 557 218 504 173 c 128,-1,13
 451 128 451 128 364 128 c 0,14,15
 268 128 268 128 211.5 191 c 128,-1,16
 155 254 155 254 155 360 c 0,17,18
 155 467 155 467 212 529.5 c 128,-1,19
 269 592 269 592 367 592 c 0,20,21
 448 592 448 592 500.5 550 c 128,-1,22
 553 508 553 508 559 431 c 1,0,-1
369 743 m 128,-1,24
 533 743 533 743 649.5 631 c 128,-1,25
 766 519 766 519 766 361 c 0,26,27
 766 201 766 201 649 89.5 c 128,-1,28
 532 -22 532 -22 364 -22 c 0,29,30
 203 -22 203 -22 87 91 c 128,-1,31
 -29 204 -29 204 -29 361 c 0,32,33
 -29 519 -29 519 88 631 c 128,-1,23
 205 743 205 743 369 743 c 128,-1,24
368 671 m 0,34,35
 238 671 238 671 145 580 c 128,-1,36
 52 489 52 489 52 361 c 0,37,38
 52 234 52 234 144.5 142 c 128,-1,39
 237 50 237 50 365 50 c 0,40,41
 499 50 499 50 592 140.5 c 128,-1,42
 685 231 685 231 685 361 c 0,43,44
 685 489 685 489 592 580 c 128,-1,45
 499 671 499 671 368 671 c 0,34,35
EndSplineSet
Validated: 1
EndChar

StartChar: ordfeminine
Encoding: 170 170 141
Width: 386
GlyphClass: 2
Flags: W
LayerCount: 2
Fore
SplineSet
327 340 m 1,0,-1
 327 262 l 1,1,-1
 31 262 l 1,2,-1
 31 340 l 1,3,-1
 327 340 l 1,0,-1
335 410 m 1,4,-1
 335 400 l 1,5,-1
 239 400 l 1,6,7
 230 411 230 411 229 432 c 1,8,9
 184 386 184 386 127 386 c 0,10,11
 81 386 81 386 53 413 c 128,-1,12
 25 440 25 440 25 484 c 0,13,14
 25 571 25 571 124 587 c 2,15,-1
 159 593 l 2,16,17
 162 594 162 594 171.5 595 c 128,-1,18
 181 596 181 596 185.5 597 c 128,-1,19
 190 598 190 598 198.5 600 c 128,-1,20
 207 602 207 602 211 604.5 c 128,-1,21
 215 607 215 607 220 610.5 c 128,-1,22
 225 614 225 614 227 619 c 128,-1,23
 229 624 229 624 229 630 c 0,24,25
 229 661 229 661 178 661 c 0,26,27
 147 661 147 661 133.5 651 c 128,-1,28
 120 641 120 641 117 617 c 1,29,-1
 35 617 l 1,30,31
 38 729 38 729 176 729 c 128,-1,32
 314 729 314 729 314 629 c 2,33,-1
 314 450 l 2,34,35
 314 428 314 428 335 410 c 1,4,-1
229 530 m 2,36,-1
 229 553 l 1,37,38
 217 547 217 547 192 543 c 2,39,-1
 162 537 l 2,40,41
 135 532 135 532 123.5 522 c 128,-1,42
 112 512 112 512 112 493 c 0,43,44
 112 454 112 454 160 454 c 0,45,46
 192 454 192 454 210.5 474 c 128,-1,47
 229 494 229 494 229 530 c 2,36,-1
EndSplineSet
Validated: 1
EndChar

StartChar: guillemotleft
Encoding: 171 171 142
Width: 582
GlyphClass: 2
Flags: W
LayerCount: 2
Fore
SplineSet
80 218 m 1,0,-1
 80 332 l 1,1,-1
 254 481 l 1,2,-1
 254 364 l 1,3,-1
 149 275 l 1,4,-1
 254 186 l 1,5,-1
 254 72 l 1,6,-1
 80 218 l 1,0,-1
302 218 m 1,7,-1
 302 332 l 1,8,-1
 476 481 l 1,9,-1
 476 364 l 1,10,-1
 371 275 l 1,11,-1
 476 186 l 1,12,-1
 476 72 l 1,13,-1
 302 218 l 1,7,-1
EndSplineSet
Validated: 1
EndChar

StartChar: logicalnot
Encoding: 172 172 143
Width: 612
GlyphClass: 2
Flags: W
LayerCount: 2
Fore
SplineSet
29 376 m 1,0,-1
 553 376 l 1,1,-1
 554 86 l 1,2,-1
 430 86 l 1,3,-1
 430 256 l 1,4,-1
 30 256 l 1,5,-1
 29 376 l 1,0,-1
EndSplineSet
Validated: 1
EndChar

StartChar: registered
Encoding: 174 174 145
Width: 772
GlyphClass: 2
Flags: W
LayerCount: 2
Fore
SplineSet
285 313 m 1,0,-1
 285 140 l 1,1,-1
 185 140 l 1,2,-1
 185 583 l 1,3,-1
 432 583 l 2,4,5
 492 583 492 583 525 551 c 128,-1,6
 558 519 558 519 558 462 c 0,7,8
 558 388 558 388 486 354 c 1,9,10
 504 346 504 346 512.5 339.5 c 128,-1,11
 521 333 521 333 528.5 325 c 128,-1,12
 536 317 536 317 538.5 298.5 c 128,-1,13
 541 280 541 280 542.5 259.5 c 128,-1,14
 544 239 544 239 545 195 c 0,15,16
 545 171 545 171 565 161 c 1,17,-1
 565 140 l 1,18,-1
 457 140 l 1,19,20
 443 167 443 167 443 221 c 0,21,22
 443 225 443 225 443.5 233.5 c 128,-1,23
 444 242 444 242 444 247 c 2,24,-1
 444 264 l 2,25,26
 444 313 444 313 380 313 c 2,27,-1
 285 313 l 1,0,-1
285 394 m 1,28,-1
 392 394 l 2,29,30
 429 394 429 394 443.5 405.5 c 128,-1,31
 458 417 458 417 458 448 c 128,-1,32
 458 479 458 479 443.5 490.5 c 128,-1,33
 429 502 429 502 392 502 c 2,34,-1
 285 502 l 1,35,-1
 285 394 l 1,28,-1
369 743 m 128,-1,37
 533 743 533 743 649.5 631 c 128,-1,38
 766 519 766 519 766 361 c 0,39,40
 766 201 766 201 649 89.5 c 128,-1,41
 532 -22 532 -22 364 -22 c 0,42,43
 203 -22 203 -22 87 91 c 128,-1,44
 -29 204 -29 204 -29 361 c 0,45,46
 -29 519 -29 519 88 631 c 128,-1,36
 205 743 205 743 369 743 c 128,-1,37
368 671 m 0,47,48
 238 671 238 671 145 580 c 128,-1,49
 52 489 52 489 52 361 c 0,50,51
 52 234 52 234 144.5 142 c 128,-1,52
 237 50 237 50 365 50 c 0,53,54
 499 50 499 50 592 140.5 c 128,-1,55
 685 231 685 231 685 361 c 0,56,57
 685 489 685 489 592 580 c 128,-1,58
 499 671 499 671 368 671 c 0,47,48
EndSplineSet
Validated: 1
EndChar

StartChar: macron
Encoding: 175 175 146
Width: 348
GlyphClass: 2
Flags: W
LayerCount: 2
Fore
SplineSet
321 719 m 1,0,-1
 321 640 l 1,1,-1
 10 640 l 1,2,-1
 10 719 l 1,3,-1
 321 719 l 1,0,-1
EndSplineSet
Validated: 1
EndChar

StartChar: degree
Encoding: 176 176 147
Width: 636
GlyphClass: 2
Flags: W
LayerCount: 2
Fore
SplineSet
303 686 m 256,0,1
 368 686 368 686 414 641.5 c 128,-1,2
 460 597 460 597 460 535 c 0,3,4
 460 471 460 471 414 427 c 128,-1,5
 368 383 368 383 301 383 c 0,6,7
 238 383 238 383 191.5 428 c 128,-1,8
 145 473 145 473 145 535 c 128,-1,9
 145 597 145 597 191.5 641.5 c 128,-1,10
 238 686 238 686 303 686 c 256,0,1
303 623 m 0,11,12
 265 623 265 623 237.5 597 c 128,-1,13
 210 571 210 571 210 534 c 0,14,15
 210 499 210 499 237.5 472.5 c 128,-1,16
 265 446 265 446 301 446 c 0,17,18
 340 446 340 446 367.5 472 c 128,-1,19
 395 498 395 498 395 535 c 0,20,21
 395 571 395 571 367.5 597 c 128,-1,22
 340 623 340 623 303 623 c 0,11,12
EndSplineSet
Validated: 1
EndChar

StartChar: plusminus
Encoding: 177 177 148
Width: 612
GlyphClass: 2
Flags: W
LayerCount: 2
Fore
SplineSet
536 103 m 1,0,-1
 536 -16 l 1,1,-1
 47 -16 l 1,2,-1
 47 103 l 1,3,-1
 536 103 l 1,0,-1
536 432 m 1,4,-1
 536 313 l 1,5,-1
 353 313 l 1,6,-1
 353 137 l 1,7,-1
 230 137 l 1,8,-1
 230 313 l 1,9,-1
 47 313 l 1,10,-1
 47 432 l 1,11,-1
 230 432 l 1,12,-1
 230 608 l 1,13,-1
 353 608 l 1,14,-1
 353 432 l 1,15,-1
 536 432 l 1,4,-1
EndSplineSet
Validated: 1
EndChar

StartChar: twosuperior
Encoding: 178 178 149
Width: 367
GlyphClass: 2
Flags: W
LayerCount: 2
Fore
SplineSet
334 584 m 0,0,1
 334 542 334 542 313.5 511 c 128,-1,2
 293 480 293 480 266 463 c 128,-1,3
 239 446 239 446 200.5 419 c 128,-1,4
 162 392 162 392 138 365 c 1,5,-1
 332 365 l 1,6,-1
 332 284 l 1,7,-1
 10 284 l 1,8,9
 12 330 12 330 29 366 c 128,-1,10
 46 402 46 402 71 421.5 c 128,-1,11
 96 441 96 441 125 460 c 128,-1,12
 154 479 154 479 178.5 493 c 128,-1,13
 203 507 203 507 219 529 c 128,-1,14
 235 551 235 551 235 580 c 0,15,16
 235 610 235 610 218.5 627 c 128,-1,17
 202 644 202 644 172 644 c 128,-1,18
 142 644 142 644 126 625.5 c 128,-1,19
 110 607 110 607 110 573 c 0,20,21
 110 571 110 571 112 557 c 1,22,-1
 16 557 l 1,23,24
 15 565 15 565 15 575 c 0,25,26
 15 644 15 644 57 681 c 128,-1,27
 99 718 99 718 177 718 c 0,28,29
 253 718 253 718 293.5 683.5 c 128,-1,30
 334 649 334 649 334 584 c 0,0,1
EndSplineSet
Validated: 1
EndChar

StartChar: threesuperior
Encoding: 179 179 150
Width: 367
GlyphClass: 2
Flags: W
LayerCount: 2
Fore
SplineSet
16 571 m 1,0,1
 22 718 22 718 170 718 c 0,2,3
 239 718 239 718 280 686 c 128,-1,4
 321 654 321 654 321 601 c 0,5,6
 321 544 321 544 267 512 c 1,7,8
 335 480 335 480 335 409 c 0,9,10
 335 346 335 346 290 308.5 c 128,-1,11
 245 271 245 271 170 271 c 0,12,13
 94 271 94 271 52 308.5 c 128,-1,14
 10 346 10 346 9 414 c 1,15,-1
 104 414 l 1,16,17
 109 348 109 348 172 348 c 0,18,19
 200 348 200 348 218 365 c 128,-1,20
 236 382 236 382 236 408 c 0,21,22
 236 469 236 469 149 471 c 2,23,-1
 132 471 l 1,24,-1
 132 533 l 1,25,-1
 144 533 l 2,26,27
 222 533 222 533 222 591 c 0,28,29
 222 616 222 616 207 630.5 c 128,-1,30
 192 645 192 645 167 645 c 0,31,32
 132 645 132 645 120 626 c 128,-1,33
 108 607 108 607 108 571 c 1,34,-1
 16 571 l 1,0,1
EndSplineSet
Validated: 1
EndChar

StartChar: acute
Encoding: 180 180 151
Width: 346
GlyphClass: 2
Flags: W
LayerCount: 2
Fore
SplineSet
321 757 m 1,0,-1
 190 607 l 1,1,-1
 117 607 l 1,2,-1
 190 757 l 1,3,-1
 321 757 l 1,0,-1
EndSplineSet
Validated: 1
EndChar

StartChar: micro
Encoding: 181 181 152
Width: 640
GlyphClass: 2
Flags: W
LayerCount: 2
Fore
SplineSet
193 206 m 2,0,1
 193 96 193 96 281 96 c 0,2,3
 326 96 326 96 356 126 c 128,-1,4
 386 156 386 156 386 202 c 2,5,-1
 386 540 l 1,6,-1
 531 540 l 1,7,-1
 531 150 l 2,8,9
 531 106 531 106 537.5 91.5 c 128,-1,10
 544 77 544 77 562 77 c 0,11,12
 570 77 570 77 583 81 c 1,13,-1
 583 -6 l 1,14,15
 549 -23 549 -23 510 -23 c 0,16,17
 474 -23 474 -23 452 -11 c 128,-1,18
 430 1 430 1 412 31 c 1,19,20
 382 1 382 1 354.5 -11 c 128,-1,21
 327 -23 327 -23 291 -23 c 0,22,23
 228 -23 228 -23 187 15 c 1,24,-1
 187 -220 l 1,25,-1
 48 -220 l 1,26,-1
 48 540 l 1,27,-1
 193 540 l 1,28,-1
 193 206 l 2,0,1
EndSplineSet
Validated: 1
EndChar

StartChar: paragraph
Encoding: 182 182 153
Width: 582
GlyphClass: 2
Flags: W
LayerCount: 2
Fore
SplineSet
9 495 m 0,0,1
 9 594 9 594 71 661.5 c 128,-1,2
 133 729 133 729 224 729 c 2,3,-1
 539 729 l 1,4,-1
 539 657 l 1,5,-1
 494 657 l 1,6,-1
 494 -191 l 1,7,-1
 393 -191 l 1,8,-1
 393 657 l 1,9,-1
 327 657 l 1,10,-1
 327 -191 l 1,11,-1
 225 -191 l 1,12,-1
 225 267 l 1,13,14
 129 271 129 271 69 335 c 128,-1,15
 9 399 9 399 9 495 c 0,0,1
EndSplineSet
Validated: 1
EndChar

StartChar: periodcentered
Encoding: 183 183 154
Width: 290
GlyphClass: 2
Flags: W
LayerCount: 2
Fore
SplineSet
62 292 m 1,0,-1
 190 292 l 1,1,-1
 190 169 l 1,2,-1
 62 169 l 1,3,-1
 62 292 l 1,0,-1
EndSplineSet
Validated: 1
EndChar

StartChar: cedilla
Encoding: 184 184 155
Width: 348
GlyphClass: 2
Flags: W
LayerCount: 2
Fore
SplineSet
162 0 m 1,0,-1
 207 0 l 1,1,-1
 177 -63 l 1,2,3
 198 -56 198 -56 220 -56 c 0,4,5
 257 -56 257 -56 278 -75 c 128,-1,6
 299 -94 299 -94 299 -127 c 0,7,8
 299 -172 299 -172 264.5 -196 c 128,-1,9
 230 -220 230 -220 165 -220 c 0,10,11
 108 -220 108 -220 22 -192 c 1,12,-1
 41 -140 l 1,13,14
 113 -170 113 -170 151 -170 c 0,15,16
 176 -170 176 -170 193 -158 c 128,-1,17
 210 -146 210 -146 210 -129 c 0,18,19
 210 -113 210 -113 195.5 -103.5 c 128,-1,20
 181 -94 181 -94 157 -94 c 0,21,22
 132 -94 132 -94 106 -106 c 1,23,-1
 162 0 l 1,0,-1
EndSplineSet
Validated: 1
EndChar

StartChar: onesuperior
Encoding: 185 185 156
Width: 315
GlyphClass: 2
Flags: W
LayerCount: 2
Fore
SplineSet
147 573 m 1,0,-1
 36 573 l 1,1,-1
 36 634 l 1,2,3
 158 634 158 634 179 709 c 1,4,-1
 246 709 l 1,5,-1
 246 284 l 1,6,-1
 147 284 l 1,7,-1
 147 573 l 1,0,-1
EndSplineSet
Validated: 1
EndChar

StartChar: ordmasculine
Encoding: 186 186 157
Width: 381
GlyphClass: 2
Flags: W
LayerCount: 2
Fore
SplineSet
340 340 m 1,0,-1
 340 262 l 1,1,-1
 27 262 l 1,2,-1
 27 340 l 1,3,-1
 340 340 l 1,0,-1
183 729 m 0,4,5
 262 729 262 729 305.5 683 c 128,-1,6
 349 637 349 637 349 555 c 0,7,8
 349 477 349 477 304.5 431.5 c 128,-1,9
 260 386 260 386 183 386 c 128,-1,10
 106 386 106 386 61.5 432 c 128,-1,11
 17 478 17 478 17 557 c 0,12,13
 17 637 17 637 61.5 683 c 128,-1,14
 106 729 106 729 183 729 c 0,4,5
183 661 m 128,-1,16
 148 661 148 661 126 632.5 c 128,-1,17
 104 604 104 604 104 558 c 128,-1,18
 104 512 104 512 126 483 c 128,-1,19
 148 454 148 454 183 454 c 128,-1,20
 218 454 218 454 240 482.5 c 128,-1,21
 262 511 262 511 262 556 c 0,22,23
 262 603 262 603 240 632 c 128,-1,15
 218 661 218 661 183 661 c 128,-1,16
EndSplineSet
Validated: 1
EndChar

StartChar: guillemotright
Encoding: 187 187 158
Width: 582
GlyphClass: 2
Flags: W
LayerCount: 2
Fore
SplineSet
254 335 m 1,0,-1
 254 220 l 1,1,-1
 81 72 l 1,2,-1
 81 189 l 1,3,-1
 186 278 l 1,4,-1
 81 367 l 1,5,-1
 81 481 l 1,6,-1
 254 335 l 1,0,-1
469 335 m 1,7,-1
 469 220 l 1,8,-1
 296 72 l 1,9,-1
 296 189 l 1,10,-1
 401 278 l 1,11,-1
 296 367 l 1,12,-1
 296 481 l 1,13,-1
 469 335 l 1,7,-1
EndSplineSet
Validated: 1
EndChar

StartChar: onequarter
Encoding: 188 188 159
Width: 910
GlyphClass: 2
Flags: W
LayerCount: 2
Fore
SplineSet
135 573 m 1,0,-1
 24 573 l 1,1,-1
 24 634 l 1,2,3
 145 634 145 634 167 709 c 1,4,-1
 234 709 l 1,5,-1
 234 284 l 1,6,-1
 135 284 l 1,7,-1
 135 573 l 1,0,-1
599 715 m 1,8,-1
 689 715 l 1,9,-1
 249 -20 l 1,10,-1
 159 -20 l 1,11,-1
 599 715 l 1,8,-1
866 168 m 1,12,-1
 866 93 l 1,13,-1
 818 93 l 1,14,-1
 818 0 l 1,15,-1
 720 0 l 1,16,-1
 720 93 l 1,17,-1
 533 93 l 1,18,-1
 533 167 l 1,19,-1
 705 425 l 1,20,-1
 818 425 l 1,21,-1
 818 168 l 1,22,-1
 866 168 l 1,12,-1
720 168 m 1,23,-1
 720 332 l 1,24,-1
 609 168 l 1,25,-1
 720 168 l 1,23,-1
EndSplineSet
Validated: 1
EndChar

StartChar: onehalf
Encoding: 189 189 160
Width: 911
GlyphClass: 2
Flags: W
LayerCount: 2
Fore
SplineSet
135 573 m 1,0,-1
 24 573 l 1,1,-1
 24 634 l 1,2,3
 146 634 146 634 167 709 c 1,4,-1
 234 709 l 1,5,-1
 234 284 l 1,6,-1
 135 284 l 1,7,-1
 135 573 l 1,0,-1
593 715 m 1,8,-1
 683 715 l 1,9,-1
 243 -20 l 1,10,-1
 153 -20 l 1,11,-1
 593 715 l 1,8,-1
862 300 m 0,12,13
 862 258 862 258 841.5 227 c 128,-1,14
 821 196 821 196 793.5 179 c 128,-1,15
 766 162 766 162 727.5 135 c 128,-1,16
 689 108 689 108 666 81 c 1,17,-1
 860 81 l 1,18,-1
 860 0 l 1,19,-1
 538 0 l 1,20,21
 540 46 540 46 557 82 c 128,-1,22
 574 118 574 118 599 137.5 c 128,-1,23
 624 157 624 157 653 176 c 128,-1,24
 682 195 682 195 706.5 209 c 128,-1,25
 731 223 731 223 747 245 c 128,-1,26
 763 267 763 267 763 296 c 0,27,28
 763 326 763 326 746.5 343 c 128,-1,29
 730 360 730 360 700 360 c 128,-1,30
 670 360 670 360 653.5 341.5 c 128,-1,31
 637 323 637 323 637 289 c 0,32,33
 637 287 637 287 640 273 c 1,34,-1
 544 273 l 1,35,36
 543 281 543 281 543 291 c 0,37,38
 543 360 543 360 585 397 c 128,-1,39
 627 434 627 434 705 434 c 0,40,41
 781 434 781 434 821.5 399.5 c 128,-1,42
 862 365 862 365 862 300 c 0,12,13
EndSplineSet
Validated: 1
EndChar

StartChar: threequarters
Encoding: 190 190 161
Width: 911
GlyphClass: 2
Flags: W
LayerCount: 2
Fore
SplineSet
6 571 m 1,0,1
 12 718 12 718 160 718 c 0,2,3
 228 718 228 718 269 686 c 128,-1,4
 310 654 310 654 310 601 c 0,5,6
 310 544 310 544 256 512 c 1,7,8
 325 480 325 480 325 409 c 0,9,10
 325 346 325 346 279.5 308.5 c 128,-1,11
 234 271 234 271 160 271 c 0,12,13
 84 271 84 271 41.5 308.5 c 128,-1,14
 -1 346 -1 346 -2 414 c 1,15,-1
 94 414 l 1,16,17
 98 348 98 348 162 348 c 0,18,19
 190 348 190 348 208 365 c 128,-1,20
 226 382 226 382 226 408 c 0,21,22
 226 469 226 469 139 471 c 2,23,-1
 122 471 l 1,24,-1
 122 533 l 1,25,-1
 134 533 l 2,26,27
 212 533 212 533 212 591 c 0,28,29
 212 616 212 616 196.5 630.5 c 128,-1,30
 181 645 181 645 156 645 c 0,31,32
 122 645 122 645 109.5 626 c 128,-1,33
 97 607 97 607 97 571 c 1,34,-1
 6 571 l 1,0,1
633 715 m 1,35,-1
 723 715 l 1,36,-1
 283 -20 l 1,37,-1
 193 -20 l 1,38,-1
 633 715 l 1,35,-1
867 168 m 1,39,-1
 867 93 l 1,40,-1
 819 93 l 1,41,-1
 819 0 l 1,42,-1
 720 0 l 1,43,-1
 720 93 l 1,44,-1
 534 93 l 1,45,-1
 534 167 l 1,46,-1
 706 425 l 1,47,-1
 819 425 l 1,48,-1
 819 168 l 1,49,-1
 867 168 l 1,39,-1
720 168 m 1,50,-1
 720 332 l 1,51,-1
 610 168 l 1,52,-1
 720 168 l 1,50,-1
EndSplineSet
Validated: 1
EndChar

StartChar: Acircumflex
Encoding: 194 194 165
Width: 757
GlyphClass: 3
Flags: W
LayerCount: 2
Fore
SplineSet
310 936 m 1,0,-1
 421 936 l 1,1,-1
 528 786 l 1,2,-1
 447 786 l 1,3,-1
 362 886 l 1,4,-1
 277 786 l 1,5,-1
 198 786 l 1,6,-1
 310 936 l 1,0,-1
506 147 m 1,7,-1
 223 147 l 1,8,-1
 172 0 l 1,9,-1
 12 0 l 1,10,-1
 282 729 l 1,11,-1
 454 729 l 1,12,-1
 717 0 l 1,13,-1
 556 0 l 1,14,-1
 506 147 l 1,7,-1
464 272 m 1,15,-1
 365 557 l 1,16,-1
 266 272 l 1,17,-1
 464 272 l 1,15,-1
EndSplineSet
Validated: 1
EndChar

StartChar: Atilde
Encoding: 195 195 166
Width: 757
GlyphClass: 2
Flags: W
LayerCount: 2
Fore
SplineSet
489 928 m 1,0,-1
 554 928 l 1,1,2
 548 801 548 801 456 801 c 0,3,4
 431 801 431 801 398 813 c 2,5,-1
 324 839 l 2,6,7
 306 845 306 845 293 845 c 0,8,9
 275 845 275 845 265.5 834.5 c 128,-1,10
 256 824 256 824 252 800 c 1,11,-1
 186 800 l 1,12,13
 189 858 189 858 215 891 c 128,-1,14
 241 924 241 924 284 924 c 0,15,16
 305 924 305 924 342 911 c 2,17,-1
 416 886 l 2,18,19
 431 880 431 880 451 880 c 0,20,21
 485 880 485 880 489 928 c 1,0,-1
506 147 m 1,22,-1
 223 147 l 1,23,-1
 172 0 l 1,24,-1
 12 0 l 1,25,-1
 282 729 l 1,26,-1
 454 729 l 1,27,-1
 717 0 l 1,28,-1
 556 0 l 1,29,-1
 506 147 l 1,22,-1
464 272 m 1,30,-1
 365 557 l 1,31,-1
 266 272 l 1,32,-1
 464 272 l 1,30,-1
EndSplineSet
Validated: 1
EndChar

StartChar: Aring
Encoding: 197 197 168
Width: 757
GlyphClass: 2
Flags: W
LayerCount: 2
Fore
SplineSet
364 949 m 0,0,1
 402 949 402 949 429.5 922.5 c 128,-1,2
 457 896 457 896 457 858 c 0,3,4
 457 821 457 821 429 795 c 128,-1,5
 401 769 401 769 362.5 769 c 128,-1,6
 324 769 324 769 296.5 795 c 128,-1,7
 269 821 269 821 269 859 c 128,-1,8
 269 897 269 897 296.5 923 c 128,-1,9
 324 949 324 949 364 949 c 0,0,1
364 901 m 0,10,11
 345 901 345 901 332 888.5 c 128,-1,12
 319 876 319 876 319 859 c 128,-1,13
 319 842 319 842 332 829.5 c 128,-1,14
 345 817 345 817 364 817 c 0,15,16
 382 817 382 817 394.5 829.5 c 128,-1,17
 407 842 407 842 407 859 c 128,-1,18
 407 876 407 876 394.5 888.5 c 128,-1,19
 382 901 382 901 364 901 c 0,10,11
506 147 m 1,20,-1
 223 147 l 1,21,-1
 172 0 l 1,22,-1
 12 0 l 1,23,-1
 282 729 l 1,24,-1
 454 729 l 1,25,-1
 717 0 l 1,26,-1
 556 0 l 1,27,-1
 506 147 l 1,20,-1
464 272 m 1,28,-1
 365 557 l 1,29,-1
 266 272 l 1,30,-1
 464 272 l 1,28,-1
EndSplineSet
Validated: 1
EndChar

StartChar: AE
Encoding: 198 198 169
Width: 1050
GlyphClass: 2
Flags: W
LayerCount: 2
Fore
SplineSet
428 152 m 1,0,-1
 196 152 l 1,1,-1
 141 0 l 1,2,-1
 -18 0 l 1,3,-1
 255 729 l 1,4,-1
 964 729 l 1,5,-1
 964 604 l 1,6,-1
 584 604 l 1,7,-1
 584 439 l 1,8,-1
 936 439 l 1,9,-1
 936 314 l 1,10,-1
 584 314 l 1,11,-1
 584 125 l 1,12,-1
 985 125 l 1,13,-1
 985 0 l 1,14,-1
 428 0 l 1,15,-1
 428 152 l 1,0,-1
428 277 m 1,16,-1
 428 604 l 1,17,-1
 358 604 l 1,18,-1
 240 277 l 1,19,-1
 428 277 l 1,16,-1
EndSplineSet
Validated: 1
EndChar

StartChar: Ccedilla
Encoding: 199 199 170
Width: 757
GlyphClass: 2
Flags: W
LayerCount: 2
Fore
SplineSet
546 482 m 1,0,1
 517 613 517 613 384 613 c 0,2,3
 291 613 291 613 239 545 c 128,-1,4
 187 477 187 477 187 356 c 0,5,6
 187 237 187 237 237.5 170 c 128,-1,7
 288 103 288 103 379 103 c 0,8,9
 451 103 451 103 495 141 c 128,-1,10
 539 179 539 179 546 249 c 1,11,-1
 698 249 l 1,12,13
 692 125 692 125 607 52.5 c 128,-1,14
 522 -20 522 -20 380 -23 c 1,15,-1
 360 -63 l 1,16,17
 381 -56 381 -56 404 -56 c 0,18,19
 440 -56 440 -56 461.5 -75 c 128,-1,20
 483 -94 483 -94 483 -127 c 0,21,22
 483 -172 483 -172 448 -196 c 128,-1,23
 413 -220 413 -220 348 -220 c 0,24,25
 291 -220 291 -220 205 -192 c 1,26,-1
 225 -140 l 1,27,28
 296 -170 296 -170 334 -170 c 0,29,30
 359 -170 359 -170 376 -158 c 128,-1,31
 393 -146 393 -146 393 -129 c 0,32,33
 393 -113 393 -113 378.5 -103.5 c 128,-1,34
 364 -94 364 -94 340 -94 c 0,35,36
 315 -94 315 -94 289 -106 c 1,37,-1
 334 -23 l 1,38,39
 262 -11 262 -11 223 5.5 c 128,-1,40
 184 22 184 22 147 56 c 0,41,42
 31 162 31 162 31 358 c 0,43,44
 31 535 31 535 124.5 638 c 128,-1,45
 218 741 218 741 379 741 c 0,46,47
 513 741 513 741 598.5 672 c 128,-1,48
 684 603 684 603 695 482 c 1,49,-1
 546 482 l 1,0,1
EndSplineSet
Validated: 1
EndChar

StartChar: Ecircumflex
Encoding: 202 202 173
Width: 697
GlyphClass: 3
Flags: W
LayerCount: 2
Fore
SplineSet
292 936 m 1,0,-1
 403 936 l 1,1,-1
 510 786 l 1,2,-1
 429 786 l 1,3,-1
 344 886 l 1,4,-1
 258 786 l 1,5,-1
 179 786 l 1,6,-1
 292 936 l 1,0,-1
224 314 m 1,7,-1
 224 125 l 1,8,-1
 635 125 l 1,9,-1
 635 0 l 1,10,-1
 68 0 l 1,11,-1
 68 729 l 1,12,-1
 616 729 l 1,13,-1
 616 604 l 1,14,-1
 224 604 l 1,15,-1
 224 439 l 1,16,-1
 587 439 l 1,17,-1
 587 314 l 1,18,-1
 224 314 l 1,7,-1
EndSplineSet
Validated: 1
EndChar

StartChar: Icircumflex
Encoding: 206 206 177
Width: 289
GlyphClass: 3
Flags: W
LayerCount: 2
Fore
SplineSet
87 936 m 1,0,-1
 198 936 l 1,1,-1
 305 786 l 1,2,-1
 224 786 l 1,3,-1
 139 886 l 1,4,-1
 54 786 l 1,5,-1
 -25 786 l 1,6,-1
 87 936 l 1,0,-1
216 729 m 1,7,-1
 216 0 l 1,8,-1
 60 0 l 1,9,-1
 60 729 l 1,10,-1
 216 729 l 1,7,-1
EndSplineSet
Validated: 1
EndChar

StartChar: Eth
Encoding: 208 208 179
Width: 758
GlyphClass: 2
Flags: W
LayerCount: 2
Fore
SplineSet
66 339 m 1,0,-1
 -14 339 l 1,1,-1
 -14 419 l 1,2,-1
 66 419 l 1,3,-1
 66 729 l 1,4,-1
 363 729 l 2,5,6
 453 729 453 729 509.5 709.5 c 128,-1,7
 566 690 566 690 603 645 c 0,8,9
 647 594 647 594 671 520 c 128,-1,10
 695 446 695 446 695 365 c 128,-1,11
 695 284 695 284 670.5 210.5 c 128,-1,12
 646 137 646 137 603 85 c 0,13,14
 566 40 566 40 509 20 c 128,-1,15
 452 0 452 0 363 0 c 2,16,-1
 66 0 l 1,17,-1
 66 339 l 1,0,-1
545 364 m 0,18,19
 545 493 545 493 498 548.5 c 128,-1,20
 451 604 451 604 363 604 c 2,21,-1
 222 604 l 1,22,-1
 222 419 l 1,23,-1
 378 419 l 1,24,-1
 378 339 l 1,25,-1
 222 339 l 1,26,-1
 222 125 l 1,27,-1
 363 125 l 2,28,29
 448 125 448 125 496.5 178 c 128,-1,30
 545 231 545 231 545 364 c 0,18,19
EndSplineSet
Validated: 1
EndChar

StartChar: Ntilde
Encoding: 209 209 180
Width: 757
GlyphClass: 2
Flags: W
LayerCount: 2
Fore
SplineSet
489 928 m 1,0,-1
 554 928 l 1,1,2
 548 801 548 801 456 801 c 0,3,4
 431 801 431 801 398 813 c 2,5,-1
 324 839 l 2,6,7
 306 845 306 845 293 845 c 0,8,9
 275 845 275 845 265.5 834.5 c 128,-1,10
 256 824 256 824 252 800 c 1,11,-1
 186 800 l 1,12,13
 189 858 189 858 215 891 c 128,-1,14
 241 924 241 924 284 924 c 0,15,16
 305 924 305 924 342 911 c 2,17,-1
 416 886 l 2,18,19
 431 880 431 880 451 880 c 0,20,21
 485 880 485 880 489 928 c 1,0,-1
517 0 m 1,22,-1
 212 504 l 1,23,-1
 212 0 l 1,24,-1
 56 0 l 1,25,-1
 56 729 l 1,26,-1
 216 729 l 1,27,-1
 517 233 l 1,28,-1
 517 729 l 1,29,-1
 673 729 l 1,30,-1
 673 0 l 1,31,-1
 517 0 l 1,22,-1
EndSplineSet
Validated: 1
EndChar

StartChar: Ocircumflex
Encoding: 212 212 183
Width: 816
GlyphClass: 3
Flags: W
LayerCount: 2
Fore
SplineSet
338 936 m 1,0,-1
 449 936 l 1,1,-1
 556 786 l 1,2,-1
 475 786 l 1,3,-1
 390 886 l 1,4,-1
 305 786 l 1,5,-1
 226 786 l 1,6,-1
 338 936 l 1,0,-1
26 359 m 128,-1,8
 26 527 26 527 126.5 634 c 128,-1,9
 227 741 227 741 390 741 c 0,10,11
 554 741 554 741 655 634.5 c 128,-1,12
 756 528 756 528 756 354 c 0,13,14
 756 192 756 192 656.5 84.5 c 128,-1,15
 557 -23 557 -23 391 -23 c 0,16,17
 226 -23 226 -23 126 84 c 128,-1,7
 26 191 26 191 26 359 c 128,-1,8
391 613 m 0,18,19
 296 613 296 613 239 543.5 c 128,-1,20
 182 474 182 474 182 359 c 128,-1,21
 182 244 182 244 239 174.5 c 128,-1,22
 296 105 296 105 391 105 c 0,23,24
 485 105 485 105 542.5 174 c 128,-1,25
 600 243 600 243 600 355 c 0,26,27
 600 473 600 473 543.5 543 c 128,-1,28
 487 613 487 613 391 613 c 0,18,19
EndSplineSet
Validated: 1
EndChar

StartChar: Otilde
Encoding: 213 213 184
Width: 816
GlyphClass: 2
Flags: W
LayerCount: 2
Fore
SplineSet
517 928 m 1,0,-1
 582 928 l 1,1,2
 576 801 576 801 484 801 c 0,3,4
 459 801 459 801 426 813 c 2,5,-1
 353 839 l 2,6,7
 334 845 334 845 321 845 c 0,8,9
 303 845 303 845 293.5 834.5 c 128,-1,10
 284 824 284 824 280 800 c 1,11,-1
 214 800 l 1,12,13
 217 858 217 858 243 891 c 128,-1,14
 269 924 269 924 312 924 c 0,15,16
 333 924 333 924 370 911 c 2,17,-1
 444 886 l 2,18,19
 459 880 459 880 479 880 c 0,20,21
 513 880 513 880 517 928 c 1,0,-1
26 359 m 128,-1,23
 26 527 26 527 126.5 634 c 128,-1,24
 227 741 227 741 390 741 c 0,25,26
 554 741 554 741 655 634.5 c 128,-1,27
 756 528 756 528 756 354 c 0,28,29
 756 192 756 192 656.5 84.5 c 128,-1,30
 557 -23 557 -23 391 -23 c 0,31,32
 226 -23 226 -23 126 84 c 128,-1,22
 26 191 26 191 26 359 c 128,-1,23
391 613 m 0,33,34
 296 613 296 613 239 543.5 c 128,-1,35
 182 474 182 474 182 359 c 128,-1,36
 182 244 182 244 239 174.5 c 128,-1,37
 296 105 296 105 391 105 c 0,38,39
 485 105 485 105 542.5 174 c 128,-1,40
 600 243 600 243 600 355 c 0,41,42
 600 473 600 473 543.5 543 c 128,-1,43
 487 613 487 613 391 613 c 0,33,34
EndSplineSet
Validated: 1
EndChar

StartChar: multiply
Encoding: 215 215 186
Width: 612
GlyphClass: 2
Flags: W
LayerCount: 2
Fore
SplineSet
426 444 m 1,0,-1
 514 360 l 1,1,-1
 379 231 l 1,2,-1
 512 102 l 1,3,-1
 425 18 l 1,4,-1
 292 147 l 1,5,-1
 159 19 l 1,6,-1
 72 103 l 1,7,-1
 205 231 l 1,8,-1
 70 359 l 1,9,-1
 158 444 l 1,10,-1
 292 315 l 1,11,-1
 426 444 l 1,0,-1
EndSplineSet
Validated: 1
EndChar

StartChar: Oslash
Encoding: 216 216 187
Width: 816
GlyphClass: 2
Flags: W
LayerCount: 2
Fore
SplineSet
754 357 m 0,0,1
 754 194 754 194 654 85.5 c 128,-1,2
 554 -23 554 -23 388 -23 c 0,3,4
 246 -23 246 -23 156 52 c 1,5,-1
 70 -39 l 1,6,-1
 17 7 l 1,7,-1
 106 102 l 1,8,9
 21 212 21 212 21 359 c 0,10,11
 21 526 21 526 121.5 633.5 c 128,-1,12
 222 741 222 741 388 741 c 0,13,14
 530 741 530 741 629 657 c 1,15,-1
 715 749 l 1,16,-1
 769 704 l 1,17,-1
 677 605 l 1,18,19
 754 504 754 504 754 357 c 0,0,1
574 497 m 1,20,-1
 251 153 l 1,21,22
 303 105 303 105 388 105 c 0,23,24
 483 105 483 105 540.5 175 c 128,-1,25
 598 245 598 245 598 361 c 0,26,27
 598 436 598 436 574 497 c 1,20,-1
207 209 m 1,28,-1
 533 555 l 1,29,30
 476 613 476 613 388 613 c 0,31,32
 291 613 291 613 234 543 c 128,-1,33
 177 473 177 473 177 356 c 0,34,35
 177 273 177 273 207 209 c 1,28,-1
EndSplineSet
Validated: 1
EndChar

StartChar: Ucircumflex
Encoding: 219 219 190
Width: 757
GlyphClass: 3
Flags: W
LayerCount: 2
Fore
SplineSet
312 936 m 1,0,-1
 423 936 l 1,1,-1
 530 786 l 1,2,-1
 449 786 l 1,3,-1
 364 886 l 1,4,-1
 279 786 l 1,5,-1
 200 786 l 1,6,-1
 312 936 l 1,0,-1
365 -23 m 128,-1,8
 323 -23 323 -23 284 -16 c 128,-1,9
 245 -9 245 -9 204 9 c 128,-1,10
 163 27 163 27 133 55 c 128,-1,11
 103 83 103 83 83.5 129.5 c 128,-1,12
 64 176 64 176 64 235 c 2,13,-1
 64 729 l 1,14,-1
 220 729 l 1,15,-1
 220 235 l 2,16,17
 220 105 220 105 365 105 c 128,-1,18
 510 105 510 105 510 235 c 2,19,-1
 510 729 l 1,20,-1
 666 729 l 1,21,-1
 666 235 l 2,22,23
 666 176 666 176 646.5 129.5 c 128,-1,24
 627 83 627 83 597 55 c 128,-1,25
 567 27 567 27 526 9 c 128,-1,26
 485 -9 485 -9 446 -16 c 128,-1,7
 407 -23 407 -23 365 -23 c 128,-1,8
EndSplineSet
Validated: 1
EndChar

StartChar: Thorn
Encoding: 222 222 193
Width: 697
GlyphClass: 2
Flags: W
LayerCount: 2
Fore
SplineSet
400 609 m 2,0,1
 644 609 644 609 644 382 c 0,2,3
 644 270 644 270 582 205 c 128,-1,4
 520 140 520 140 415 140 c 2,5,-1
 221 140 l 1,6,-1
 221 0 l 1,7,-1
 65 0 l 1,8,-1
 65 729 l 1,9,-1
 221 729 l 1,10,-1
 221 609 l 1,11,-1
 400 609 l 2,0,1
221 265 m 1,12,-1
 366 265 l 2,13,14
 488 265 488 265 488 374 c 0,15,16
 488 430 488 430 458.5 457 c 128,-1,17
 429 484 429 484 366 484 c 2,18,-1
 221 484 l 1,19,-1
 221 265 l 1,12,-1
EndSplineSet
Validated: 1
EndChar

StartChar: germandbls
Encoding: 223 223 194
Width: 640
GlyphClass: 2
Flags: W
LayerCount: 2
Fore
SplineSet
450 411 m 1,0,1
 469 407 469 407 487 399.5 c 128,-1,2
 505 392 505 392 530 374 c 128,-1,3
 555 356 555 356 570 320.5 c 128,-1,4
 585 285 585 285 585 236 c 0,5,6
 585 122 585 122 522.5 52.5 c 128,-1,7
 460 -17 460 -17 358 -17 c 0,8,9
 335 -17 335 -17 284 -11 c 1,10,-1
 284 101 l 1,11,12
 290 102 290 102 297 102 c 2,13,-1
 318 103 l 2,14,15
 372 104 372 104 406 138.5 c 128,-1,16
 440 173 440 173 440 226 c 0,17,18
 440 283 440 283 402 316 c 128,-1,19
 364 349 364 349 297 349 c 2,20,-1
 284 349 l 1,21,-1
 284 444 l 1,22,-1
 293 444 l 2,23,24
 340 445 340 445 367.5 469 c 128,-1,25
 395 493 395 493 395 533 c 0,26,27
 395 572 395 572 368 594 c 128,-1,28
 341 616 341 616 293 616 c 0,29,30
 250 616 250 616 226 595 c 128,-1,31
 202 574 202 574 202 537 c 2,32,-1
 202 0 l 1,33,-1
 57 0 l 1,34,-1
 57 518 l 2,35,36
 57 614 57 614 111.5 671.5 c 128,-1,37
 166 729 166 729 302 729 c 0,38,39
 407 729 407 729 473.5 678 c 128,-1,40
 540 627 540 627 540 547 c 0,41,42
 540 445 540 445 450 411 c 1,0,1
EndSplineSet
Validated: 1
EndChar

StartChar: acircumflex
Encoding: 226 226 197
Width: 582
GlyphClass: 3
Flags: W
LayerCount: 2
Fore
SplineSet
219 757 m 1,0,-1
 330 757 l 1,1,-1
 437 607 l 1,2,-1
 356 607 l 1,3,-1
 271 707 l 1,4,-1
 186 607 l 1,5,-1
 106 607 l 1,6,-1
 219 757 l 1,0,-1
189 -23 m 0,7,8
 112 -23 112 -23 65 21.5 c 128,-1,9
 18 66 18 66 18 139 c 0,10,11
 18 282 18 282 183 309 c 2,12,-1
 242 319 l 2,13,14
 244 319 244 319 262.5 321.5 c 128,-1,15
 281 324 281 324 286.5 325.5 c 128,-1,16
 292 327 292 327 307 330 c 128,-1,17
 322 333 322 333 328 337 c 128,-1,18
 334 341 334 341 343 347.5 c 128,-1,19
 352 354 352 354 355 362.5 c 128,-1,20
 358 371 358 371 358 382 c 0,21,22
 358 436 358 436 274 436 c 0,23,24
 220 436 220 436 198 420 c 128,-1,25
 176 404 176 404 171 362 c 1,26,-1
 31 362 l 1,27,28
 44 549 44 549 271 549 c 0,29,30
 501 549 501 549 501 383 c 2,31,-1
 501 83 l 2,32,33
 501 46 501 46 534 17 c 1,34,-1
 534 0 l 1,35,-1
 376 0 l 1,36,37
 359 20 359 20 359 54 c 1,38,39
 282 -23 282 -23 189 -23 c 0,7,8
358 217 m 2,40,-1
 358 255 l 1,41,42
 338 246 338 246 297 238 c 2,43,-1
 247 229 l 2,44,45
 201 220 201 220 182.5 203 c 128,-1,46
 164 186 164 186 164 155 c 0,47,48
 164 125 164 125 185 107.5 c 128,-1,49
 206 90 206 90 243 90 c 0,50,51
 298 90 298 90 328 123 c 128,-1,52
 358 156 358 156 358 217 c 2,40,-1
EndSplineSet
Validated: 1
EndChar

StartChar: atilde
Encoding: 227 227 198
Width: 582
GlyphClass: 2
Flags: W
LayerCount: 2
Fore
SplineSet
390 749 m 1,0,-1
 456 749 l 1,1,2
 450 622 450 622 357 622 c 0,3,4
 332 622 332 622 300 634 c 2,5,-1
 226 660 l 2,6,7
 207 666 207 666 195 666 c 0,8,9
 176 666 176 666 166.5 655.5 c 128,-1,10
 157 645 157 645 153 621 c 1,11,-1
 88 621 l 1,12,13
 91 679 91 679 117 712 c 128,-1,14
 143 745 143 745 186 745 c 0,15,16
 206 745 206 745 244 732 c 2,17,-1
 318 707 l 2,18,19
 332 701 332 701 353 701 c 0,20,21
 386 701 386 701 390 749 c 1,0,-1
189 -23 m 0,22,23
 112 -23 112 -23 65 21.5 c 128,-1,24
 18 66 18 66 18 139 c 0,25,26
 18 282 18 282 183 309 c 2,27,-1
 242 319 l 2,28,29
 244 319 244 319 262.5 321.5 c 128,-1,30
 281 324 281 324 286.5 325.5 c 128,-1,31
 292 327 292 327 307 330 c 128,-1,32
 322 333 322 333 328 337 c 128,-1,33
 334 341 334 341 343 347.5 c 128,-1,34
 352 354 352 354 355 362.5 c 128,-1,35
 358 371 358 371 358 382 c 0,36,37
 358 436 358 436 274 436 c 0,38,39
 220 436 220 436 198 420 c 128,-1,40
 176 404 176 404 171 362 c 1,41,-1
 31 362 l 1,42,43
 44 549 44 549 271 549 c 0,44,45
 501 549 501 549 501 383 c 2,46,-1
 501 83 l 2,47,48
 501 46 501 46 534 17 c 1,49,-1
 534 0 l 1,50,-1
 376 0 l 1,51,52
 359 20 359 20 359 54 c 1,53,54
 282 -23 282 -23 189 -23 c 0,22,23
358 217 m 2,55,-1
 358 255 l 1,56,57
 338 246 338 246 297 238 c 2,58,-1
 247 229 l 2,59,60
 201 220 201 220 182.5 203 c 128,-1,61
 164 186 164 186 164 155 c 0,62,63
 164 125 164 125 185 107.5 c 128,-1,64
 206 90 206 90 243 90 c 0,65,66
 298 90 298 90 328 123 c 128,-1,67
 358 156 358 156 358 217 c 2,55,-1
EndSplineSet
Validated: 1
EndChar

StartChar: aring
Encoding: 229 229 200
Width: 582
GlyphClass: 2
Flags: W
LayerCount: 2
Fore
SplineSet
273 770 m 0,0,1
 311 770 311 770 338 743.5 c 128,-1,2
 365 717 365 717 365 679 c 0,3,4
 365 642 365 642 337.5 616 c 128,-1,5
 310 590 310 590 271.5 590 c 128,-1,6
 233 590 233 590 205.5 616 c 128,-1,7
 178 642 178 642 178 680 c 128,-1,8
 178 718 178 718 205.5 744 c 128,-1,9
 233 770 233 770 273 770 c 0,0,1
273 722 m 0,10,11
 254 722 254 722 241 709.5 c 128,-1,12
 228 697 228 697 228 680 c 128,-1,13
 228 663 228 663 241 650.5 c 128,-1,14
 254 638 254 638 273 638 c 0,15,16
 291 638 291 638 303.5 650.5 c 128,-1,17
 316 663 316 663 316 680 c 128,-1,18
 316 697 316 697 303.5 709.5 c 128,-1,19
 291 722 291 722 273 722 c 0,10,11
189 -23 m 0,20,21
 112 -23 112 -23 65 21.5 c 128,-1,22
 18 66 18 66 18 139 c 0,23,24
 18 282 18 282 183 309 c 2,25,-1
 242 319 l 2,26,27
 244 319 244 319 262.5 321.5 c 128,-1,28
 281 324 281 324 286.5 325.5 c 128,-1,29
 292 327 292 327 307 330 c 128,-1,30
 322 333 322 333 328 337 c 128,-1,31
 334 341 334 341 343 347.5 c 128,-1,32
 352 354 352 354 355 362.5 c 128,-1,33
 358 371 358 371 358 382 c 0,34,35
 358 436 358 436 274 436 c 0,36,37
 220 436 220 436 198 420 c 128,-1,38
 176 404 176 404 171 362 c 1,39,-1
 31 362 l 1,40,41
 44 549 44 549 271 549 c 0,42,43
 501 549 501 549 501 383 c 2,44,-1
 501 83 l 2,45,46
 501 46 501 46 534 17 c 1,47,-1
 534 0 l 1,48,-1
 376 0 l 1,49,50
 359 20 359 20 359 54 c 1,51,52
 282 -23 282 -23 189 -23 c 0,20,21
358 217 m 2,53,-1
 358 255 l 1,54,55
 338 246 338 246 297 238 c 2,56,-1
 247 229 l 2,57,58
 201 220 201 220 182.5 203 c 128,-1,59
 164 186 164 186 164 155 c 0,60,61
 164 125 164 125 185 107.5 c 128,-1,62
 206 90 206 90 243 90 c 0,63,64
 298 90 298 90 328 123 c 128,-1,65
 358 156 358 156 358 217 c 2,53,-1
EndSplineSet
Validated: 1
EndChar

StartChar: ae
Encoding: 230 230 201
Width: 933
GlyphClass: 2
Flags: W
LayerCount: 2
Fore
SplineSet
497 226 m 1,0,1
 497 84 497 84 616 84 c 0,2,3
 653 84 653 84 683.5 103.5 c 128,-1,4
 714 123 714 123 724 152 c 1,5,-1
 867 152 l 1,6,7
 843 72 843 72 772.5 24.5 c 128,-1,8
 702 -23 702 -23 607 -23 c 0,9,10
 466 -23 466 -23 399 81 c 1,11,12
 307 -24 307 -24 186 -24 c 0,13,14
 106 -24 106 -24 58.5 20.5 c 128,-1,15
 11 65 11 65 11 141 c 0,16,17
 11 286 11 286 177 312 c 2,18,-1
 235 322 l 2,19,20
 240 323 240 323 258.5 325.5 c 128,-1,21
 277 328 277 328 283 329.5 c 128,-1,22
 289 331 289 331 303.5 334.5 c 128,-1,23
 318 338 318 338 324 341.5 c 128,-1,24
 330 345 330 345 337.5 351 c 128,-1,25
 345 357 345 357 348 365 c 128,-1,26
 351 373 351 373 351 383 c 0,27,28
 351 436 351 436 263 436 c 0,29,30
 214 436 214 436 191.5 419.5 c 128,-1,31
 169 403 169 403 164 362 c 1,32,-1
 28 362 l 1,33,34
 31 549 31 549 265 549 c 0,35,36
 387 549 387 549 447 499 c 1,37,38
 512 549 512 549 608 549 c 0,39,40
 656 549 656 549 700 535 c 128,-1,41
 744 521 744 521 785 489.5 c 128,-1,42
 826 458 826 458 850.5 396.5 c 128,-1,43
 875 335 875 335 875 250 c 0,44,45
 875 238 875 238 874 226 c 1,46,-1
 497 226 l 1,0,1
351 216 m 2,47,-1
 351 254 l 1,48,49
 329 241 329 241 290 235 c 2,50,-1
 240 228 l 2,51,52
 157 217 157 217 157 155 c 0,53,54
 157 124 157 124 178.5 106.5 c 128,-1,55
 200 89 200 89 236 89 c 0,56,57
 292 89 292 89 321.5 121.5 c 128,-1,58
 351 154 351 154 351 216 c 2,47,-1
498 319 m 1,59,-1
 723 319 l 1,60,61
 711 442 711 442 609 442 c 128,-1,62
 507 442 507 442 498 319 c 1,59,-1
EndSplineSet
Validated: 1
EndChar

StartChar: ccedilla
Encoding: 231 231 202
Width: 582
GlyphClass: 2
Flags: W
LayerCount: 2
Fore
SplineSet
170 260 m 0,0,1
 170 218 170 218 179.5 182.5 c 128,-1,2
 189 147 189 147 217 118.5 c 128,-1,3
 245 90 245 90 289 90 c 0,4,5
 331 90 331 90 355 112.5 c 128,-1,6
 379 135 379 135 392 187 c 1,7,-1
 532 187 l 1,8,9
 523 94 523 94 456.5 35.5 c 128,-1,10
 390 -23 390 -23 294 -23 c 2,11,-1
 292 -23 l 1,12,-1
 274 -63 l 1,13,14
 293 -56 293 -56 316 -56 c 0,15,16
 354 -56 354 -56 375.5 -75 c 128,-1,17
 397 -94 397 -94 397 -127 c 0,18,19
 397 -172 397 -172 362 -196 c 128,-1,20
 327 -220 327 -220 262 -220 c 0,21,22
 202 -220 202 -220 119 -192 c 1,23,-1
 139 -140 l 1,24,25
 208 -170 208 -170 247 -170 c 0,26,27
 272 -170 272 -170 289.5 -158 c 128,-1,28
 307 -146 307 -146 307 -129 c 0,29,30
 307 -113 307 -113 292.5 -103.5 c 128,-1,31
 278 -94 278 -94 254 -94 c 0,32,33
 228 -94 228 -94 202 -106 c 1,34,-1
 247 -21 l 1,35,36
 139 -7 139 -7 81.5 65 c 128,-1,37
 24 137 24 137 24 259 c 0,38,39
 24 397 24 397 94 473 c 128,-1,40
 164 549 164 549 289 549 c 0,41,42
 394 549 394 549 459 493 c 128,-1,43
 524 437 524 437 532 338 c 1,44,-1
 392 338 l 1,45,46
 380 391 380 391 356.5 413.5 c 128,-1,47
 333 436 333 436 288 436 c 0,48,49
 170 436 170 436 170 260 c 0,0,1
EndSplineSet
Validated: 1
EndChar

StartChar: ecircumflex
Encoding: 234 234 205
Width: 582
GlyphClass: 3
Flags: W
LayerCount: 2
Fore
SplineSet
227 757 m 1,0,-1
 338 757 l 1,1,-1
 446 607 l 1,2,-1
 364 607 l 1,3,-1
 279 707 l 1,4,-1
 194 607 l 1,5,-1
 115 607 l 1,6,-1
 227 757 l 1,0,-1
272 549 m 0,7,8
 308 549 308 549 342.5 541 c 128,-1,9
 377 533 377 533 413 512 c 128,-1,10
 449 491 449 491 475.5 458.5 c 128,-1,11
 502 426 502 426 518.5 372.5 c 128,-1,12
 535 319 535 319 535 250 c 0,13,14
 535 238 535 238 534 226 c 1,15,-1
 158 226 l 1,16,17
 159 195 159 195 163.5 172.5 c 128,-1,18
 168 150 168 150 180 128.5 c 128,-1,19
 192 107 192 107 215.5 95.5 c 128,-1,20
 239 84 239 84 274 84 c 0,21,22
 357 84 357 84 385 152 c 1,23,-1
 529 152 l 1,24,25
 505 72 505 72 434 24.5 c 128,-1,26
 363 -23 363 -23 269 -23 c 0,27,28
 149 -23 149 -23 80.5 51.5 c 128,-1,29
 12 126 12 126 12 256 c 0,30,31
 12 392 12 392 81.5 470.5 c 128,-1,32
 151 549 151 549 272 549 c 0,7,8
383 319 m 1,33,34
 378 378 378 378 349.5 410 c 128,-1,35
 321 442 321 442 270 442 c 0,36,37
 174 442 174 442 160 319 c 1,38,-1
 383 319 l 1,33,34
EndSplineSet
Validated: 1
EndChar

StartChar: igrave
Encoding: 236 236 207
Width: 291
GlyphClass: 2
Flags: W
LayerCount: 2
Fore
SplineSet
211 540 m 1,0,-1
 211 0 l 1,1,-1
 66 0 l 1,2,-1
 66 540 l 1,3,-1
 211 540 l 1,0,-1
-14 757 m 1,4,-1
 117 757 l 1,5,-1
 190 607 l 1,6,-1
 117 607 l 1,7,-1
 -14 757 l 1,4,-1
EndSplineSet
Validated: 1
EndChar

StartChar: iacute
Encoding: 237 237 208
Width: 287
GlyphClass: 2
Flags: W
LayerCount: 2
Fore
SplineSet
208 540 m 1,0,-1
 208 0 l 1,1,-1
 63 0 l 1,2,-1
 63 540 l 1,3,-1
 208 540 l 1,0,-1
294 757 m 1,4,-1
 163 607 l 1,5,-1
 91 607 l 1,6,-1
 163 757 l 1,7,-1
 294 757 l 1,4,-1
EndSplineSet
Validated: 1
EndChar

StartChar: icircumflex
Encoding: 238 238 209
Width: 289
GlyphClass: 3
Flags: W
LayerCount: 2
Fore
SplineSet
87 757 m 1,0,-1
 198 757 l 1,1,-1
 305 607 l 1,2,-1
 224 607 l 1,3,-1
 139 707 l 1,4,-1
 54 607 l 1,5,-1
 -25 607 l 1,6,-1
 87 757 l 1,0,-1
210 540 m 1,7,-1
 210 0 l 1,8,-1
 64 0 l 1,9,-1
 64 540 l 1,10,-1
 210 540 l 1,7,-1
EndSplineSet
Validated: 1
EndChar

StartChar: idieresis
Encoding: 239 239 210
Width: 289
GlyphClass: 2
Flags: W
LayerCount: 2
Fore
SplineSet
210 540 m 1,0,-1
 210 0 l 1,1,-1
 64 0 l 1,2,-1
 64 540 l 1,3,-1
 210 540 l 1,0,-1
298 743 m 1,4,-1
 298 621 l 1,5,-1
 184 621 l 1,6,-1
 184 743 l 1,7,-1
 298 743 l 1,4,-1
94 743 m 1,8,-1
 94 621 l 1,9,-1
 -20 621 l 1,10,-1
 -20 743 l 1,11,-1
 94 743 l 1,8,-1
EndSplineSet
Validated: 1
EndChar

StartChar: eth
Encoding: 240 240 211
Width: 641
GlyphClass: 2
Flags: W
LayerCount: 2
Fore
SplineSet
188 741 m 1,0,1
 226 727 226 727 255.5 711 c 128,-1,2
 285 695 285 695 294 692 c 1,3,-1
 384 744 l 1,4,-1
 437 710 l 1,5,-1
 350 660 l 1,6,7
 467 583 467 583 523.5 488 c 128,-1,8
 580 393 580 393 580 269 c 0,9,10
 580 131 580 131 506.5 54 c 128,-1,11
 433 -23 433 -23 302 -23 c 0,12,13
 172 -23 172 -23 98 53.5 c 128,-1,14
 24 130 24 130 24 265 c 0,15,16
 24 386 24 386 93 460 c 128,-1,17
 162 534 162 534 273 534 c 0,18,19
 310 534 310 534 361 515 c 1,20,21
 320 579 320 579 262 611 c 1,22,-1
 182 565 l 1,23,-1
 139 602 l 1,24,-1
 212 646 l 1,25,26
 172 669 172 669 118 694 c 1,27,-1
 188 741 l 1,0,1
302 429 m 0,28,29
 243 429 243 429 207 382.5 c 128,-1,30
 171 336 171 336 171 260 c 0,31,32
 171 183 171 183 207 136.5 c 128,-1,33
 243 90 243 90 302 90 c 128,-1,34
 361 90 361 90 397 136 c 128,-1,35
 433 182 433 182 433 257 c 0,36,37
 433 336 433 336 397.5 382.5 c 128,-1,38
 362 429 362 429 302 429 c 0,28,29
EndSplineSet
Validated: 1
EndChar

StartChar: ntilde
Encoding: 241 241 212
Width: 641
GlyphClass: 2
Flags: W
LayerCount: 2
Fore
SplineSet
420 749 m 1,0,-1
 486 749 l 1,1,2
 480 622 480 622 387 622 c 0,3,4
 362 622 362 622 330 634 c 2,5,-1
 256 660 l 2,6,7
 237 666 237 666 225 666 c 0,8,9
 206 666 206 666 197 655.5 c 128,-1,10
 188 645 188 645 183 621 c 1,11,-1
 118 621 l 1,12,13
 121 679 121 679 147 712 c 128,-1,14
 173 745 173 745 216 745 c 0,15,16
 236 745 236 745 274 732 c 2,17,-1
 348 707 l 2,18,19
 362 701 362 701 383 701 c 0,20,21
 416 701 416 701 420 749 c 1,0,-1
53 540 m 1,22,-1
 199 540 l 1,23,-1
 199 462 l 1,24,25
 259 549 259 549 367 549 c 0,26,27
 457 549 457 549 506.5 500 c 128,-1,28
 556 451 556 451 556 362 c 2,29,-1
 556 0 l 1,30,-1
 410 0 l 1,31,-1
 410 333 l 2,32,33
 410 430 410 430 316 430 c 0,34,35
 263 430 263 430 231 401 c 128,-1,36
 199 372 199 372 199 324 c 2,37,-1
 199 0 l 1,38,-1
 53 0 l 1,39,-1
 53 540 l 1,22,-1
EndSplineSet
Validated: 1
EndChar

StartChar: ocircumflex
Encoding: 244 244 215
Width: 641
GlyphClass: 3
Flags: W
LayerCount: 2
Fore
SplineSet
248 759 m 1,0,-1
 359 759 l 1,1,-1
 466 609 l 1,2,-1
 385 609 l 1,3,-1
 300 709 l 1,4,-1
 215 609 l 1,5,-1
 136 609 l 1,6,-1
 248 759 l 1,0,-1
301 549 m 0,7,8
 433 549 433 549 506.5 472.5 c 128,-1,9
 580 396 580 396 580 259 c 0,10,11
 580 129 580 129 505 53 c 128,-1,12
 430 -23 430 -23 302 -23 c 0,13,14
 172 -23 172 -23 98 53.5 c 128,-1,15
 24 130 24 130 24 263 c 128,-1,16
 24 396 24 396 98 472.5 c 128,-1,17
 172 549 172 549 301 549 c 0,7,8
302 436 m 0,18,19
 243 436 243 436 206.5 388 c 128,-1,20
 170 340 170 340 170 263 c 128,-1,21
 170 186 170 186 206.5 138 c 128,-1,22
 243 90 243 90 302 90 c 0,23,24
 360 90 360 90 397 137.5 c 128,-1,25
 434 185 434 185 434 261 c 0,26,27
 434 341 434 341 398 388.5 c 128,-1,28
 362 436 362 436 302 436 c 0,18,19
EndSplineSet
Validated: 1
EndChar

StartChar: otilde
Encoding: 245 245 216
Width: 641
GlyphClass: 2
Flags: W
LayerCount: 2
Fore
SplineSet
424 749 m 1,0,-1
 489 749 l 1,1,2
 483 622 483 622 390 622 c 0,3,4
 365 622 365 622 333 634 c 2,5,-1
 259 660 l 2,6,7
 241 666 241 666 228 666 c 0,8,9
 209 666 209 666 200 655.5 c 128,-1,10
 191 645 191 645 187 621 c 1,11,-1
 121 621 l 1,12,13
 124 679 124 679 150 712 c 128,-1,14
 176 745 176 745 219 745 c 0,15,16
 240 745 240 745 277 732 c 2,17,-1
 351 707 l 2,18,19
 365 701 365 701 386 701 c 0,20,21
 420 701 420 701 424 749 c 1,0,-1
301 549 m 0,22,23
 433 549 433 549 506.5 472.5 c 128,-1,24
 580 396 580 396 580 259 c 0,25,26
 580 129 580 129 505 53 c 128,-1,27
 430 -23 430 -23 302 -23 c 0,28,29
 172 -23 172 -23 98 53.5 c 128,-1,30
 24 130 24 130 24 263 c 128,-1,31
 24 396 24 396 98 472.5 c 128,-1,32
 172 549 172 549 301 549 c 0,22,23
302 436 m 0,33,34
 243 436 243 436 206.5 388 c 128,-1,35
 170 340 170 340 170 263 c 128,-1,36
 170 186 170 186 206.5 138 c 128,-1,37
 243 90 243 90 302 90 c 0,38,39
 360 90 360 90 397 137.5 c 128,-1,40
 434 185 434 185 434 261 c 0,41,42
 434 341 434 341 398 388.5 c 128,-1,43
 362 436 362 436 302 436 c 0,33,34
EndSplineSet
Validated: 1
EndChar

StartChar: divide
Encoding: 247 247 218
Width: 612
GlyphClass: 2
Flags: W
LayerCount: 2
Fore
SplineSet
544 291 m 1,0,-1
 544 172 l 1,1,-1
 40 172 l 1,2,-1
 40 291 l 1,3,-1
 544 291 l 1,0,-1
228 474 m 1,4,-1
 356 474 l 1,5,-1
 356 351 l 1,6,-1
 228 351 l 1,7,-1
 228 474 l 1,4,-1
228 112 m 1,8,-1
 356 112 l 1,9,-1
 356 -11 l 1,10,-1
 228 -11 l 1,11,-1
 228 112 l 1,8,-1
EndSplineSet
Validated: 1
EndChar

StartChar: oslash
Encoding: 248 248 219
Width: 641
GlyphClass: 2
Flags: W
LayerCount: 2
Fore
SplineSet
119 35 m 1,0,-1
 44 -38 l 1,1,-1
 -1 2 l 1,2,-1
 77 79 l 1,3,4
 25 151 25 151 25 263 c 0,5,6
 25 396 25 396 100 472.5 c 128,-1,7
 175 549 175 549 305 549 c 0,8,9
 416 549 416 549 494 487 c 1,10,-1
 565 557 l 1,11,-1
 610 516 l 1,12,-1
 535 443 l 1,13,14
 584 370 584 370 584 263 c 0,15,16
 584 130 584 130 509.5 53.5 c 128,-1,17
 435 -23 435 -23 306 -23 c 0,18,19
 185 -23 185 -23 119 35 c 1,0,-1
426 336 m 1,20,-1
 217 132 l 1,21,22
 254 90 254 90 306 90 c 0,23,24
 363 90 363 90 400.5 138 c 128,-1,25
 438 186 438 186 438 260 c 0,26,27
 438 300 438 300 426 336 c 1,20,-1
185 184 m 1,28,-1
 396 390 l 1,29,30
 355 437 355 437 303 437 c 0,31,32
 245 437 245 437 208 389 c 128,-1,33
 171 341 171 341 171 266 c 0,34,35
 171 220 171 220 185 184 c 1,28,-1
EndSplineSet
Validated: 1
EndChar

StartChar: ucircumflex
Encoding: 251 251 222
Width: 641
GlyphClass: 3
Flags: W
LayerCount: 2
Fore
SplineSet
246 757 m 1,0,-1
 357 757 l 1,1,-1
 464 607 l 1,2,-1
 383 607 l 1,3,-1
 298 707 l 1,4,-1
 213 607 l 1,5,-1
 134 607 l 1,6,-1
 246 757 l 1,0,-1
551 0 m 1,7,-1
 405 0 l 1,8,-1
 405 64 l 1,9,10
 345 -23 345 -23 237 -23 c 0,11,12
 147 -23 147 -23 97.5 26 c 128,-1,13
 48 75 48 75 48 164 c 2,14,-1
 48 540 l 1,15,-1
 194 540 l 1,16,-1
 194 193 l 2,17,18
 194 96 194 96 288 96 c 0,19,20
 341 96 341 96 373 125 c 128,-1,21
 405 154 405 154 405 202 c 2,22,-1
 405 540 l 1,23,-1
 551 540 l 1,24,-1
 551 0 l 1,7,-1
EndSplineSet
Validated: 1
EndChar

